<?xml version="1.0" encoding="UTF-8"?>
<svg xmlns="http://www.w3.org/2000/svg" xmlns:xlink="http://www.w3.org/1999/xlink" width="254pt" height="131pt" viewBox="0 0 254 131" version="1.1">
<g id="surface1">
<path style=" stroke:none;fill-rule:evenodd;fill:rgb(100%,100%,100%);fill-opacity:1;" d="M 21.410156 102.097656 C 12.867188 102.097656 5.933594 100.625 0 97.777344 L 1.804688 84.109375 C 8.078125 87.195312 15.148438 88.664062 21.078125 88.664062 C 25.402344 88.664062 28.25 87.191406 28.25 84.585938 C 28.25 77.082031 1.242188 78.882812 1.242188 59.28125 C 1.242188 46.753906 12.726562 40.15625 27.113281 40.15625 C 34.285156 40.15625 41.691406 42.101562 46.480469 43.804688 L 44.539062 57.242188 C 39.507812 55.296875 32.671875 53.488281 26.976562 53.488281 C 23.464844 53.488281 20.613281 54.722656 20.613281 57.007812 C 20.613281 64.40625 48.195312 62.9375 48.195312 82.0625 C 48.195312 94.789062 36.894531 102.09375 21.414062 102.09375 Z M 96.09375 100.816406 L 96.09375 66.976562 C 96.09375 59.238281 92.675781 55.582031 86.167969 55.582031 C 82.996094 55.582031 79.671875 56.480469 77.390625 57.863281 L 77.390625 100.816406 L 57.34375 100.816406 L 57.34375 42.152344 L 76.953125 40.535156 L 76.476562 50.125 L 77.140625 50.125 C 81.84375 43.820312 89.234375 40.109375 97.085938 40.109375 C 107.335938 40.109375 116.210938 46.472656 116.210938 61.519531 L 116.210938 100.816406 L 96.085938 100.816406 Z M 228.507812 100.816406 L 212.460938 72.90625 L 210.84375 72.90625 L 210.84375 100.8125 L 190.804688 100.8125 L 190.804688 31.328125 L 210.847656 0 L 210.847656 64.835938 C 214.835938 59.949219 228.269531 41.390625 228.269531 41.390625 L 253 41.390625 L 229.546875 66.207031 L 253.808594 100.871094 L 228.507812 100.871094 Z M 164.839844 41.582031 L 156.621094 68.351562 C 155.015625 73.382812 153.445312 82.636719 153.445312 82.636719 C 153.445312 82.636719 152.214844 73.046875 150.503906 68.015625 L 141.71875 41.574219 L 119.261719 41.574219 L 143.667969 100.8125 C 140.34375 108.691406 135.214844 115.335938 128.378906 115.335938 C 127.144531 115.335938 125.914062 115.289062 124.71875 115.148438 L 116.746094 127.484375 C 119.261719 128.90625 124.054688 130.382812 129.753906 130.382812 C 144.566406 130.382812 154.488281 118.375 161.421875 100.625 L 184.683594 41.574219 L 164.847656 41.574219 Z M 164.839844 41.582031 "/>
</g>
</svg>
