<!-- Created with Inkscape (http://www.inkscape.org/) -->
<svg xmlns:rdf="http://www.w3.org/1999/02/22-rdf-syntax-ns#" xmlns="http://www.w3.org/2000/svg" version="1.1" xmlns:cc="http://creativecommons.org/ns#" xmlns:dc="http://purl.org/dc/elements/1.1/" viewBox="0 0 834 751.8">
 <title>Asciidoctor Outputs with Confluence</title>
 <metadata>
  <rdf:RDF>
   <cc:Work rdf:about="">
    <dc:format>image/svg+xml</dc:format>
    <dc:type rdf:resource="http://purl.org/dc/dcmitype/StillImage"/>
    <dc:title>Asciidoctor Outputs with Confluence</dc:title>
    <dc:creator>
     <cc:Agent>
      <dc:title>Sarah White</dc:title>
     </cc:Agent>
    </dc:creator>
    <dc:publisher>
     <cc:Agent>
      <dc:title>Sarah White</dc:title>
     </cc:Agent>
    </dc:publisher>
    <dc:language>EN</dc:language>
    <dc:subject>
     <rdf:Bag>
      <rdf:li>Asciidoctor</rdf:li>
      <rdf:li>AsciiDoc</rdf:li>
      <rdf:li>Confluence</rdf:li>
     </rdf:Bag>
    </dc:subject>
    <dc:description>Asciidoctor outputs and the shared HTML output with Confluence.</dc:description>
    <dc:date>2015-04-13</dc:date>
    <dc:rights>
     <cc:Agent>
      <dc:title>Sarah White</dc:title>
     </cc:Agent>
    </dc:rights>
    <cc:license rdf:resource="http://creativecommons.org/licenses/by-sa/3.0/"/>
   </cc:Work>
   <cc:License rdf:about="http://creativecommons.org/licenses/by-sa/3.0/">
    <cc:permits rdf:resource="http://creativecommons.org/ns#Reproduction"/>
    <cc:permits rdf:resource="http://creativecommons.org/ns#Distribution"/>
    <cc:requires rdf:resource="http://creativecommons.org/ns#Notice"/>
    <cc:requires rdf:resource="http://creativecommons.org/ns#Attribution"/>
    <cc:permits rdf:resource="http://creativecommons.org/ns#DerivativeWorks"/>
    <cc:requires rdf:resource="http://creativecommons.org/ns#ShareAlike"/>
   </cc:License>
  </rdf:RDF>
 </metadata>
 <g transform="translate(-11.02244,-259.17228)">
  <path d="M267,638.9,128.1,778.1,117,768.9,256,629.6z" style="enable-background:accumulate;color:#000000;fill:#e5ff80;"/>
  <rect style="enable-background:accumulate;color:#000000;fill:#e5ff80;" transform="matrix(0.00103337,0.99999947,-0.99996241,0.00867032,0,0)" height="11.46" width="521.9" y="-274.3" x="374.5"/>
  <path style="enable-background:accumulate;color:#000000;fill:#e5ff80;" d="M330,676,469.2,814.9,460,826,320.8,687.1z"/>
  <path d="m149.9,501.8,54.47,54.84-5.231,5.411-54.47-54.84z" style="enable-background:accumulate;color:#000000;fill:#e5ff80;"/>
  <path style="enable-background:accumulate;color:#000000;fill:#e5ff80;" d="m408.2,493-59.19,58.52-5.411-5.231,59.19-58.52z"/>
  <path d="m724.3,771.8-180,79.33-6.951-12.62,180-79.33z" style="enable-background:accumulate;color:#000000;fill:#e5ff80;"/>
 </g>
 <g transform="translate(-11.02244,-291.53446)">
  <path style="enable-background:accumulate;fill-rule:nonzero;color:#000000;stroke:#e5ff80;stroke-miterlimit:4;stroke-dasharray:none;stroke-width:9.22619057;fill:#aad400;" d="m333.9,277.8c0,38.22-30.98,69.2-69.2,69.2s-69.2-30.98-69.2-69.2,30.98-69.2,69.2-69.2,69.2,30.98,69.2,69.2z" transform="matrix(1.5174194,0,0,1.5174194,-132.51624,236.76434)"/>
  <g style="font-size:32px;font-family:Lato;writing-mode:lr-tb;fill:#ffffff;letter-spacing:0px;text-anchor:end;line-height:125%;word-spacing:0px;font-stretch:normal;font-variant:normal;font-weight:900;font-style:normal;text-align:end;" transform="scale(1.0429804,0.95879079)">
   <path style="fill:#ffffff;" d="m197.5,698.5-4.192,0c-0.4694,0-0.8587-0.1067-1.168-0.32-0.2987-0.224-0.5067-0.5067-0.624-0.848l-1.376-4.064h-8.864l-1.376,4.064c-0.1067,0.2987-0.3147,0.5707-0.624,0.816-0.3093,0.2347-0.688,0.352-1.136,0.352h-4.224l9.024-23.31h5.536l9.024,23.31m-14.98-8.912,6.368,0-2.144-6.384c-0.1387-0.4053-0.304-0.88-0.496-1.424-0.1814-0.5546-0.3627-1.152-0.544-1.792-0.1707,0.6507-0.3467,1.253-0.528,1.808-0.1814,0.5547-0.352,1.035-0.512,1.44l-2.144,6.352"/>
   <path style="fill:#ffffff;" d="m209.5,685.5c-0.128,0.2027-0.2667,0.3467-0.416,0.432-0.1387,0.0853-0.32,0.128-0.544,0.128-0.2347,0.00001-0.4694-0.048-0.704-0.144-0.2347-0.1067-0.4907-0.2187-0.768-0.336-0.2667-0.1173-0.5707-0.224-0.912-0.32-0.3413-0.1067-0.7307-0.16-1.168-0.16-0.6293,0.00001-1.115,0.1227-1.456,0.368-0.3307,0.2347-0.496,0.5653-0.496,0.992-0.00001,0.3093,0.1067,0.5653,0.32,0.768,0.224,0.2027,0.5173,0.384,0.88,0.544,0.3627,0.1493,0.7733,0.2933,1.232,0.432s0.928,0.2933,1.408,0.464,0.9493,0.3733,1.408,0.608c0.4586,0.224,0.8693,0.5067,1.232,0.848,0.3626,0.3307,0.6506,0.736,0.864,1.216,0.224,0.48,0.336,1.056,0.336,1.728-0.00002,0.8213-0.1494,1.579-0.448,2.272-0.2987,0.6933-0.7467,1.291-1.344,1.792-0.5867,0.5013-1.317,0.8907-2.192,1.168-0.864,0.2773-1.861,0.416-2.992,0.416-0.5653-0.00001-1.131-0.0533-1.696-0.16-0.5653-0.1067-1.115-0.2507-1.648-0.432-0.5227-0.1813-1.008-0.3947-1.456-0.64-0.448-0.256-0.832-0.528-1.152-0.816l1.152-1.824c0.1387-0.2133,0.304-0.3787,0.496-0.496,0.192-0.128,0.4427-0.192,0.752-0.192,0.288,0,0.544,0.064,0.768,0.192,0.2347,0.128,0.4853,0.2667,0.752,0.416s0.576,0.288,0.928,0.416c0.3627,0.128,0.816,0.192,1.36,0.192,0.384,0,0.7093-0.0373,0.976-0.112,0.2667-0.0853,0.48-0.1973,0.64-0.336s0.2773-0.2933,0.352-0.464,0.112-0.3467,0.112-0.528c-0.00001-0.3307-0.112-0.6027-0.336-0.816s-0.5173-0.3947-0.88-0.544c-0.3627-0.16-0.7787-0.304-1.248-0.432-0.4587-0.1387-0.928-0.2933-1.408-0.464s-0.9547-0.3733-1.424-0.608c-0.4587-0.2453-0.8693-0.5493-1.232-0.912-0.3627-0.3733-0.656-0.8267-0.88-1.36s-0.336-1.179-0.336-1.936c0-0.704,0.1333-1.371,0.4-2,0.2773-0.64,0.688-1.2,1.232-1.68s1.227-0.8587,2.048-1.136c0.8213-0.288,1.781-0.432,2.88-0.432,0.5973,0.00001,1.173,0.0534,1.728,0.16,0.5653,0.1067,1.093,0.256,1.584,0.448,0.4906,0.192,0.9386,0.4213,1.344,0.688,0.4053,0.256,0.7626,0.5387,1.072,0.848l-1.12,1.744"/>
   <path style="fill:#ffffff;" d="m225.4,685.9c-0.1494,0.1813-0.2934,0.3253-0.432,0.432-0.1387,0.1067-0.336,0.16-0.592,0.16-0.2454,0.00001-0.4694-0.0587-0.672-0.176-0.192-0.1173-0.4107-0.2453-0.656-0.384-0.2454-0.1493-0.5334-0.2827-0.864-0.4-0.3307-0.1173-0.7414-0.176-1.232-0.176-0.608,0.00001-1.136,0.112-1.584,0.336-0.4373,0.224-0.8,0.544-1.088,0.96s-0.5013,0.928-0.64,1.536c-0.1387,0.5973-0.208,1.275-0.208,2.032-0.00001,1.589,0.304,2.811,0.912,3.664,0.6187,0.8533,1.467,1.28,2.544,1.28,0.576,0,1.029-0.0693,1.36-0.208,0.3413-0.1493,0.6293-0.3093,0.864-0.48,0.2346-0.1813,0.448-0.3467,0.64-0.496,0.2026-0.1493,0.4533-0.224,0.752-0.224,0.3946,0,0.6933,0.144,0.896,0.432l1.44,1.776c-0.512,0.5867-1.051,1.067-1.616,1.44-0.5654,0.3627-1.147,0.6507-1.744,0.864-0.5867,0.2027-1.179,0.3413-1.776,0.416-0.5974,0.0853-1.179,0.128-1.744,0.128-1.013-0.00001-1.984-0.192-2.912-0.576-0.9173-0.384-1.728-0.9387-2.432-1.664-0.6933-0.736-1.248-1.637-1.664-2.704-0.4053-1.067-0.608-2.283-0.608-3.648,0-1.195,0.176-2.309,0.528-3.344,0.3627-1.045,0.8907-1.947,1.584-2.704,0.704-0.768,1.568-1.371,2.592-1.808,1.035-0.4373,2.229-0.656,3.584-0.656,1.301,0.00001,2.443,0.208,3.424,0.624,0.9813,0.416,1.867,1.024,2.656,1.824l-1.312,1.744"/>
   <path style="fill:#ffffff;" d="m234.1,681.9,0,16.59-4.96,0,0-16.59,4.96,0m0.576-4.544c-0.00001,0.3947-0.08,0.768-0.24,1.12-0.16,0.3414-0.3787,0.6454-0.656,0.912-0.2773,0.256-0.6027,0.464-0.976,0.624-0.3627,0.1494-0.752,0.224-1.168,0.224-0.4053,0.00001-0.784-0.0747-1.136-0.224-0.352-0.16-0.6667-0.368-0.944-0.624-0.2667-0.2666-0.48-0.5706-0.64-0.912-0.1493-0.352-0.224-0.7253-0.224-1.12,0-0.4053,0.0747-0.784,0.224-1.136,0.16-0.352,0.3733-0.6613,0.64-0.928,0.2773-0.2666,0.592-0.4746,0.944-0.624,0.352-0.1493,0.7307-0.224,1.136-0.224,0.416,0.00002,0.8053,0.0747,1.168,0.224,0.3733,0.1494,0.6987,0.3574,0.976,0.624,0.2773,0.2667,0.496,0.576,0.656,0.928s0.24,0.7307,0.24,1.136"/>
   <path style="fill:#ffffff;" d="m243.2,681.9,0,16.59-4.96,0,0-16.59,4.96,0m0.576-4.544c-0.00001,0.3947-0.08,0.768-0.24,1.12-0.16,0.3414-0.3787,0.6454-0.656,0.912-0.2773,0.256-0.6027,0.464-0.976,0.624-0.3627,0.1494-0.752,0.224-1.168,0.224-0.4053,0.00001-0.784-0.0747-1.136-0.224-0.352-0.16-0.6667-0.368-0.944-0.624-0.2667-0.2666-0.48-0.5706-0.64-0.912-0.1493-0.352-0.224-0.7253-0.224-1.12,0-0.4053,0.0747-0.784,0.224-1.136,0.16-0.352,0.3733-0.6613,0.64-0.928,0.2773-0.2666,0.592-0.4746,0.944-0.624,0.352-0.1493,0.7307-0.224,1.136-0.224,0.416,0.00002,0.8053,0.0747,1.168,0.224,0.3733,0.1494,0.6987,0.3574,0.976,0.624,0.2773,0.2667,0.496,0.576,0.656,0.928s0.24,0.7307,0.24,1.136"/>
   <path style="fill:#ffffff;" d="m258.9,698.5c-0.3094,0-0.5707-0.0693-0.784-0.208-0.2027-0.1387-0.3467-0.3467-0.432-0.624l-0.384-1.264c-0.3307,0.352-0.6774,0.672-1.04,0.96-0.3627,0.288-0.7574,0.5387-1.184,0.752-0.416,0.2027-0.8693,0.3573-1.36,0.464-0.48,0.1173-1.003,0.176-1.568,0.176-0.864-0.00001-1.664-0.192-2.4-0.576s-1.371-0.9387-1.904-1.664c-0.5333-0.7253-0.9547-1.611-1.264-2.656-0.2987-1.056-0.448-2.256-0.448-3.6,0-1.237,0.1707-2.384,0.512-3.44,0.3413-1.067,0.8213-1.984,1.44-2.752,0.6293-0.7787,1.381-1.387,2.256-1.824,0.8747-0.4373,1.84-0.656,2.896-0.656,0.8533,0.00001,1.573,0.128,2.16,0.384,0.5973,0.2453,1.136,0.5707,1.616,0.976v-8.4h4.96v23.95h-3.072m-5.024-3.552c0.3627,0,0.688-0.032,0.976-0.096,0.2986-0.0747,0.5706-0.176,0.816-0.304,0.2453-0.128,0.4746-0.288,0.688-0.48,0.224-0.192,0.4426-0.416,0.656-0.672v-7.04c-0.384-0.416-0.7947-0.704-1.232-0.864-0.4267-0.1707-0.88-0.256-1.36-0.256-0.4587,0.00001-0.88,0.0907-1.264,0.272s-0.72,0.4747-1.008,0.88c-0.2773,0.3947-0.496,0.912-0.656,1.552s-0.24,1.413-0.24,2.32c-0.00001,0.8747,0.064,1.611,0.192,2.208,0.128,0.5973,0.304,1.083,0.528,1.456,0.2347,0.3627,0.512,0.624,0.832,0.784s0.6773,0.24,1.072,0.24"/>
   <path style="fill:#ffffff;" d="m273.2,681.7c1.259,0.00001,2.405,0.1974,3.44,0.592,1.035,0.3947,1.92,0.96,2.656,1.696,0.7466,0.736,1.323,1.632,1.728,2.688,0.416,1.045,0.624,2.224,0.624,3.536-0.00002,1.323-0.208,2.517-0.624,3.584-0.4054,1.056-0.9814,1.957-1.728,2.704-0.736,0.736-1.621,1.307-2.656,1.712-1.035,0.3947-2.181,0.592-3.44,0.592-1.269-0.00001-2.427-0.1973-3.472-0.592-1.035-0.4053-1.931-0.976-2.688-1.712-0.7467-0.7467-1.328-1.648-1.744-2.704-0.4053-1.067-0.608-2.261-0.608-3.584,0-1.312,0.2027-2.491,0.608-3.536,0.416-1.056,0.9973-1.952,1.744-2.688,0.7573-0.736,1.653-1.301,2.688-1.696,1.045-0.3946,2.203-0.592,3.472-0.592m0,13.42c1.141,0,1.979-0.4,2.512-1.2,0.544-0.8107,0.816-2.037,0.816-3.68-0.00002-1.643-0.272-2.864-0.816-3.664-0.5334-0.8-1.371-1.2-2.512-1.2-1.173,0.00001-2.032,0.4-2.576,1.2s-0.816,2.021-0.816,3.664c-0.00001,1.643,0.272,2.869,0.816,3.68,0.544,0.8,1.403,1.2,2.576,1.2"/>
   <path style="fill:#ffffff;" d="m296.3,685.9c-0.1494,0.1813-0.2934,0.3253-0.432,0.432-0.1387,0.1067-0.336,0.16-0.592,0.16-0.2454,0.00001-0.4694-0.0587-0.672-0.176-0.192-0.1173-0.4107-0.2453-0.656-0.384-0.2454-0.1493-0.5334-0.2827-0.864-0.4-0.3307-0.1173-0.7414-0.176-1.232-0.176-0.608,0.00001-1.136,0.112-1.584,0.336-0.4373,0.224-0.8,0.544-1.088,0.96s-0.5013,0.928-0.64,1.536c-0.1387,0.5973-0.208,1.275-0.208,2.032-0.00001,1.589,0.304,2.811,0.912,3.664,0.6187,0.8533,1.467,1.28,2.544,1.28,0.576,0,1.029-0.0693,1.36-0.208,0.3413-0.1493,0.6293-0.3093,0.864-0.48,0.2346-0.1813,0.448-0.3467,0.64-0.496,0.2026-0.1493,0.4533-0.224,0.752-0.224,0.3946,0,0.6933,0.144,0.896,0.432l1.44,1.776c-0.512,0.5867-1.051,1.067-1.616,1.44-0.5654,0.3627-1.147,0.6507-1.744,0.864-0.5867,0.2027-1.179,0.3413-1.776,0.416-0.5974,0.0853-1.179,0.128-1.744,0.128-1.013-0.00001-1.984-0.192-2.912-0.576-0.9173-0.384-1.728-0.9387-2.432-1.664-0.6933-0.736-1.248-1.637-1.664-2.704-0.4053-1.067-0.608-2.283-0.608-3.648,0-1.195,0.176-2.309,0.528-3.344,0.3627-1.045,0.8907-1.947,1.584-2.704,0.704-0.768,1.568-1.371,2.592-1.808,1.035-0.4373,2.229-0.656,3.584-0.656,1.301,0.00001,2.443,0.208,3.424,0.624,0.9813,0.416,1.867,1.024,2.656,1.824l-1.312,1.744"/>
   <path style="fill:#ffffff;" d="m305.7,698.8c-0.7893-0.00001-1.488-0.112-2.096-0.336-0.5973-0.2347-1.104-0.56-1.52-0.976-0.4053-0.4267-0.7147-0.9387-0.928-1.536s-0.32-1.264-0.32-2v-8.576h-1.408c-0.256,0.00001-0.4747-0.08-0.656-0.24-0.1813-0.1707-0.272-0.416-0.272-0.736v-1.936l2.64-0.512,0.976-4.048c0.128-0.512,0.4907-0.768,1.088-0.768h2.592v4.848h4.032v3.392h-4.032v8.24c-0.00001,0.384,0.0907,0.704,0.272,0.96,0.192,0.2453,0.464,0.368,0.816,0.368,0.1813,0,0.3306-0.016,0.448-0.048,0.128-0.0427,0.2346-0.0853,0.32-0.128,0.096-0.0533,0.1813-0.096,0.256-0.128,0.0853-0.0427,0.1813-0.064,0.288-0.064,0.1493,0,0.2666,0.0373,0.352,0.112,0.096,0.064,0.192,0.1707,0.288,0.32l1.504,2.352c-0.64,0.48-1.36,0.8427-2.16,1.088-0.8,0.2347-1.627,0.352-2.48,0.352"/>
   <path style="fill:#ffffff;" d="m320.1,681.7c1.259,0.00001,2.405,0.1974,3.44,0.592,1.035,0.3947,1.92,0.96,2.656,1.696,0.7466,0.736,1.323,1.632,1.728,2.688,0.416,1.045,0.624,2.224,0.624,3.536-0.00002,1.323-0.208,2.517-0.624,3.584-0.4054,1.056-0.9814,1.957-1.728,2.704-0.736,0.736-1.621,1.307-2.656,1.712-1.035,0.3947-2.181,0.592-3.44,0.592-1.269-0.00001-2.427-0.1973-3.472-0.592-1.035-0.4053-1.931-0.976-2.688-1.712-0.7467-0.7467-1.328-1.648-1.744-2.704-0.4053-1.067-0.608-2.261-0.608-3.584,0-1.312,0.2027-2.491,0.608-3.536,0.416-1.056,0.9973-1.952,1.744-2.688,0.7573-0.736,1.653-1.301,2.688-1.696,1.045-0.3946,2.203-0.592,3.472-0.592m0,13.42c1.141,0,1.979-0.4,2.512-1.2,0.544-0.8107,0.816-2.037,0.816-3.68-0.00002-1.643-0.272-2.864-0.816-3.664-0.5334-0.8-1.371-1.2-2.512-1.2-1.173,0.00001-2.032,0.4-2.576,1.2s-0.816,2.021-0.816,3.664c-0.00001,1.643,0.272,2.869,0.816,3.68,0.544,0.8,1.403,1.2,2.576,1.2"/>
   <path style="fill:#ffffff;" d="m331.3,698.5,0-16.59,2.944,0c0.2453,0.00001,0.448,0.0213,0.608,0.064,0.1707,0.0427,0.3093,0.112,0.416,0.208,0.1173,0.0853,0.2027,0.2027,0.256,0.352,0.064,0.1493,0.1173,0.3307,0.16,0.544l0.272,1.552c0.608-0.9387,1.291-1.68,2.048-2.224,0.7573-0.544,1.584-0.816,2.48-0.816,0.7573,0.00001,1.365,0.1814,1.824,0.544l-0.64,3.648c-0.0427,0.224-0.128,0.384-0.256,0.48-0.128,0.0853-0.2987,0.128-0.512,0.128-0.1814,0.00001-0.3947-0.0213-0.64-0.064-0.2454-0.0533-0.5547-0.08-0.928-0.08-1.301,0.00001-2.325,0.6933-3.072,2.08v10.18h-4.96"/>
  </g>
 </g>
 <g transform="translate(-11.02244,-291.53446)">
  <path style="enable-background:accumulate;fill-rule:nonzero;color:#000000;stroke:#e5ff80;stroke-miterlimit:4;stroke-dasharray:none;stroke-width:10.37946415;fill:#b3b3b3;" d="m333.9,277.8c0,38.22-30.98,69.2-69.2,69.2s-69.2-30.98-69.2-69.2,30.98-69.2,69.2-69.2,69.2,30.98,69.2,69.2z" transform="matrix(1.1561291,0,0,1.1561291,443.00648,469.98759)"/>
  <text style="font-size:24px;font-family:Lato;writing-mode:lr-tb;fill:#000000;letter-spacing:0px;text-anchor:end;line-height:125%;word-spacing:0px;font-stretch:normal;font-variant:normal;font-weight:bold;font-style:normal;text-align:end;" xml:space="preserve" transform="scale(1.0429804,0.95879079)" y="833.93506" x="779.54132"><tspan x="779.54132" style="font-size:24px;font-weight:bold;fill:#ffffff;" y="833.93506">Confluence</tspan></text>
 </g>
 <g transform="translate(-11.02244,-291.53446)">
  <path style="enable-background:accumulate;fill-rule:nonzero;color:#000000;stroke:#e5ff80;stroke-miterlimit:4;stroke-dasharray:none;stroke-width:6.58482122;fill:#ffffff;" d="m199.1,175.1c0,14.55-11.79,26.34-26.34,26.34s-26.34-11.79-26.34-26.34,11.79-26.34,26.34-26.34,26.34,11.79,26.34,26.34z" transform="matrix(2.1261018,0,0,2.1261018,126.67055,508.97537)"/>
  <g style="font-size:28px;font-family:Lato;writing-mode:lr-tb;fill:#999999;letter-spacing:0px;text-anchor:end;line-height:125%;word-spacing:0px;font-stretch:normal;font-variant:normal;font-weight:bold;font-style:normal;text-align:end;" transform="scale(1.0429804,0.95879079)">
   <path style="fill:#999999;" d="m452.8,929.3-3.794,0,0-8.848-9.492,0,0,8.848-3.794,0,0-20.24,3.794,0,0,8.708,9.492,0,0-8.708,3.794,0,0,20.24"/>
   <path style="fill:#999999;" d="m471.2,909.1,0,3.094-6.09,0,0,17.15-3.766,0,0-17.15-6.118,0,0-3.094,15.97,0"/>
   <path style="fill:#999999;" d="m483.8,920.9c0.1586,0.2987,0.3033,0.6113,0.434,0.938,0.14,0.3173,0.2753,0.6393,0.406,0.966,0.1306-0.336,0.266-0.6673,0.406-0.994s0.2893-0.6393,0.448-0.938l5.992-11.21c0.0746-0.14,0.1493-0.252,0.224-0.336,0.084-0.084,0.1726-0.1446,0.266-0.182,0.1026-0.0373,0.2146-0.0607,0.336-0.07,0.1213-0.009,0.266-0.014,0.434-0.014h2.842v20.24h-3.318v-13.08c-0.00002-0.2427,0.005-0.5087,0.014-0.798,0.0186-0.2893,0.042-0.5833,0.07-0.882l-6.118,11.48c-0.14,0.2613-0.322,0.4667-0.546,0.616-0.224,0.14-0.4854,0.21-0.784,0.21h-0.518c-0.2987,0-0.56-0.07-0.784-0.21-0.224-0.1493-0.406-0.3547-0.546-0.616l-6.202-11.52c0.0373,0.308,0.0607,0.6113,0.07,0.91,0.0187,0.2893,0.028,0.56,0.028,0.812v13.08h-3.318v-20.24h2.842c0.168,0.00002,0.3127,0.005,0.434,0.014s0.2287,0.0327,0.322,0.07c0.1027,0.0373,0.196,0.098,0.28,0.182s0.1633,0.196,0.238,0.336l6.048,11.24"/>
   <path style="fill:#999999;" d="m503.4,926.2,8.106,0,0,3.108-11.87,0,0-20.24,3.766,0,0,17.14"/>
  </g>
 </g>
 <g transform="translate(-11.02244,-291.53446)">
  <path style="enable-background:accumulate;fill-rule:nonzero;color:#000000;stroke:#e5ff80;stroke-miterlimit:4;stroke-dasharray:none;stroke-width:6.3214283;fill:#ffffff;" d="m199.1,175.1c0,14.55-11.79,26.34-26.34,26.34s-26.34-11.79-26.34-26.34,11.79-26.34,26.34-26.34,26.34,11.79,26.34,26.34z" transform="matrix(1.8983051,0,0,1.8983051,-58.77264,644.91194)"/>
  <g style="font-size:20px;font-family:Lato;writing-mode:lr-tb;fill:#999999;letter-spacing:0px;text-anchor:end;line-height:125%;word-spacing:0px;font-stretch:normal;font-variant:normal;font-weight:bold;font-style:normal;text-align:end;" transform="scale(1.0429804,0.95879079)">
   <path style="fill:#999999;" d="m242.5,1022,0,5.09-2.69,0,0-14.46,4.71,0c0.9667,0,1.803,0.1134,2.51,0.34,0.7067,0.2267,1.29,0.5434,1.75,0.95,0.46,0.4067,0.8,0.8934,1.02,1.46,0.22,0.5667,0.33,1.187,0.33,1.86-0.00001,0.7-0.1167,1.343-0.35,1.93-0.2334,0.58-0.5834,1.08-1.05,1.5-0.4667,0.42-1.05,0.7467-1.75,0.98s-1.52,0.35-2.46,0.35h-2.02m0-2.1,2.02,0c0.4933,0,0.9233-0.06,1.29-0.18,0.3667-0.1266,0.67-0.3033,0.91-0.53,0.24-0.2333,0.42-0.5133,0.54-0.84,0.12-0.3333,0.18-0.7033,0.18-1.11-0.00001-0.3866-0.06-0.7366-0.18-1.05-0.12-0.3133-0.3-0.58-0.54-0.8s-0.5433-0.3866-0.91-0.5c-0.3667-0.12-0.7967-0.18-1.29-0.18h-2.02v5.19"/>
   <path style="fill:#999999;" d="m265.1,1019c-0.00002,1.06-0.1767,2.033-0.53,2.92-0.3534,0.8867-0.85,1.65-1.49,2.29s-1.41,1.137-2.31,1.49c-0.9,0.3533-1.897,0.53-2.99,0.53h-5.52v-14.46h5.52c1.093,0,2.09,0.18,2.99,0.54,0.9,0.3534,1.67,0.85,2.31,1.49,0.64,0.6334,1.137,1.393,1.49,2.28,0.3533,0.8867,0.53,1.86,0.53,2.92m-2.75,0c-0.00001-0.7933-0.1067-1.503-0.32-2.13-0.2134-0.6333-0.5167-1.167-0.91-1.6-0.3933-0.44-0.8733-0.7766-1.44-1.01-0.56-0.2333-1.193-0.35-1.9-0.35h-2.81v10.18h2.81c0.7067,0,1.34-0.1167,1.9-0.35,0.5667-0.2333,1.047-0.5667,1.44-1,0.3933-0.44,0.6966-0.9733,0.91-1.6,0.2133-0.6333,0.32-1.347,0.32-2.14"/>
   <path style="fill:#999999;" d="m276.3,1012,0,2.14-6.41,0,0,4.28,5.41,0,0,2.15-5.41,0,0,5.89-2.71,0,0-14.46,9.12,0"/>
  </g>
 </g>
 <g transform="translate(-11.02244,-291.53446)">
  <path style="enable-background:accumulate;color:#000000;stroke:#e5ff80;stroke-miterlimit:4;stroke-dasharray:none;stroke-width:6.3214283;fill:#ffffff;" d="m199.1,175.1c0,14.55-11.79,26.34-26.34,26.34s-26.34-11.79-26.34-26.34,11.79-26.34,26.34-26.34,26.34,11.79,26.34,26.34z" transform="matrix(1.8983051,0,0,1.8983051,-58.77264,25.084222)"/>
  <g style="font-size:20px;font-family:Lato;writing-mode:lr-tb;fill:#999999;letter-spacing:0px;text-anchor:end;line-height:125%;word-spacing:0px;font-stretch:normal;font-variant:normal;font-weight:normal;font-style:normal;text-align:end;" transform="scale(1.0429804,0.95879079)">
   <path style="fill:#999999;" d="m242.6,365.6,0,2.14-6.41,0,0,4.01,5.05,0,0,2.07-5.05,0,0,4.09,6.41,0,0,2.15-9.12,0,0-14.46,9.12,0"/>
   <path style="fill:#999999;" d="m247.7,375,0,5.09-2.69,0,0-14.46,4.71,0c0.9667,0.00002,1.803,0.1134,2.51,0.34,0.7067,0.2267,1.29,0.5434,1.75,0.95,0.46,0.4067,0.8,0.8934,1.02,1.46,0.22,0.5667,0.33,1.187,0.33,1.86-0.00001,0.7-0.1167,1.343-0.35,1.93-0.2333,0.58-0.5833,1.08-1.05,1.5s-1.05,0.7467-1.75,0.98-1.52,0.35-2.46,0.35h-2.02m0-2.1,2.02,0c0.4933,0.00001,0.9233-0.06,1.29-0.18,0.3667-0.1267,0.67-0.3033,0.91-0.53,0.24-0.2333,0.42-0.5133,0.54-0.84,0.12-0.3333,0.18-0.7033,0.18-1.11-0.00001-0.3866-0.06-0.7366-0.18-1.05-0.12-0.3133-0.3-0.58-0.54-0.8s-0.5433-0.3866-0.91-0.5c-0.3667-0.12-0.7967-0.18-1.29-0.18h-2.02v5.19"/>
   <path style="fill:#999999;" d="m263.2,377.9c0.52,0,0.9833-0.0867,1.39-0.26,0.4133-0.1733,0.76-0.4167,1.04-0.73,0.2867-0.3133,0.5033-0.6933,0.65-1.14,0.1533-0.4467,0.23-0.9467,0.23-1.5v-8.66h2.69v8.66c-0.00001,0.86-0.14,1.657-0.42,2.39-0.2733,0.7267-0.67,1.357-1.19,1.89-0.52,0.5267-1.15,0.94-1.89,1.24-0.74,0.2933-1.573,0.44-2.5,0.44-0.9267,0-1.76-0.1467-2.5-0.44-0.74-0.3-1.37-0.7133-1.89-1.24-0.5133-0.5333-0.91-1.163-1.19-1.89-0.2733-0.7333-0.41-1.53-0.41-2.39v-8.66h2.69v8.65c0,0.5533,0.0733,1.053,0.22,1.5,0.1533,0.4467,0.37,0.83,0.65,1.15,0.28,0.3133,0.6233,0.5567,1.03,0.73,0.4133,0.1733,0.88,0.26,1.4,0.26"/>
   <path style="fill:#999999;" d="m272,380.1,0-14.46,4.99,0c0.9467,0.00002,1.753,0.09,2.42,0.27,0.6733,0.18,1.223,0.4367,1.65,0.77,0.4333,0.3334,0.75,0.7367,0.95,1.21,0.2,0.4734,0.3,1.007,0.3,1.6-0.00001,0.34-0.05,0.6667-0.15,0.98-0.1,0.3067-0.2567,0.5967-0.47,0.87-0.2067,0.2667-0.4733,0.51-0.8,0.73-0.32,0.22-0.7033,0.4067-1.15,0.56,1.987,0.4467,2.98,1.52,2.98,3.22-0.00001,0.6133-0.1167,1.18-0.35,1.7s-0.5733,0.97-1.02,1.35c-0.4467,0.3733-0.9967,0.6667-1.65,0.88s-1.4,0.32-2.24,0.32h-5.46m2.69-6.34,0,4.24,2.73,0c0.5,0,0.9167-0.06,1.25-0.18,0.34-0.12,0.61-0.28,0.81-0.48,0.2067-0.2,0.3533-0.4333,0.44-0.7,0.0933-0.2667,0.14-0.55,0.14-0.85,0-0.3133-0.05-0.5933-0.15-0.84-0.1-0.2533-0.2567-0.4667-0.47-0.64-0.2133-0.18-0.4867-0.3167-0.82-0.41s-0.7367-0.14-1.21-0.14h-2.72m0-1.86,2.15,0c0.9133,0.00001,1.607-0.1667,2.08-0.5,0.4733-0.3333,0.71-0.8633,0.71-1.59,0-0.7533-0.2133-1.29-0.64-1.61s-1.093-0.48-2-0.48h-2.3v4.18"/>
  </g>
 </g>
 <g transform="translate(-11.02244,-291.53446)">
  <path style="enable-background:accumulate;fill-rule:nonzero;color:#000000;stroke:#e5ff80;stroke-miterlimit:4;stroke-dasharray:none;stroke-width:5.26785707;fill:#ffffff;" d="m199.1,175.1c0,14.55-11.79,26.34-26.34,26.34s-26.34-11.79-26.34-26.34,11.79-26.34,26.34-26.34,26.34,11.79,26.34,26.34z" transform="matrix(1.5186441,0,0,1.5186441,171.33032,228.60187)"/>
  <g style="font-size:14px;font-family:Lato;writing-mode:lr-tb;fill:#999999;letter-spacing:0px;text-anchor:end;line-height:125%;word-spacing:0px;font-stretch:normal;font-variant:normal;font-weight:bold;font-style:normal;text-align:end;" transform="scale(1.0429804,0.95879079)">
   <path style="fill:#999999;" d="m396.5,515.9c-0.00001,0.742-0.1237,1.423-0.371,2.044-0.2473,0.6207-0.595,1.155-1.043,1.603s-0.987,0.7957-1.617,1.043-1.328,0.371-2.093,0.371h-3.864v-10.12h3.864c0.7653,0.00001,1.463,0.126,2.093,0.378,0.63,0.2473,1.169,0.595,1.617,1.043,0.448,0.4433,0.7957,0.9753,1.043,1.596s0.371,1.302,0.371,2.044m-1.925,0c0-0.5553-0.0747-1.052-0.224-1.491-0.1493-0.4433-0.3617-0.8167-0.637-1.12-0.2753-0.308-0.6113-0.5437-1.008-0.707-0.392-0.1633-0.8353-0.245-1.33-0.245h-1.967v7.126h1.967c0.4947,0,0.938-0.0817,1.33-0.245,0.3967-0.1633,0.7327-0.3967,1.008-0.7,0.2753-0.308,0.4877-0.6813,0.637-1.12,0.1493-0.4433,0.224-0.9427,0.224-1.498"/>
   <path style="fill:#999999;" d="m400.9,513.7c0.5367,0.00001,1.022,0.0863,1.456,0.259,0.4387,0.1727,0.812,0.4177,1.12,0.735s0.546,0.7047,0.714,1.162,0.252,0.9683,0.252,1.533c-0.00001,0.5693-0.084,1.083-0.252,1.54-0.168,0.4573-0.406,0.847-0.714,1.169s-0.6813,0.5693-1.12,0.742c-0.434,0.1727-0.9193,0.259-1.456,0.259s-1.024-0.0863-1.463-0.259c-0.4387-0.1727-0.8143-0.42-1.127-0.742-0.308-0.322-0.5483-0.7117-0.721-1.169-0.168-0.4573-0.252-0.9707-0.252-1.54,0-0.5647,0.084-1.076,0.252-1.533,0.1727-0.4573,0.413-0.8447,0.721-1.162,0.3127-0.3173,0.6883-0.5623,1.127-0.735s0.9263-0.259,1.463-0.259m0,6.069c0.5973,0,1.038-0.2007,1.323-0.602,0.2893-0.4013,0.434-0.9893,0.434-1.764s-0.1447-1.365-0.434-1.771c-0.2847-0.406-0.7257-0.609-1.323-0.609-0.6067,0.00001-1.055,0.2053-1.344,0.616-0.2893,0.406-0.434,0.994-0.434,1.764s0.1447,1.358,0.434,1.764c0.2893,0.4013,0.7373,0.602,1.344,0.602"/>
   <path style="fill:#999999;" d="m410.9,515.3c-0.0513,0.0653-0.1027,0.1167-0.154,0.154-0.0467,0.0373-0.1167,0.056-0.21,0.056-0.0887,0.00001-0.175-0.0257-0.259-0.077-0.084-0.056-0.1843-0.1167-0.301-0.182-0.1167-0.07-0.2567-0.1307-0.42-0.182-0.1587-0.056-0.357-0.084-0.595-0.084-0.3033,0.00001-0.5693,0.056-0.798,0.168-0.2287,0.1073-0.42,0.2637-0.574,0.469-0.1493,0.2053-0.2613,0.455-0.336,0.749-0.0747,0.2893-0.112,0.6183-0.112,0.987,0,0.3827,0.0397,0.7233,0.119,1.022,0.084,0.2987,0.203,0.5507,0.357,0.756,0.154,0.2007,0.3407,0.3547,0.56,0.462,0.2193,0.1027,0.4667,0.154,0.742,0.154s0.497-0.0327,0.665-0.098c0.1727-0.07,0.3173-0.1447,0.434-0.224,0.1167-0.084,0.217-0.1587,0.301-0.224,0.0887-0.07,0.1867-0.105,0.294-0.105,0.14,0,0.245,0.0537,0.315,0.161l0.497,0.63c-0.1913,0.224-0.399,0.413-0.623,0.567-0.224,0.1493-0.4573,0.2707-0.7,0.364-0.238,0.0887-0.4853,0.1517-0.742,0.189s-0.511,0.056-0.763,0.056c-0.4433,0-0.861-0.0817-1.253-0.245-0.392-0.168-0.735-0.4107-1.029-0.728-0.2893-0.3173-0.5203-0.7047-0.693-1.162-0.168-0.462-0.252-0.987-0.252-1.575,0-0.5273,0.0747-1.015,0.224-1.463,0.154-0.4527,0.378-0.8423,0.672-1.169,0.294-0.3313,0.658-0.5903,1.092-0.777s0.9333-0.28,1.498-0.28c0.5367,0.00001,1.006,0.0863,1.407,0.259,0.406,0.1727,0.77,0.42,1.092,0.742l-0.455,0.63"/>
   <path style="fill:#999999;" d="m412.6,521,0-10.12,3.493,0c0.6627,0.00001,1.227,0.063,1.694,0.189,0.4713,0.126,0.8563,0.3057,1.155,0.539,0.3033,0.2333,0.525,0.5157,0.665,0.847s0.21,0.7047,0.21,1.12c-0.00001,0.238-0.035,0.4667-0.105,0.686-0.07,0.2147-0.1797,0.4177-0.329,0.609-0.1447,0.1867-0.3313,0.357-0.56,0.511-0.224,0.154-0.4923,0.2847-0.805,0.392,1.391,0.3127,2.086,1.064,2.086,2.254-0.00001,0.4293-0.0817,0.826-0.245,1.19s-0.4013,0.679-0.714,0.945c-0.3127,0.2613-0.6977,0.4667-1.155,0.616s-0.98,0.224-1.568,0.224h-3.822m1.883-4.438,0,2.968,1.911,0c0.35,0,0.6417-0.042,0.875-0.126,0.238-0.084,0.427-0.196,0.567-0.336,0.1447-0.14,0.2473-0.3033,0.308-0.49,0.0653-0.1867,0.098-0.385,0.098-0.595-0.00001-0.2193-0.035-0.4153-0.105-0.588-0.07-0.1773-0.1797-0.3267-0.329-0.448-0.1493-0.126-0.3407-0.2217-0.574-0.287s-0.5157-0.098-0.847-0.098h-1.904m0-1.302,1.505,0c0.6393,0.00001,1.125-0.1167,1.456-0.35,0.3313-0.2333,0.497-0.6043,0.497-1.113-0.00001-0.5273-0.1493-0.903-0.448-1.127s-0.7653-0.336-1.4-0.336h-1.61v2.926"/>
   <path style="fill:#999999;" d="m424.7,513.7c0.5367,0.00001,1.022,0.0863,1.456,0.259,0.4387,0.1727,0.812,0.4177,1.12,0.735s0.546,0.7047,0.714,1.162,0.252,0.9683,0.252,1.533c-0.00001,0.5693-0.084,1.083-0.252,1.54-0.168,0.4573-0.406,0.847-0.714,1.169s-0.6813,0.5693-1.12,0.742c-0.434,0.1727-0.9193,0.259-1.456,0.259s-1.024-0.0863-1.463-0.259c-0.4387-0.1727-0.8143-0.42-1.127-0.742-0.308-0.322-0.5483-0.7117-0.721-1.169-0.168-0.4573-0.252-0.9707-0.252-1.54,0-0.5647,0.084-1.076,0.252-1.533,0.1727-0.4573,0.413-0.8447,0.721-1.162,0.3127-0.3173,0.6883-0.5623,1.127-0.735s0.9263-0.259,1.463-0.259m0,6.069c0.5973,0,1.038-0.2007,1.323-0.602,0.2893-0.4013,0.434-0.9893,0.434-1.764-0.00001-0.7747-0.1447-1.365-0.434-1.771-0.2847-0.406-0.7257-0.609-1.323-0.609-0.6067,0.00001-1.055,0.2053-1.344,0.616-0.2893,0.406-0.434,0.994-0.434,1.764s0.1447,1.358,0.434,1.764c0.2893,0.4013,0.7373,0.602,1.344,0.602"/>
   <path style="fill:#999999;" d="m432.6,513.7c0.5367,0.00001,1.022,0.0863,1.456,0.259,0.4387,0.1727,0.812,0.4177,1.12,0.735s0.546,0.7047,0.714,1.162,0.252,0.9683,0.252,1.533c-0.00001,0.5693-0.084,1.083-0.252,1.54-0.168,0.4573-0.406,0.847-0.714,1.169s-0.6813,0.5693-1.12,0.742c-0.434,0.1727-0.9193,0.259-1.456,0.259s-1.024-0.0863-1.463-0.259c-0.4387-0.1727-0.8143-0.42-1.127-0.742-0.308-0.322-0.5483-0.7117-0.721-1.169-0.168-0.4573-0.252-0.9707-0.252-1.54,0-0.5647,0.084-1.076,0.252-1.533,0.1727-0.4573,0.413-0.8447,0.721-1.162,0.3127-0.3173,0.6883-0.5623,1.127-0.735s0.9263-0.259,1.463-0.259m0,6.069c0.5973,0,1.038-0.2007,1.323-0.602,0.2893-0.4013,0.434-0.9893,0.434-1.764s-0.1447-1.365-0.434-1.771c-0.2847-0.406-0.7257-0.609-1.323-0.609-0.6067,0.00001-1.055,0.2053-1.344,0.616-0.2893,0.406-0.434,0.994-0.434,1.764s0.1447,1.358,0.434,1.764c0.2893,0.4013,0.7373,0.602,1.344,0.602"/>
   <path style="fill:#999999;" d="m439.3,510.6,0,5.957,0.322,0c0.1167,0.00001,0.2077-0.0163,0.273-0.049s0.1353-0.0933,0.21-0.182l1.785-2.205c0.0793-0.0933,0.1633-0.1657,0.252-0.217,0.0887-0.056,0.2053-0.084,0.35-0.084h1.582l-2.233,2.667c-0.0793,0.098-0.161,0.189-0.245,0.273-0.084,0.0793-0.175,0.1493-0.273,0.21,0.098,0.07,0.1843,0.1517,0.259,0.245s0.1493,0.1937,0.224,0.301l2.394,3.486h-1.561c-0.1353,0-0.2497-0.0233-0.343-0.07s-0.1773-0.126-0.252-0.238l-1.827-2.723c-0.07-0.1073-0.14-0.1773-0.21-0.21s-0.175-0.049-0.315-0.049h-0.392v3.29h-1.729v-10.4h1.729"/>
  </g>
 </g>
 <g transform="translate(-11.02244,-291.53446)">
  <path style="enable-background:accumulate;fill-rule:nonzero;color:#000000;stroke:#e5ff80;stroke-miterlimit:4;stroke-dasharray:none;stroke-width:6.7045455;fill:#ffffff;" d="m199.1,175.1c0,14.55-11.79,26.34-26.34,26.34s-26.34-11.79-26.34-26.34,11.79-26.34,26.34-26.34,26.34,11.79,26.34,26.34z" transform="matrix(2.0881357,0,0,2.0881357,-277.74028,479.93755)"/>
  <g style="font-size:24px;font-family:Lato;writing-mode:lr-tb;fill:#999999;letter-spacing:0px;text-anchor:end;line-height:125%;word-spacing:0px;font-stretch:normal;font-variant:normal;font-weight:bold;font-style:normal;text-align:end;" transform="scale(1.0429804,0.95879079)">
   <path style="fill:#999999;" d="m59.36,876.6c-0.08801,0.176-0.192,0.3-0.312,0.372-0.112,0.072-0.248,0.108-0.408,0.108-0.16,0.00002-0.34-0.06-0.54-0.18-0.2-0.128-0.436-0.268-0.708-0.42s-0.592-0.288-0.96-0.408c-0.36-0.128-0.788-0.192-1.284-0.192-0.448,0.00002-0.84,0.056-1.176,0.168-0.328,0.104-0.608,0.252-0.84,0.444-0.224,0.192-0.392,0.424-0.504,0.696-0.112,0.264-0.168,0.556-0.168,0.876-0.000005,0.408,0.112,0.748,0.336,1.02,0.232,0.272,0.536,0.504,0.912,0.696s0.804,0.364,1.284,0.516,0.968,0.316,1.464,0.492c0.504,0.168,0.996,0.368,1.476,0.6,0.48,0.224,0.908,0.512,1.284,0.864,0.376,0.344,0.676,0.768,0.9,1.272,0.232,0.504,0.348,1.116,0.348,1.836-0.000013,0.784-0.136,1.52-0.408,2.208-0.264,0.68-0.656,1.276-1.176,1.788-0.512,0.504-1.14,0.904-1.884,1.2-0.744,0.288-1.596,0.432-2.556,0.432-0.552,0-1.096-0.056-1.632-0.168-0.536-0.104-1.052-0.256-1.548-0.456-0.488-0.2-0.948-0.44-1.38-0.72-0.424-0.28-0.804-0.592-1.14-0.936l0.936-1.548c0.088-0.112,0.192-0.204,0.312-0.276,0.128-0.08,0.268-0.12,0.42-0.12,0.2,0.00001,0.416,0.084,0.648,0.252,0.232,0.16,0.504,0.34,0.816,0.54,0.32,0.2,0.692,0.384,1.116,0.552,0.432,0.16,0.948,0.24,1.548,0.24,0.92,0,1.632-0.216,2.136-0.648,0.504-0.44,0.756-1.068,0.756-1.884-0.000009-0.456-0.116-0.828-0.348-1.116-0.224-0.288-0.524-0.528-0.9-0.72-0.376-0.2-0.804-0.368-1.284-0.504s-0.968-0.284-1.464-0.444-0.984-0.352-1.464-0.576-0.908-0.516-1.284-0.876-0.68-0.808-0.912-1.344c-0.224-0.544-0.336-1.212-0.336-2.004-0.000001-0.632,0.124-1.248,0.372-1.848,0.256-0.6,0.624-1.132,1.104-1.596,0.488-0.464,1.084-0.836,1.788-1.116s1.508-0.42,2.412-0.42c1.024,0.00002,1.968,0.16,2.832,0.48s1.6,0.768,2.208,1.344l-0.792,1.524"/>
   <path style="fill:#999999;" d="m65.94,873,0,17.83-2.964,0,0-17.83,2.964,0"/>
   <path style="fill:#999999;" d="m72.46,878.5,0,12.31-2.964,0,0-12.31,2.964,0m0.444-3.588c-0.000006,0.256-0.052,0.496-0.156,0.72s-0.244,0.42-0.42,0.588c-0.168,0.168-0.368,0.304-0.6,0.408-0.232,0.096-0.48,0.144-0.744,0.144-0.256,0.00002-0.5-0.048-0.732-0.144-0.224-0.104-0.42-0.24-0.588-0.408s-0.304-0.364-0.408-0.588c-0.096-0.224-0.144-0.464-0.144-0.72-0.000002-0.264,0.048-0.512,0.144-0.744,0.104-0.232,0.24-0.432,0.408-0.6s0.364-0.3,0.588-0.396c0.232-0.104,0.476-0.156,0.732-0.156,0.264,0.00002,0.512,0.052,0.744,0.156,0.232,0.096,0.432,0.228,0.6,0.396,0.176,0.168,0.316,0.368,0.42,0.6s0.156,0.48,0.156,0.744"/>
   <path style="fill:#999999;" d="m84.48,890.8c-0.384,0-0.636-0.18-0.756-0.54l-0.24-1.188c-0.256,0.288-0.524,0.548-0.804,0.78s-0.584,0.432-0.912,0.6c-0.32,0.168-0.668,0.296-1.044,0.384-0.368,0.096-0.768,0.144-1.2,0.144-0.672,0-1.288-0.14-1.848-0.42s-1.044-0.684-1.452-1.212c-0.4-0.536-0.712-1.196-0.936-1.98-0.216-0.784-0.324-1.68-0.324-2.688-0.000001-0.912,0.124-1.76,0.372-2.544s0.604-1.464,1.068-2.04,1.02-1.024,1.668-1.344c0.648-0.328,1.376-0.492,2.184-0.492,0.688,0.00001,1.276,0.112,1.764,0.336,0.488,0.216,0.924,0.508,1.308,0.876v-6.504h2.964v17.83h-1.812m-3.948-2.172c0.616,0,1.14-0.128,1.572-0.384s0.84-0.62,1.224-1.092v-5.52c-0.336-0.408-0.704-0.696-1.104-0.864-0.392-0.168-0.816-0.252-1.272-0.252-0.448,0.00001-0.856,0.084-1.224,0.252-0.36,0.168-0.668,0.424-0.924,0.768-0.248,0.336-0.44,0.768-0.576,1.296-0.136,0.52-0.204,1.136-0.204,1.848-0.000004,0.72,0.056,1.332,0.168,1.836,0.12,0.496,0.288,0.904,0.504,1.224,0.216,0.312,0.48,0.54,0.792,0.684,0.312,0.136,0.66,0.204,1.044,0.204"/>
   <path style="fill:#999999;" d="m94.59,878.3c0.776,0.00001,1.488,0.124,2.136,0.372,0.656,0.248,1.22,0.612,1.692,1.092,0.472,0.472,0.84,1.056,1.104,1.752,0.264,0.688,0.396,1.476,0.396,2.364-0.000012,0.224-0.01201,0.412-0.036,0.564-0.01601,0.144-0.05201,0.26-0.108,0.348-0.04801,0.08-0.116,0.14-0.204,0.18-0.08801,0.032-0.2,0.048-0.336,0.048h-7.608c0.088,1.264,0.428,2.192,1.02,2.784s1.376,0.888,2.352,0.888c0.48,0,0.892-0.056,1.236-0.168,0.352-0.112,0.656-0.236,0.912-0.372,0.264-0.136,0.492-0.26,0.684-0.372,0.2-0.112,0.392-0.168,0.576-0.168,0.12,0.00001,0.224,0.024,0.312,0.072,0.08799,0.048,0.164,0.116,0.228,0.204l0.864,1.08c-0.328,0.384-0.696,0.708-1.104,0.972-0.408,0.256-0.836,0.464-1.284,0.624-0.44,0.152-0.892,0.26-1.356,0.324-0.456,0.064-0.9,0.096-1.332,0.096-0.856,0-1.652-0.14-2.388-0.42-0.736-0.288-1.376-0.708-1.92-1.26-0.544-0.56-0.972-1.248-1.284-2.064-0.312-0.824-0.468-1.776-0.468-2.856-0.000001-0.84,0.136-1.628,0.408-2.364,0.272-0.744,0.66-1.388,1.164-1.932,0.512-0.552,1.132-0.988,1.86-1.308,0.736-0.32,1.564-0.48,2.484-0.48m0.06,2.124c-0.864,0.00001-1.54,0.244-2.028,0.732s-0.8,1.18-0.936,2.076h5.568c-0.00001-0.384-0.05201-0.744-0.156-1.08-0.104-0.344-0.264-0.644-0.48-0.9s-0.488-0.456-0.816-0.6c-0.328-0.152-0.712-0.228-1.152-0.228"/>
   <path style="fill:#999999;" d="m109.7,880.9c-0.08,0.128-0.164,0.22-0.252,0.276-0.088,0.048-0.2,0.072-0.336,0.072-0.144,0.00001-0.3-0.04-0.468-0.12-0.16-0.08-0.348-0.168-0.564-0.264-0.216-0.104-0.464-0.196-0.744-0.276-0.272-0.08-0.596-0.12-0.972-0.12-0.584,0.00001-1.044,0.124-1.38,0.372s-0.504,0.572-0.504,0.972c-0.00001,0.264,0.084,0.488,0.252,0.672,0.176,0.176,0.404,0.332,0.684,0.468,0.288,0.136,0.612,0.26,0.972,0.372,0.36,0.104,0.728,0.22,1.104,0.348s0.744,0.276,1.104,0.444c0.36,0.16,0.68,0.368,0.96,0.624,0.288,0.248,0.516,0.548,0.684,0.9,0.176,0.352,0.264,0.776,0.264,1.272-0.00001,0.592-0.108,1.14-0.324,1.644-0.216,0.496-0.532,0.928-0.948,1.296-0.416,0.36-0.932,0.644-1.548,0.852-0.608,0.2-1.308,0.3-2.1,0.3-0.424,0-0.84-0.04-1.248-0.12-0.4-0.072-0.788-0.176-1.164-0.312-0.368-0.136-0.712-0.296-1.032-0.48-0.312-0.184-0.588-0.384-0.828-0.6l0.684-1.128c0.088-0.136,0.192-0.24,0.312-0.312s0.272-0.108,0.456-0.108,0.356,0.052,0.516,0.156c0.168,0.104,0.36,0.216,0.576,0.336s0.468,0.232,0.756,0.336c0.296,0.104,0.668,0.156,1.116,0.156,0.352,0,0.652-0.04,0.9-0.12,0.256-0.088,0.464-0.2,0.624-0.336,0.168-0.136,0.288-0.292,0.36-0.468,0.08-0.184,0.12-0.372,0.12-0.564-0.00001-0.288-0.088-0.524-0.264-0.708-0.168-0.184-0.396-0.344-0.684-0.48-0.28-0.136-0.604-0.256-0.972-0.36-0.36-0.112-0.732-0.232-1.116-0.36-0.376-0.128-0.748-0.276-1.116-0.444-0.36-0.176-0.684-0.396-0.972-0.66-0.28-0.264-0.508-0.588-0.684-0.972-0.168-0.384-0.252-0.848-0.252-1.392,0-0.504,0.1-0.984,0.3-1.44s0.492-0.852,0.876-1.188c0.392-0.344,0.876-0.616,1.452-0.816,0.584-0.208,1.256-0.312,2.016-0.312,0.848,0.00001,1.62,0.14,2.316,0.42s1.276,0.648,1.74,1.104l-0.672,1.068"/>
  </g>
 </g>
 <g transform="translate(-11.02244,-291.53446)">
  <path style="enable-background:accumulate;fill-rule:nonzero;color:#000000;stroke:#e5ff80;stroke-miterlimit:4;stroke-dasharray:none;stroke-width:5.26785707;fill:#ffffff;" d="m199.1,175.1c0,14.55-11.79,26.34-26.34,26.34s-26.34-11.79-26.34-26.34,11.79-26.34,26.34-26.34,26.34,11.79,26.34,26.34z" transform="matrix(1.5186441,0,0,1.5186441,-143.59694,244.36287)"/>
  <g style="font-size:16px;font-family:Lato;writing-mode:lr-tb;fill:#999999;letter-spacing:0px;text-anchor:end;line-height:125%;word-spacing:0px;font-stretch:normal;font-variant:normal;font-weight:bold;font-style:normal;text-align:end;" transform="scale(1.0429804,0.95879079)">
   <path style="fill:#999999;" d="m92.69,537.2,5.79,0,0,2.22-8.48,0,0-14.46,2.69,0,0,12.24"/>
   <path style="fill:#999999;" d="m108.2,539.4-1.11,0c-0.2333,0-0.4167-0.0333-0.55-0.1-0.1333-0.0733-0.2333-0.2167-0.3-0.43l-0.22-0.73c-0.26,0.2333-0.5167,0.44-0.77,0.62-0.2467,0.1733-0.5033,0.32-0.77,0.44s-0.55,0.21-0.85,0.27-0.6333,0.09-1,0.09c-0.4333,0-0.8333-0.0567-1.2-0.17-0.3667-0.12-0.6833-0.2967-0.95-0.53-0.26-0.2333-0.4633-0.5233-0.61-0.87s-0.22-0.75-0.22-1.21c-0.000001-0.3867,0.1-0.7667,0.3-1.14,0.2067-0.38,0.5467-0.72,1.02-1.02,0.4733-0.3067,1.103-0.56,1.89-0.76,0.7867-0.2,1.763-0.3133,2.93-0.34v-0.6c-0.00001-0.6867-0.1467-1.193-0.44-1.52-0.2867-0.3333-0.7067-0.5-1.26-0.5-0.4,0.00001-0.7333,0.0467-1,0.14s-0.5,0.2-0.7,0.32c-0.1933,0.1133-0.3733,0.2167-0.54,0.31s-0.35,0.14-0.55,0.14c-0.1667,0.00001-0.31-0.0433-0.43-0.13s-0.2167-0.1933-0.29-0.32l-0.45-0.79c1.18-1.08,2.603-1.62,4.27-1.62,0.6,0.00001,1.133,0.1,1.6,0.3,0.4733,0.1934,0.8733,0.4667,1.2,0.82,0.3267,0.3467,0.5733,0.7633,0.74,1.25,0.1733,0.4867,0.26,1.02,0.26,1.6v6.48m-4.8-1.54c0.2533,0,0.4867-0.0233,0.7-0.07s0.4133-0.1167,0.6-0.21c0.1933-0.0933,0.3767-0.2067,0.55-0.34,0.18-0.14,0.36-0.3033,0.54-0.49v-1.73c-0.72,0.0333-1.323,0.0967-1.81,0.19-0.48,0.0867-0.8667,0.2-1.16,0.34s-0.5033,0.3033-0.63,0.49c-0.12,0.1867-0.18,0.39-0.18,0.61,0,0.4333,0.1267,0.7433,0.38,0.93,0.26,0.1867,0.5967,0.28,1.01,0.28"/>
   <path style="fill:#999999;" d="m114,539.6c-0.8867,0-1.57-0.25-2.05-0.75-0.48-0.5067-0.72-1.203-0.72-2.09v-5.73h-1.04c-0.1333,0.00001-0.25-0.0433-0.35-0.13-0.0933-0.0867-0.14-0.2167-0.14-0.39v-0.98l1.65-0.27,0.52-2.8c0.0267-0.1333,0.0867-0.2366,0.18-0.31,0.1-0.0733,0.2233-0.11,0.37-0.11h1.28v3.23h2.7v1.76h-2.7v5.56c0,0.32,0.08,0.57,0.24,0.75s0.3733,0.27,0.64,0.27c0.1533,0,0.28-0.0167,0.38-0.05,0.1067-0.04,0.1967-0.08,0.27-0.12,0.08-0.04,0.15-0.0767,0.21-0.11,0.06-0.04,0.12-0.06,0.18-0.06,0.0733,0,0.1333,0.02,0.18,0.06,0.0467,0.0333,0.0967,0.0867,0.15,0.16l0.74,1.2c-0.36,0.3-0.7733,0.5267-1.24,0.68s-0.95,0.23-1.45,0.23"/>
   <path style="fill:#999999;" d="m122.7,529c0.6467,0.00001,1.24,0.1034,1.78,0.31,0.5467,0.2067,1.017,0.51,1.41,0.91,0.3933,0.3933,0.7,0.88,0.92,1.46,0.22,0.5733,0.33,1.23,0.33,1.97-0.00001,0.1867-0.01,0.3433-0.03,0.47-0.0134,0.12-0.0434,0.2167-0.09,0.29-0.04,0.0667-0.0967,0.1167-0.17,0.15-0.0734,0.0267-0.1667,0.04-0.28,0.04h-6.34c0.0733,1.053,0.3567,1.827,0.85,2.32,0.4933,0.4933,1.147,0.74,1.96,0.74,0.4,0,0.7433-0.0467,1.03-0.14,0.2933-0.0933,0.5467-0.1967,0.76-0.31,0.22-0.1133,0.41-0.2167,0.57-0.31,0.1667-0.0933,0.3266-0.14,0.48-0.14,0.1,0.00001,0.1866,0.02,0.26,0.06,0.0733,0.04,0.1366,0.0967,0.19,0.17l0.72,0.9c-0.2734,0.32-0.58,0.59-0.92,0.81-0.34,0.2133-0.6967,0.3867-1.07,0.52-0.3667,0.1267-0.7433,0.2167-1.13,0.27-0.38,0.0533-0.75,0.08-1.11,0.08-0.7133,0-1.377-0.1167-1.99-0.35-0.6133-0.24-1.147-0.59-1.6-1.05-0.4533-0.4667-0.81-1.04-1.07-1.72-0.26-0.6867-0.39-1.48-0.39-2.38,0-0.7,0.1133-1.357,0.34-1.97,0.2267-0.62,0.55-1.157,0.97-1.61,0.4267-0.46,0.9433-0.8233,1.55-1.09,0.6133-0.2666,1.303-0.4,2.07-0.4m0.05,1.77c-0.72,0.00001-1.283,0.2033-1.69,0.61-0.4067,0.4067-0.6667,0.9833-0.78,1.73h4.64c-0.00001-0.32-0.0433-0.62-0.13-0.9-0.0867-0.2867-0.22-0.5367-0.4-0.75s-0.4067-0.38-0.68-0.5c-0.2733-0.1267-0.5933-0.19-0.96-0.19"/>
   <path style="fill:#999999;" d="m131,534.1-3.37-4.97,2.38,0c0.18,0.00001,0.3133,0.0267,0.4,0.08,0.0867,0.0467,0.1633,0.1267,0.23,0.24l2.15,3.43c0.0333-0.1133,0.0733-0.2267,0.12-0.34,0.0533-0.1133,0.1167-0.2267,0.19-0.34l1.73-2.7c0.08-0.1266,0.1633-0.22,0.25-0.28s0.1933-0.09,0.32-0.09h2.27l-3.38,4.86,3.52,5.4h-2.38c-0.18,0-0.3267-0.0467-0.44-0.14-0.1067-0.0933-0.1967-0.2-0.27-0.32l-2.18-3.57c-0.06,0.24-0.1433,0.44-0.25,0.6l-1.92,2.97c-0.0733,0.1133-0.1633,0.22-0.27,0.32-0.1067,0.0933-0.24,0.14-0.4,0.14h-2.21l3.51-5.29"/>
  </g>
 </g>
</svg>
