<?xml version="1.0" encoding="UTF-8"?>
<svg width="1600px" height="1200px" viewBox="0 0 1600 1200" version="1.1" xmlns="http://www.w3.org/2000/svg" xmlns:xlink="http://www.w3.org/1999/xlink">
    <!-- Generator: Sketch 55.2 (78181) - https://sketchapp.com -->
    <title>Waimakariri</title>
    <desc>Created with Sketch.</desc>
    <g id="Patterns" stroke="none" stroke-width="1" fill="none" fill-rule="evenodd">
        <g id="Waimakariri" fill-rule="nonzero">
            <g transform="translate(-414.000000, -380.000000)" id="Shape">
                <path d="M1074.83647,1477.19875 C1313.85783,1491.74804 1487.02955,1305.84466 1507.62292,1045.64315 C1528.21629,785.441646 1313.85783,578.006466 1074.83647,614.087563 C835.815106,650.168661 659.913561,798.209392 642.050009,1045.64315 C624.186457,1293.07692 835.815106,1462.64945 1074.83647,1477.19875 Z" fill="#EFF3F0" transform="translate(1074.994910, 1043.996896) rotate(39.000000) translate(-1074.994910, -1043.996896) "></path>
                <path d="M1938.34062,574 C2045.2625,554.625 2139.84062,484.009235 2139.84062,373 C2139.84062,261.990765 2049.626,172 1938.34062,172 C1827.05525,172 1754.47344,273.492187 1736.84062,373 C1719.20781,472.507812 1831.41875,593.375 1938.34062,574 Z" fill="#EFF3F0" transform="translate(1937.420312, 374.032136) rotate(39.000000) translate(-1937.420312, -374.032136) "></path>
                <path d="M1838.91932,1004 C1991.46827,1004 2090.68429,1126.38297 2115.13363,1280.15936 C2139.58296,1433.93576 2115.13363,1613.50573 2115.13363,1759.84064 C2115.13363,1906.17555 2001.24021,2036 1838.91932,2036 C1676.59844,2036 1546.40635,1906.46464 1562.70502,1759.84064 C1579.00368,1613.21663 1546.40635,1438.42206 1562.70502,1280.15936 C1579.00368,1121.89666 1686.37038,1004 1838.91932,1004 Z" fill="#EFF3F0" transform="translate(1842.000000, 1520.000000) rotate(39.000000) translate(-1842.000000, -1520.000000) "></path>
                <path d="M709.98574,821.284088 C831.626365,821.284088 920.48574,727.040027 920.48574,610.784088 C920.48574,494.528148 817.337302,385.909088 709.98574,400.284088 C602.634177,414.659088 483.282615,483.690338 499.48574,610.784088 C515.688865,737.877838 588.345115,821.284088 709.98574,821.284088 Z" fill="#E0436B" transform="translate(709.242870, 610.142044) rotate(39.000000) translate(-709.242870, -610.142044) "></path>
                <path d="M909.235616,1480 C947.81643,1480 976,1450.09429 976,1413.20373 C976,1376.31318 943.284362,1341.84597 909.235616,1346.40747 C875.186871,1350.96897 837.33208,1372.8741 842.471233,1413.20373 C847.610386,1453.53337 870.654802,1480 909.235616,1480 Z" fill="#E0436B" transform="translate(909.000000, 1413.000000) rotate(39.000000) translate(-909.000000, -1413.000000) "></path>
                <path d="M491.154733,503 C516.491387,503 535,483.360431 535,459.133796 C535,434.90716 513.515103,412.271978 491.154733,415.267592 C468.794363,418.263205 443.9345,432.648663 447.309466,459.133796 C450.684432,485.618928 465.818079,503 491.154733,503 Z" fill="#E0436B" transform="translate(491.000000, 459.000000) rotate(39.000000) translate(-491.000000, -459.000000) "></path>
                <path d="M1009.99197,1417.95954 C1022.10826,1418.69706 1030.88655,1409.27339 1031.93045,1396.08345 C1032.97436,1382.89351 1022.10826,1372.37837 1009.99197,1374.20736 C997.875678,1376.03636 988.95901,1383.54073 988.053484,1396.08345 C987.147959,1408.62618 997.875678,1417.22202 1009.99197,1417.95954 Z" fill="#E0436B" transform="translate(1010.000000, 1396.000000) rotate(156.000000) translate(-1010.000000, -1396.000000) "></path>
                <path d="M1731.39035,610 C1795.30782,610 1842,560.454725 1842,499.33753 C1842,438.220336 1787.79947,381.117944 1731.39035,388.675061 C1674.98123,396.232177 1612.26658,432.522764 1620.7807,499.33753 C1629.29482,566.152296 1667.47288,610 1731.39035,610 Z" fill="#7252A4" transform="translate(1731.000000, 499.000000) rotate(39.000000) translate(-1731.000000, -499.000000) "></path>
                <path d="M953.154733,787 C978.491387,787 997,767.360431 997,743.133796 C997,718.90716 975.515103,696.271978 953.154733,699.267592 C930.794363,702.263205 905.9345,716.648663 909.309466,743.133796 C912.684432,769.618928 927.818079,787 953.154733,787 Z" fill="#7252A4" transform="translate(953.000000, 743.000000) rotate(39.000000) translate(-953.000000, -743.000000) "></path>
                <path d="M1026.07033,786 C1037.58699,786 1046,777.072923 1046,766.060816 C1046,755.048709 1036.23414,744.75999 1026.07033,746.121633 C1015.90653,747.483275 1004.60659,754.02212 1006.14067,766.060816 C1007.67474,778.099513 1014.55367,786 1026.07033,786 Z" fill="#7252A4" transform="translate(1026.000000, 766.000000) rotate(39.000000) translate(-1026.000000, -766.000000) "></path>
                <path d="M1409.32668,1651 C1451.20204,1651 1476.58957,1588.0246 1482.47246,1537.27985 C1488.35536,1486.5351 1444.23233,1440.20854 1390.23623,1445.39836 C1336.24013,1450.58817 1298,1486.5351 1298,1537.27985 C1298,1588.0246 1367.45132,1651 1409.32668,1651 Z" fill="#7252A4" transform="translate(1390.500000, 1548.000000) rotate(39.000000) translate(-1390.500000, -1548.000000) "></path>
                <path d="M872.930293,1245.66828 C970.408551,1251.60188 1041.03186,1175.78547 1049.43029,1069.66828 C1057.82873,963.551097 970.408551,878.953441 872.930293,893.668284 C775.452035,908.383128 703.715449,968.758128 696.430293,1069.66828 C689.145137,1170.57844 775.452035,1239.73469 872.930293,1245.66828 Z" fill="#F0C933" transform="translate(872.994910, 1068.996896) rotate(39.000000) translate(-872.994910, -1068.996896) "></path>
                <path d="M1876.97554,1177.87678 C1913.87515,1180.12287 1940.60903,1151.4235 1943.7882,1111.25415 C1946.96736,1071.08479 1913.87515,1039.06139 1876.97554,1044.63151 C1840.07593,1050.20163 1812.92062,1073.05585 1810.16288,1111.25415 C1807.40515,1149.45245 1840.07593,1175.63069 1876.97554,1177.87678 Z" fill="#F0C933" transform="translate(1877.000000, 1111.000000) rotate(39.000000) translate(-1877.000000, -1111.000000) "></path>
                <path d="M1002.99197,1257.95954 C1015.10826,1258.69706 1023.88655,1249.27339 1024.93045,1236.08345 C1025.97436,1222.89351 1015.10826,1212.37837 1002.99197,1214.20736 C990.875678,1216.03636 981.95901,1223.54073 981.053484,1236.08345 C980.147959,1248.62618 990.875678,1257.22202 1002.99197,1257.95954 Z" fill="#F0C933" transform="translate(1003.000000, 1236.000000) rotate(39.000000) translate(-1003.000000, -1236.000000) "></path>
                <path d="M1917.99197,1226.95954 C1930.10826,1227.69706 1938.88655,1218.27339 1939.93045,1205.08345 C1940.97436,1191.89351 1930.10826,1181.37837 1917.99197,1183.20736 C1905.87568,1185.03636 1896.95901,1192.54073 1896.05348,1205.08345 C1895.14796,1217.62618 1905.87568,1226.22202 1917.99197,1226.95954 Z" fill="#F0C933" transform="translate(1918.000000, 1205.000000) rotate(39.000000) translate(-1918.000000, -1205.000000) "></path>
                <path d="M1029.99598,1200.97977 C1036.05413,1201.34853 1040.44327,1196.63669 1040.96523,1190.04173 C1041.48718,1183.44676 1036.05413,1178.18918 1029.99598,1179.10368 C1023.93784,1180.01818 1019.4795,1183.77036 1019.02674,1190.04173 C1018.57398,1196.31309 1023.93784,1200.61101 1029.99598,1200.97977 Z" fill="#F0C933" transform="translate(1030.000000, 1190.000000) rotate(39.000000) translate(-1030.000000, -1190.000000) "></path>
                <path d="M1330.97554,954.876783 C1367.87515,957.122872 1394.60903,928.423503 1397.7882,888.254146 C1400.96736,848.084789 1367.87515,816.061385 1330.97554,821.631509 C1294.07593,827.201632 1266.92062,850.055846 1264.16288,888.254146 C1261.40515,926.452446 1294.07593,952.630694 1330.97554,954.876783 Z" fill="#453264" transform="translate(1331.000000, 888.000000) rotate(39.000000) translate(-1331.000000, -888.000000) "></path>
                <path d="M554.991968,880.959541 C567.108258,881.697063 575.886549,872.273389 576.930452,859.083451 C577.974356,845.893513 567.108258,835.378365 554.991968,837.207361 C542.875678,839.036357 533.95901,846.540726 533.053484,859.083451 C532.147959,871.626176 542.875678,880.222019 554.991968,880.959541 Z" fill="#453264" transform="translate(555.000000, 859.000000) rotate(39.000000) translate(-555.000000, -859.000000) "></path>
                <path d="M1810.99197,1383.95954 C1823.10826,1384.69706 1831.88655,1375.27339 1832.93045,1362.08345 C1833.97436,1348.89351 1823.10826,1338.37837 1810.99197,1340.20736 C1798.87568,1342.03636 1789.95901,1349.54073 1789.05348,1362.08345 C1788.14796,1374.62618 1798.87568,1383.22202 1810.99197,1383.95954 Z" fill="#453264" transform="translate(1811.000000, 1362.000000) rotate(39.000000) translate(-1811.000000, -1362.000000) "></path>
                <path d="M1292.99197,1003.95954 C1305.10826,1004.69706 1313.88655,995.273389 1314.93045,982.083451 C1315.97436,968.893513 1305.10826,958.378365 1292.99197,960.207361 C1280.87568,962.036357 1271.95901,969.540726 1271.05348,982.083451 C1270.14796,994.626176 1280.87568,1003.22202 1292.99197,1003.95954 Z" fill="#453264" transform="translate(1293.000000, 982.000000) rotate(117.000000) translate(-1293.000000, -982.000000) "></path>
                <path d="M1997.97554,777.876783 C2034.87515,780.122872 2061.60903,751.423503 2064.7882,711.254146 C2067.96736,671.084789 2034.87515,639.061385 1997.97554,644.631509 C1961.07593,650.201632 1933.92062,673.055846 1931.16288,711.254146 C1928.40515,749.452446 1961.07593,775.630694 1997.97554,777.876783 Z" fill="#0F90D1" transform="translate(1998.000000, 711.000000) rotate(39.000000) translate(-1998.000000, -711.000000) "></path>
                <path d="M523.5,1795 C660.75,1795 780.492187,1672.32602 798,1521 C815.507813,1369.67398 684.195312,1231.52344 523.5,1247 C362.804688,1262.47656 249,1369.67398 249,1521 C249,1672.32602 386.25,1795 523.5,1795 Z" fill="#0F90D1" transform="translate(524.284989, 1520.406028) rotate(39.000000) translate(-524.284989, -1520.406028) "></path>
                <path d="M1667.5,668 C1778.78538,668 1851.16406,757.296875 1869,869.5 C1886.83594,981.703125 1869,1112.72656 1869,1219.5 C1869,1326.27344 1785.91406,1421 1667.5,1421 C1549.08594,1421 1454.11003,1326.48438 1466,1219.5 C1477.88997,1112.51563 1454.11003,984.976563 1466,869.5 C1477.88997,754.023438 1556.21462,668 1667.5,668 Z" fill="#0F90D1" transform="translate(1669.747372, 1044.500000) rotate(39.000000) translate(-1669.747372, -1044.500000) "></path>
                <path d="M1527.46696,748.833565 C1577.30897,751.867462 1613.41967,713.101896 1617.71391,658.843287 C1622.00815,604.584677 1577.30897,561.329185 1527.46696,568.853008 C1477.62495,576.376831 1440.94502,607.247076 1437.22001,658.843287 C1433.49501,710.439497 1477.62495,745.799669 1527.46696,748.833565 Z" fill="#C4C8D4" transform="translate(1527.500000, 658.500000) rotate(39.000000) translate(-1527.500000, -658.500000) "></path>
                <path d="M348.90946,1452.54391 C485.493094,1460.8578 584.448366,1354.6273 596.216007,1205.94072 C607.983647,1057.25414 485.493094,938.719755 348.90946,959.337524 C212.325826,979.955294 111.810658,1064.55 101.602914,1205.94072 C91.3951695,1347.33144 212.325826,1444.23003 348.90946,1452.54391 Z" fill="#C4C8D4" transform="translate(349.000000, 1205.000000) rotate(39.000000) translate(-349.000000, -1205.000000) "></path>
                <path d="M2079.90946,1837.54391 C2216.49309,1845.8578 2315.44837,1739.6273 2327.21601,1590.94072 C2338.98365,1442.25414 2216.49309,1323.71975 2079.90946,1344.33752 C1943.32583,1364.95529 1842.81066,1449.55 1832.60291,1590.94072 C1822.39517,1732.33144 1943.32583,1829.23003 2079.90946,1837.54391 Z" fill="#C4C8D4" transform="translate(2080.000000, 1590.000000) rotate(39.000000) translate(-2080.000000, -1590.000000) "></path>
                <path d="M1872.15004,637.662821 C1889.5812,634.498102 1905,622.963698 1905,604.83141 C1905,586.699123 1890.29257,572 1872.15004,572 C1854.0075,572 1842.1747,588.577769 1839.30007,604.83141 C1836.42544,621.085051 1854.71887,640.82754 1872.15004,637.662821 Z" fill="#EFF3F0" transform="translate(1872.000000, 605.000000) rotate(39.000000) translate(-1872.000000, -605.000000) "></path>
                <path d="M1591.1692,460.511586 C1601.73354,458.593575 1611.07827,451.603027 1611.07827,440.613762 C1611.07827,429.624497 1602.16467,420.715937 1591.1692,420.715937 C1580.17372,420.715937 1573.00233,430.76307 1571.26013,440.613762 C1569.51793,450.464453 1580.60486,462.429598 1591.1692,460.511586 Z" fill="#EFF3F0" transform="translate(1591.078268, 440.715937) rotate(39.000000) translate(-1591.078268, -440.715937) "></path>
                <path d="M1251.5,44 C1362.78538,44 1453,134.214623 1453,245.5 C1453,356.785377 1440,487.648438 1453,595.5 C1466,703.351563 1362.75,810.476563 1251.5,797 C1140.25,783.523438 1050,719.601563 1050,595.5 C1050,471.398438 1050,367.445313 1050,245.5 C1050,123.554687 1140.21462,44 1251.5,44 Z" fill="#6759AE" transform="translate(1252.055013, 421.075640) rotate(39.000000) translate(-1252.055013, -421.075640) "></path>
            </g>
        </g>
    </g>
</svg>