<?xml version="1.0" encoding="UTF-8" standalone="no"?>
<!-- Created with Inkscape (http://www.inkscape.org/) -->

<svg
   xmlns:dc="http://purl.org/dc/elements/1.1/"
   xmlns:cc="http://creativecommons.org/ns#"
   xmlns:rdf="http://www.w3.org/1999/02/22-rdf-syntax-ns#"
   xmlns:svg="http://www.w3.org/2000/svg"
   xmlns="http://www.w3.org/2000/svg"
   xmlns:sodipodi="http://sodipodi.sourceforge.net/DTD/sodipodi-0.dtd"
   xmlns:inkscape="http://www.inkscape.org/namespaces/inkscape"
   width="834.04858"
   height="751.8277"
   id="svg2"
   version="1.1"
   inkscape:version="0.48.5 r10040"
   sodipodi:docname="asciidoctor-formats-flat-confluence-alt.svg">
  <title
     id="title3379">Asciidoctor Outputs with Confluence</title>
  <defs
     id="defs4" />
  <sodipodi:namedview
     id="base"
     pagecolor="#ffffff"
     bordercolor="#666666"
     borderopacity="1.0"
     inkscape:pageopacity="0.0"
     inkscape:pageshadow="2"
     inkscape:zoom="1"
     inkscape:cx="389.57592"
     inkscape:cy="406.36816"
     inkscape:document-units="px"
     inkscape:current-layer="g4101"
     showgrid="false"
     inkscape:window-width="1920"
     inkscape:window-height="1014"
     inkscape:window-x="0"
     inkscape:window-y="27"
     inkscape:window-maximized="1"
     width="1980px"
     showguides="false"
     inkscape:guide-bbox="true"
     fit-margin-top="10"
     fit-margin-left="10"
     fit-margin-right="10"
     fit-margin-bottom="10">
    <sodipodi:guide
       orientation="0.70710678,0.70710678"
       position="370.72159,50.007796"
       id="guide5350" />
    <sodipodi:guide
       orientation="-0.70710678,0.70710678"
       position="208.14921,516.04862"
       id="guide5352" />
    <sodipodi:guide
       orientation="-0.70710678,0.70710678"
       position="364.07743,366.91125"
       id="guide5593" />
    <sodipodi:guide
       orientation="1,0"
       position="368.13409,234.66396"
       id="guide5595" />
    <inkscape:grid
       type="xygrid"
       id="grid5638"
       empspacing="5"
       visible="true"
       enabled="true"
       snapvisiblegridlinesonly="true"
       originx="-1.0224427px"
       originy="1.0000482px" />
  </sodipodi:namedview>
  <metadata
     id="metadata7">
    <rdf:RDF>
      <cc:Work
         rdf:about="">
        <dc:format>image/svg+xml</dc:format>
        <dc:type
           rdf:resource="http://purl.org/dc/dcmitype/StillImage" />
        <dc:title>Asciidoctor Outputs with Confluence</dc:title>
        <dc:creator>
          <cc:Agent>
            <dc:title>Sarah White</dc:title>
          </cc:Agent>
        </dc:creator>
        <dc:publisher>
          <cc:Agent>
            <dc:title>Sarah White</dc:title>
          </cc:Agent>
        </dc:publisher>
        <dc:language>EN</dc:language>
        <dc:subject>
          <rdf:Bag>
            <rdf:li>Asciidoctor</rdf:li>
            <rdf:li>AsciiDoc</rdf:li>
            <rdf:li>Confluence</rdf:li>
          </rdf:Bag>
        </dc:subject>
        <dc:description>Asciidoctor outputs and the shared HTML output with Confluence.</dc:description>
        <dc:date>2015-04-13</dc:date>
        <dc:rights>
          <cc:Agent>
            <dc:title>Sarah White</dc:title>
          </cc:Agent>
        </dc:rights>
        <cc:license
           rdf:resource="http://creativecommons.org/licenses/by-sa/3.0/" />
      </cc:Work>
      <cc:License
         rdf:about="http://creativecommons.org/licenses/by-sa/3.0/">
        <cc:permits
           rdf:resource="http://creativecommons.org/ns#Reproduction" />
        <cc:permits
           rdf:resource="http://creativecommons.org/ns#Distribution" />
        <cc:requires
           rdf:resource="http://creativecommons.org/ns#Notice" />
        <cc:requires
           rdf:resource="http://creativecommons.org/ns#Attribution" />
        <cc:permits
           rdf:resource="http://creativecommons.org/ns#DerivativeWorks" />
        <cc:requires
           rdf:resource="http://creativecommons.org/ns#ShareAlike" />
      </cc:License>
    </rdf:RDF>
  </metadata>
  <g
     inkscape:groupmode="layer"
     id="layer11"
     inkscape:label="Bonds"
     transform="translate(-11.02244,-259.17228)"
     style="display:inline">
    <path
       sodipodi:nodetypes="ccccc"
       inkscape:connector-curvature="0"
       id="path5642"
       d="M 267.04119,638.86593 128.09663,778.10219 117.04106,768.8658 255.98561,629.62954 z"
       style="color:#000000;fill:#e5ff80;fill-opacity:1;stroke:none;stroke-width:14.00020409;marker:none;visibility:visible;display:inline;overflow:visible;enable-background:accumulate" />
    <rect
       transform="matrix(0.00103337,0.99999947,-0.99996241,0.00867032,0,0)"
       y="-274.27744"
       x="374.51675"
       height="11.461114"
       width="521.90161"
       id="rect4053"
       style="color:#000000;fill:#e5ff80;fill-opacity:1;stroke:none;stroke-width:10;marker:none;visibility:visible;display:inline;overflow:visible;enable-background:accumulate" />
    <path
       style="color:#000000;fill:#e5ff80;fill-opacity:1;stroke:none;stroke-width:14.00020409;marker:none;visibility:visible;display:inline;overflow:visible;enable-background:accumulate"
       d="M 330,675.99998 469.23626,814.94454 459.99987,826.00011 320.76361,687.05556 z"
       id="rect5635"
       inkscape:connector-curvature="0"
       sodipodi:nodetypes="ccccc" />
    <path
       sodipodi:nodetypes="ccccc"
       inkscape:connector-curvature="0"
       id="path5640"
       d="m 149.94294,501.77698 54.47003,54.83543 -5.23142,5.41064 -54.47003,-54.83542 z"
       style="color:#000000;fill:#e5ff80;fill-opacity:1;stroke:none;stroke-width:14.00020409;marker:none;visibility:visible;display:inline;overflow:visible;enable-background:accumulate" />
    <path
       style="color:#000000;fill:#e5ff80;fill-opacity:1;stroke:none;stroke-width:14.00020409;marker:none;visibility:visible;display:inline;overflow:visible;enable-background:accumulate"
       d="m 408.21315,492.9653 -59.1923,58.51569 -5.41064,-5.23142 59.19229,-58.51569 z"
       id="path5644"
       inkscape:connector-curvature="0"
       sodipodi:nodetypes="ccccc" />
    <path
       sodipodi:nodetypes="ccccc"
       inkscape:connector-curvature="0"
       id="path5646"
       d="m 724.31142,771.79235 -179.99567,79.33402 -6.9509,-12.61831 179.99566,-79.33402 z"
       style="color:#000000;fill:#e5ff80;fill-opacity:1;stroke:none;stroke-width:14.00020409;marker:none;visibility:visible;display:inline;overflow:visible;enable-background:accumulate" />
  </g>
  <g
     inkscape:groupmode="layer"
     id="layer2"
     inkscape:label="Asciidoctor Core"
     transform="translate(-11.02244,-291.53446)"
     style="display:inline">
    <path
       sodipodi:type="arc"
       style="color:#000000;fill:#aad400;fill-opacity:1;fill-rule:nonzero;stroke:#e5ff80;stroke-width:9.22619057;stroke-miterlimit:4;stroke-opacity:1;stroke-dasharray:none;marker:none;visibility:visible;display:inline;overflow:visible;enable-background:accumulate"
       id="path2986"
       sodipodi:cx="264.73215"
       sodipodi:cy="277.80862"
       sodipodi:rx="69.196426"
       sodipodi:ry="69.196426"
       d="m 333.92857,277.80862 c 0,38.21614 -30.98029,69.19643 -69.19642,69.19643 -38.21613,0 -69.19643,-30.98029 -69.19643,-69.19643 0,-38.21613 30.9803,-69.19642 69.19643,-69.19642 38.21613,0 69.19642,30.98029 69.19642,69.19642 z"
       transform="matrix(1.5174194,0,0,1.5174194,-132.51624,236.76434)" />
    <g
       transform="scale(1.0429804,0.95879079)"
       style="font-size:32px;font-style:normal;font-variant:normal;font-weight:900;font-stretch:normal;text-align:end;line-height:125%;letter-spacing:0px;word-spacing:0px;writing-mode:lr-tb;text-anchor:end;fill:#ffffff;fill-opacity:1;stroke:none;font-family:Lato;-inkscape-font-specification:Lato Heavy"
       id="text3866-1">
      <path
         d="m 197.48673,698.50739 -4.192,0 c -0.46935,0 -0.85869,-0.10667 -1.168,-0.32 -0.29869,-0.224 -0.50669,-0.50667 -0.624,-0.848 l -1.376,-4.064 -8.864,0 -1.376,4.064 c -0.10668,0.29866 -0.31467,0.57066 -0.624,0.816 -0.30934,0.23466 -0.68801,0.352 -1.136,0.352 l -4.224,0 9.024,-23.312 5.536,0 9.024,23.312 m -14.976,-8.912 6.368,0 -2.144,-6.384 c -0.13868,-0.40532 -0.30402,-0.87999 -0.496,-1.424 -0.18135,-0.55465 -0.36268,-1.15199 -0.544,-1.792 -0.17068,0.65068 -0.34668,1.25335 -0.528,1.808 -0.18135,0.55468 -0.35201,1.03468 -0.512,1.44 l -2.144,6.352"
         style="line-height:125%;fill:#ffffff;font-family:Lato;-inkscape-font-specification:Lato Heavy"
         id="path6025"
         inkscape:connector-curvature="0" />
      <path
         d="m 209.49723,685.54739 c -0.12801,0.20267 -0.26668,0.34667 -0.416,0.432 -0.13868,0.0853 -0.32001,0.12801 -0.544,0.128 -0.23468,10e-6 -0.46935,-0.048 -0.704,-0.144 -0.23468,-0.10666 -0.49068,-0.21866 -0.768,-0.336 -0.26668,-0.11733 -0.57068,-0.22399 -0.912,-0.32 -0.34134,-0.10666 -0.73068,-0.15999 -1.168,-0.16 -0.62934,10e-6 -1.11468,0.12268 -1.456,0.368 -0.33067,0.23467 -0.49601,0.56534 -0.496,0.992 -1e-5,0.30934 0.10666,0.56534 0.32,0.768 0.22399,0.20267 0.51732,0.38401 0.88,0.544 0.36266,0.14934 0.77332,0.29334 1.232,0.432 0.45866,0.13867 0.92799,0.29334 1.408,0.464 0.47999,0.17067 0.94932,0.37334 1.408,0.608 0.45865,0.224 0.86932,0.50667 1.232,0.848 0.36265,0.33067 0.65065,0.736 0.864,1.216 0.22398,0.48 0.33598,1.056 0.336,1.728 -2e-5,0.82133 -0.14935,1.57867 -0.448,2.272 -0.29868,0.69333 -0.74668,1.29066 -1.344,1.792 -0.58668,0.50133 -1.31735,0.89066 -2.192,1.168 -0.86401,0.27733 -1.86134,0.41599 -2.992,0.416 -0.56534,-10e-6 -1.13067,-0.0533 -1.696,-0.16 -0.56534,-0.10667 -1.11467,-0.25067 -1.648,-0.432 -0.52267,-0.18134 -1.008,-0.39467 -1.456,-0.64 -0.448,-0.256 -0.832,-0.528 -1.152,-0.816 l 1.152,-1.824 c 0.13866,-0.21333 0.304,-0.37867 0.496,-0.496 0.192,-0.128 0.44266,-0.192 0.752,-0.192 0.28799,0 0.54399,0.064 0.768,0.192 0.23466,0.128 0.48533,0.26667 0.752,0.416 0.26666,0.14933 0.57599,0.288 0.928,0.416 0.36266,0.128 0.81599,0.192 1.36,0.192 0.38399,0 0.70932,-0.0373 0.976,-0.112 0.26666,-0.0853 0.47999,-0.19733 0.64,-0.336 0.15999,-0.13867 0.27732,-0.29333 0.352,-0.464 0.0747,-0.17067 0.11199,-0.34667 0.112,-0.528 -1e-5,-0.33067 -0.11201,-0.60267 -0.336,-0.816 -0.22401,-0.21333 -0.51734,-0.39467 -0.88,-0.544 -0.36268,-0.16 -0.77868,-0.304 -1.248,-0.432 -0.45867,-0.13866 -0.92801,-0.29333 -1.408,-0.464 -0.48001,-0.17066 -0.95467,-0.37333 -1.424,-0.608 -0.45867,-0.24533 -0.86934,-0.54933 -1.232,-0.912 -0.36267,-0.37333 -0.656,-0.82666 -0.88,-1.36 -0.224,-0.53333 -0.336,-1.17866 -0.336,-1.936 0,-0.70399 0.13333,-1.37066 0.4,-2 0.27733,-0.63999 0.688,-1.19999 1.232,-1.68 0.54399,-0.47999 1.22666,-0.85866 2.048,-1.136 0.82133,-0.28799 1.78132,-0.43199 2.88,-0.432 0.59732,10e-6 1.17332,0.0534 1.728,0.16 0.56532,0.10668 1.09332,0.25601 1.584,0.448 0.49065,0.19201 0.93865,0.42134 1.344,0.688 0.40532,0.25601 0.76265,0.53868 1.072,0.848 l -1.12,1.744"
         style="line-height:125%;fill:#ffffff;font-family:Lato;-inkscape-font-specification:Lato Heavy"
         id="path6027"
         inkscape:connector-curvature="0" />
      <path
         d="m 225.38373,685.85139 c -0.14935,0.18134 -0.29335,0.32534 -0.432,0.432 -0.13868,0.10667 -0.33602,0.16001 -0.592,0.16 -0.24535,10e-6 -0.46935,-0.0587 -0.672,-0.176 -0.19201,-0.11733 -0.41068,-0.24533 -0.656,-0.384 -0.24535,-0.14933 -0.53335,-0.28266 -0.864,-0.4 -0.33068,-0.11732 -0.74135,-0.17599 -1.232,-0.176 -0.60801,10e-6 -1.13601,0.11201 -1.584,0.336 -0.43734,0.22401 -0.80001,0.54401 -1.088,0.96 -0.28801,0.41601 -0.50134,0.92801 -0.64,1.536 -0.13868,0.59734 -0.20801,1.27467 -0.208,2.032 -1e-5,1.58934 0.30399,2.81067 0.912,3.664 0.61866,0.85333 1.46666,1.28 2.544,1.28 0.57599,0 1.02932,-0.0693 1.36,-0.208 0.34132,-0.14933 0.62932,-0.30933 0.864,-0.48 0.23465,-0.18133 0.44799,-0.34667 0.64,-0.496 0.20265,-0.14933 0.45332,-0.224 0.752,-0.224 0.39465,0 0.69332,0.144 0.896,0.432 l 1.44,1.776 c -0.51202,0.58666 -1.05068,1.06666 -1.616,1.44 -0.56535,0.36266 -1.14668,0.65066 -1.744,0.864 -0.58668,0.20266 -1.17868,0.34133 -1.776,0.416 -0.59735,0.0853 -1.17868,0.12799 -1.744,0.128 -1.01334,-10e-6 -1.98401,-0.192 -2.912,-0.576 -0.91734,-0.384 -1.72801,-0.93867 -2.432,-1.664 -0.69334,-0.736 -1.248,-1.63733 -1.664,-2.704 -0.40534,-1.06667 -0.608,-2.28266 -0.608,-3.648 0,-1.19466 0.176,-2.30933 0.528,-3.344 0.36266,-1.04533 0.89066,-1.94666 1.584,-2.704 0.70399,-0.76799 1.56799,-1.37066 2.592,-1.808 1.03466,-0.43732 2.22932,-0.65599 3.584,-0.656 1.30132,10e-6 2.44265,0.20801 3.424,0.624 0.98132,0.41601 1.86665,1.02401 2.656,1.824 l -1.312,1.744"
         style="line-height:125%;fill:#ffffff;font-family:Lato;-inkscape-font-specification:Lato Heavy"
         id="path6029"
         inkscape:connector-curvature="0" />
      <path
         d="m 234.09823,681.91539 0,16.592 -4.96,0 0,-16.592 4.96,0 m 0.576,-4.544 c -1e-5,0.39468 -0.08,0.76802 -0.24,1.12 -0.16001,0.34135 -0.37868,0.64535 -0.656,0.912 -0.27734,0.25601 -0.60268,0.46401 -0.976,0.624 -0.36267,0.14935 -0.75201,0.22401 -1.168,0.224 -0.40534,10e-6 -0.78401,-0.0747 -1.136,-0.224 -0.35201,-0.15999 -0.66667,-0.36799 -0.944,-0.624 -0.26667,-0.26665 -0.48,-0.57065 -0.64,-0.912 -0.14934,-0.35198 -0.224,-0.72532 -0.224,-1.12 0,-0.40532 0.0747,-0.78398 0.224,-1.136 0.16,-0.35198 0.37333,-0.66132 0.64,-0.928 0.27733,-0.26665 0.59199,-0.47465 0.944,-0.624 0.35199,-0.14931 0.73066,-0.22398 1.136,-0.224 0.41599,2e-5 0.80533,0.0747 1.168,0.224 0.37332,0.14935 0.69866,0.35735 0.976,0.624 0.27732,0.26668 0.49599,0.57602 0.656,0.928 0.15999,0.35202 0.23999,0.73068 0.24,1.136"
         style="line-height:125%;fill:#ffffff;font-family:Lato;-inkscape-font-specification:Lato Heavy"
         id="path6031"
         inkscape:connector-curvature="0" />
      <path
         d="m 243.22323,681.91539 0,16.592 -4.96,0 0,-16.592 4.96,0 m 0.576,-4.544 c -1e-5,0.39468 -0.08,0.76802 -0.24,1.12 -0.16001,0.34135 -0.37868,0.64535 -0.656,0.912 -0.27734,0.25601 -0.60268,0.46401 -0.976,0.624 -0.36267,0.14935 -0.75201,0.22401 -1.168,0.224 -0.40534,10e-6 -0.78401,-0.0747 -1.136,-0.224 -0.35201,-0.15999 -0.66667,-0.36799 -0.944,-0.624 -0.26667,-0.26665 -0.48,-0.57065 -0.64,-0.912 -0.14934,-0.35198 -0.224,-0.72532 -0.224,-1.12 0,-0.40532 0.0747,-0.78398 0.224,-1.136 0.16,-0.35198 0.37333,-0.66132 0.64,-0.928 0.27733,-0.26665 0.59199,-0.47465 0.944,-0.624 0.35199,-0.14931 0.73066,-0.22398 1.136,-0.224 0.41599,2e-5 0.80533,0.0747 1.168,0.224 0.37332,0.14935 0.69866,0.35735 0.976,0.624 0.27732,0.26668 0.49599,0.57602 0.656,0.928 0.15999,0.35202 0.23999,0.73068 0.24,1.136"
         style="line-height:125%;fill:#ffffff;font-family:Lato;-inkscape-font-specification:Lato Heavy"
         id="path6033"
         inkscape:connector-curvature="0" />
      <path
         d="m 258.87623,698.50739 c -0.30935,0 -0.57068,-0.0693 -0.784,-0.208 -0.20268,-0.13867 -0.34668,-0.34667 -0.432,-0.624 l -0.384,-1.264 c -0.33068,0.352 -0.67735,0.672 -1.04,0.96 -0.36268,0.288 -0.75735,0.53866 -1.184,0.752 -0.41601,0.20266 -0.86934,0.35733 -1.36,0.464 -0.48001,0.11733 -1.00268,0.17599 -1.568,0.176 -0.86401,-10e-6 -1.66401,-0.192 -2.4,-0.576 -0.73601,-0.384 -1.37067,-0.93867 -1.904,-1.664 -0.53334,-0.72534 -0.95467,-1.61067 -1.264,-2.656 -0.29867,-1.056 -0.448,-2.256 -0.448,-3.6 0,-1.23733 0.17066,-2.38399 0.512,-3.44 0.34133,-1.06666 0.82133,-1.98399 1.44,-2.752 0.62933,-0.77866 1.38133,-1.38666 2.256,-1.824 0.87466,-0.43732 1.83999,-0.65599 2.896,-0.656 0.85332,1e-5 1.57332,0.12801 2.16,0.384 0.59732,0.24534 1.13599,0.57068 1.616,0.976 l 0,-8.4 4.96,0 0,23.952 -3.072,0 m -5.024,-3.552 c 0.36266,0 0.68799,-0.032 0.976,-0.096 0.29865,-0.0747 0.57065,-0.176 0.816,-0.304 0.24532,-0.128 0.47465,-0.288 0.688,-0.48 0.22399,-0.192 0.44265,-0.416 0.656,-0.672 l 0,-7.04 c -0.38401,-0.41599 -0.79468,-0.70399 -1.232,-0.864 -0.42668,-0.17066 -0.88001,-0.25599 -1.36,-0.256 -0.45868,10e-6 -0.88001,0.0907 -1.264,0.272 -0.38401,0.18134 -0.72001,0.47467 -1.008,0.88 -0.27734,0.39467 -0.49601,0.91201 -0.656,1.552 -0.16001,0.64001 -0.24001,1.41334 -0.24,2.32 -1e-5,0.87467 0.064,1.61067 0.192,2.208 0.12799,0.59733 0.30399,1.08267 0.528,1.456 0.23466,0.36267 0.51199,0.624 0.832,0.784 0.31999,0.16 0.67732,0.24 1.072,0.24"
         style="line-height:125%;fill:#ffffff;font-family:Lato;-inkscape-font-specification:Lato Heavy"
         id="path6035"
         inkscape:connector-curvature="0" />
      <path
         d="m 273.18273,681.65939 c 1.25865,10e-6 2.40532,0.19735 3.44,0.592 1.03465,0.39468 1.91998,0.96001 2.656,1.696 0.74665,0.73601 1.32265,1.63201 1.728,2.688 0.41598,1.04534 0.62398,2.224 0.624,3.536 -2e-5,1.32267 -0.20802,2.51733 -0.624,3.584 -0.40535,1.056 -0.98135,1.95733 -1.728,2.704 -0.73602,0.736 -1.62135,1.30666 -2.656,1.712 -1.03468,0.39466 -2.18135,0.59199 -3.44,0.592 -1.26934,-10e-6 -2.42668,-0.19734 -3.472,-0.592 -1.03467,-0.40534 -1.93067,-0.976 -2.688,-1.712 -0.74667,-0.74667 -1.328,-1.648 -1.744,-2.704 -0.40534,-1.06667 -0.608,-2.26133 -0.608,-3.584 0,-1.312 0.20266,-2.49066 0.608,-3.536 0.416,-1.05599 0.99733,-1.95199 1.744,-2.688 0.75733,-0.73599 1.65333,-1.30132 2.688,-1.696 1.04532,-0.39465 2.20266,-0.59199 3.472,-0.592 m 0,13.424 c 1.14132,0 1.97865,-0.4 2.512,-1.2 0.54399,-0.81067 0.81598,-2.03733 0.816,-3.68 -2e-5,-1.64266 -0.27201,-2.86399 -0.816,-3.664 -0.53335,-0.79999 -1.37068,-1.19999 -2.512,-1.2 -1.17334,10e-6 -2.03201,0.40001 -2.576,1.2 -0.54401,0.80001 -0.81601,2.02134 -0.816,3.664 -10e-6,1.64267 0.27199,2.86933 0.816,3.68 0.54399,0.8 1.40266,1.2 2.576,1.2"
         style="line-height:125%;fill:#ffffff;font-family:Lato;-inkscape-font-specification:Lato Heavy"
         id="path6037"
         inkscape:connector-curvature="0" />
      <path
         d="m 296.32123,685.85139 c -0.14935,0.18134 -0.29335,0.32534 -0.432,0.432 -0.13868,0.10667 -0.33602,0.16001 -0.592,0.16 -0.24535,10e-6 -0.46935,-0.0587 -0.672,-0.176 -0.19201,-0.11733 -0.41068,-0.24533 -0.656,-0.384 -0.24535,-0.14933 -0.53335,-0.28266 -0.864,-0.4 -0.33068,-0.11732 -0.74135,-0.17599 -1.232,-0.176 -0.60801,10e-6 -1.13601,0.11201 -1.584,0.336 -0.43734,0.22401 -0.80001,0.54401 -1.088,0.96 -0.28801,0.41601 -0.50134,0.92801 -0.64,1.536 -0.13868,0.59734 -0.20801,1.27467 -0.208,2.032 -10e-6,1.58934 0.30399,2.81067 0.912,3.664 0.61866,0.85333 1.46666,1.28 2.544,1.28 0.57599,0 1.02932,-0.0693 1.36,-0.208 0.34132,-0.14933 0.62932,-0.30933 0.864,-0.48 0.23465,-0.18133 0.44799,-0.34667 0.64,-0.496 0.20265,-0.14933 0.45332,-0.224 0.752,-0.224 0.39465,0 0.69332,0.144 0.896,0.432 l 1.44,1.776 c -0.51202,0.58666 -1.05068,1.06666 -1.616,1.44 -0.56535,0.36266 -1.14668,0.65066 -1.744,0.864 -0.58668,0.20266 -1.17868,0.34133 -1.776,0.416 -0.59735,0.0853 -1.17868,0.12799 -1.744,0.128 -1.01334,-10e-6 -1.98401,-0.192 -2.912,-0.576 -0.91734,-0.384 -1.72801,-0.93867 -2.432,-1.664 -0.69334,-0.736 -1.248,-1.63733 -1.664,-2.704 -0.40534,-1.06667 -0.608,-2.28266 -0.608,-3.648 0,-1.19466 0.176,-2.30933 0.528,-3.344 0.36266,-1.04533 0.89066,-1.94666 1.584,-2.704 0.70399,-0.76799 1.56799,-1.37066 2.592,-1.808 1.03466,-0.43732 2.22932,-0.65599 3.584,-0.656 1.30132,10e-6 2.44265,0.20801 3.424,0.624 0.98132,0.41601 1.86665,1.02401 2.656,1.824 l -1.312,1.744"
         style="line-height:125%;fill:#ffffff;font-family:Lato;-inkscape-font-specification:Lato Heavy"
         id="path6039"
         inkscape:connector-curvature="0" />
      <path
         d="m 305.73973,698.76339 c -0.78934,-10e-6 -1.48801,-0.112 -2.096,-0.336 -0.59734,-0.23467 -1.10401,-0.56 -1.52,-0.976 -0.40534,-0.42667 -0.71467,-0.93867 -0.928,-1.536 -0.21334,-0.59733 -0.32001,-1.264 -0.32,-2 l 0,-8.576 -1.408,0 c -0.256,10e-6 -0.47467,-0.08 -0.656,-0.24 -0.18134,-0.17066 -0.272,-0.41599 -0.272,-0.736 l 0,-1.936 2.64,-0.512 0.976,-4.048 c 0.12799,-0.51198 0.49066,-0.76798 1.088,-0.768 l 2.592,0 0,4.848 4.032,0 0,3.392 -4.032,0 0,8.24 c -1e-5,0.384 0.0907,0.704 0.272,0.96 0.19199,0.24533 0.46399,0.368 0.816,0.368 0.18132,0 0.33065,-0.016 0.448,-0.048 0.12799,-0.0427 0.23465,-0.0853 0.32,-0.128 0.096,-0.0533 0.18132,-0.096 0.256,-0.128 0.0853,-0.0427 0.18132,-0.064 0.288,-0.064 0.14932,0 0.26665,0.0373 0.352,0.112 0.096,0.064 0.19199,0.17067 0.288,0.32 l 1.504,2.352 c -0.64001,0.48 -1.36001,0.84266 -2.16,1.088 -0.80001,0.23466 -1.62668,0.35199 -2.48,0.352"
         style="line-height:125%;fill:#ffffff;font-family:Lato;-inkscape-font-specification:Lato Heavy"
         id="path6041"
         inkscape:connector-curvature="0" />
      <path
         d="m 320.12023,681.65939 c 1.25865,10e-6 2.40532,0.19735 3.44,0.592 1.03465,0.39468 1.91998,0.96001 2.656,1.696 0.74665,0.73601 1.32265,1.63201 1.728,2.688 0.41598,1.04534 0.62398,2.224 0.624,3.536 -2e-5,1.32267 -0.20802,2.51733 -0.624,3.584 -0.40535,1.056 -0.98135,1.95733 -1.728,2.704 -0.73602,0.736 -1.62135,1.30666 -2.656,1.712 -1.03468,0.39466 -2.18135,0.59199 -3.44,0.592 -1.26934,-10e-6 -2.42668,-0.19734 -3.472,-0.592 -1.03467,-0.40534 -1.93067,-0.976 -2.688,-1.712 -0.74667,-0.74667 -1.328,-1.648 -1.744,-2.704 -0.40534,-1.06667 -0.608,-2.26133 -0.608,-3.584 0,-1.312 0.20266,-2.49066 0.608,-3.536 0.416,-1.05599 0.99733,-1.95199 1.744,-2.688 0.75733,-0.73599 1.65333,-1.30132 2.688,-1.696 1.04532,-0.39465 2.20266,-0.59199 3.472,-0.592 m 0,13.424 c 1.14132,0 1.97865,-0.4 2.512,-1.2 0.54399,-0.81067 0.81598,-2.03733 0.816,-3.68 -2e-5,-1.64266 -0.27201,-2.86399 -0.816,-3.664 -0.53335,-0.79999 -1.37068,-1.19999 -2.512,-1.2 -1.17334,10e-6 -2.03201,0.40001 -2.576,1.2 -0.54401,0.80001 -0.81601,2.02134 -0.816,3.664 -10e-6,1.64267 0.27199,2.86933 0.816,3.68 0.54399,0.8 1.40266,1.2 2.576,1.2"
         style="line-height:125%;fill:#ffffff;font-family:Lato;-inkscape-font-specification:Lato Heavy"
         id="path6043"
         inkscape:connector-curvature="0" />
      <path
         d="m 331.29073,698.50739 0,-16.592 2.944,0 c 0.24533,10e-6 0.44799,0.0213 0.608,0.064 0.17066,0.0427 0.30933,0.11201 0.416,0.208 0.11732,0.0853 0.20266,0.20268 0.256,0.352 0.064,0.14934 0.11732,0.33068 0.16,0.544 l 0.272,1.552 c 0.60799,-0.93866 1.29066,-1.67999 2.048,-2.224 0.75732,-0.54399 1.58399,-0.81599 2.48,-0.816 0.75732,1e-5 1.36532,0.18135 1.824,0.544 l -0.64,3.648 c -0.0427,0.22401 -0.12801,0.38401 -0.256,0.48 -0.12801,0.0853 -0.29868,0.12801 -0.512,0.128 -0.18135,10e-6 -0.39468,-0.0213 -0.64,-0.064 -0.24535,-0.0533 -0.55468,-0.08 -0.928,-0.08 -1.30134,10e-6 -2.32534,0.69334 -3.072,2.08 l 0,10.176 -4.96,0"
         style="line-height:125%;fill:#ffffff;font-family:Lato;-inkscape-font-specification:Lato Heavy"
         id="path6045"
         inkscape:connector-curvature="0" />
    </g>
  </g>
  <g
     inkscape:label="Confluence"
     id="g3982"
     inkscape:groupmode="layer"
     transform="translate(-11.02244,-291.53446)"
     style="display:inline">
    <path
       transform="matrix(1.1561291,0,0,1.1561291,443.00648,469.98759)"
       d="m 333.92857,277.80862 c 0,38.21614 -30.98029,69.19643 -69.19642,69.19643 -38.21613,0 -69.19643,-30.98029 -69.19643,-69.19643 0,-38.21613 30.9803,-69.19642 69.19643,-69.19642 38.21613,0 69.19642,30.98029 69.19642,69.19642 z"
       sodipodi:ry="69.196426"
       sodipodi:rx="69.196426"
       sodipodi:cy="277.80862"
       sodipodi:cx="264.73215"
       id="path3984"
       style="color:#000000;fill:#b3b3b3;fill-opacity:1;fill-rule:nonzero;stroke:#e5ff80;stroke-width:10.37946415;stroke-miterlimit:4;stroke-opacity:1;stroke-dasharray:none;marker:none;visibility:visible;display:inline;overflow:visible;enable-background:accumulate"
       sodipodi:type="arc" />
    <text
       xml:space="preserve"
       style="font-size:24px;font-style:normal;font-variant:normal;font-weight:bold;font-stretch:normal;text-align:end;line-height:125%;letter-spacing:0px;word-spacing:0px;writing-mode:lr-tb;text-anchor:end;fill:#000000;fill-opacity:1;stroke:none;font-family:Lato;-inkscape-font-specification:Lato Bold"
       x="779.54132"
       y="833.93506"
       id="text3866"
       sodipodi:linespacing="125%"
       transform="scale(1.0429804,0.95879079)"><tspan
         sodipodi:role="line"
         id="tspan3868"
         x="779.54132"
         y="833.93506"
         style="font-size:24px;font-weight:bold;fill:#ffffff;-inkscape-font-specification:Lato Bold">Confluence</tspan></text>
  </g>
  <g
     transform="translate(-11.02244,-291.53446)"
     inkscape:label="HTML"
     id="g4101"
     inkscape:groupmode="layer"
     style="display:inline">
    <path
       transform="matrix(2.1261018,0,0,2.1261018,126.67055,508.97537)"
       d="m 199.10714,175.13004 c 0,14.54678 -11.7925,26.33928 -26.33929,26.33928 -14.54678,0 -26.33928,-11.7925 -26.33928,-26.33928 0,-14.54679 11.7925,-26.33929 26.33928,-26.33929 14.54679,0 26.33929,11.7925 26.33929,26.33929 z"
       sodipodi:ry="26.339285"
       sodipodi:rx="26.339285"
       sodipodi:cy="175.13004"
       sodipodi:cx="172.76785"
       id="path4103"
       style="color:#000000;fill:#ffffff;fill-opacity:1;fill-rule:nonzero;stroke:#e5ff80;stroke-width:6.58482122;stroke-miterlimit:4;stroke-opacity:1;stroke-dasharray:none;marker:none;visibility:visible;display:inline;overflow:visible;enable-background:accumulate"
       sodipodi:type="arc" />
    <g
       transform="scale(1.0429804,0.95879079)"
       style="font-size:28px;font-style:normal;font-variant:normal;font-weight:bold;font-stretch:normal;text-align:end;line-height:125%;letter-spacing:0px;word-spacing:0px;writing-mode:lr-tb;text-anchor:end;fill:#999999;fill-opacity:1;stroke:none;font-family:Lato;-inkscape-font-specification:Lato Bold"
       id="text4105">
      <path
         d="m 452.84202,929.32111 -3.794,0 0,-8.848 -9.492,0 0,8.848 -3.794,0 0,-20.244 3.794,0 0,8.708 9.492,0 0,-8.708 3.794,0 0,20.244"
         style="fill:#999999;-inkscape-font-specification:Lato Bold"
         id="path5908"
         inkscape:connector-curvature="0" />
      <path
         d="m 471.19208,909.07711 0,3.094 -6.09,0 0,17.15 -3.766,0 0,-17.15 -6.118,0 0,-3.094 15.974,0"
         style="fill:#999999;-inkscape-font-specification:Lato Bold"
         id="path5910"
         inkscape:connector-curvature="0" />
      <path
         d="m 483.76977,920.92111 c 0.15865,0.29867 0.30332,0.61134 0.434,0.938 0.13998,0.31734 0.27532,0.63934 0.406,0.966 0.13065,-0.336 0.26598,-0.66733 0.406,-0.994 0.13998,-0.32666 0.28932,-0.63933 0.448,-0.938 l 5.992,-11.214 c 0.0746,-0.13998 0.14931,-0.25198 0.224,-0.336 0.084,-0.084 0.17264,-0.14465 0.266,-0.182 0.10264,-0.0373 0.21464,-0.0607 0.336,-0.07 0.12131,-0.009 0.26598,-0.014 0.434,-0.014 l 2.842,0 0,20.244 -3.318,0 0,-13.076 c -2e-5,-0.24266 0.005,-0.50866 0.014,-0.798 0.0186,-0.28932 0.042,-0.58332 0.07,-0.882 l -6.118,11.48 c -0.14002,0.26133 -0.32202,0.46667 -0.546,0.616 -0.22402,0.14 -0.48535,0.21 -0.784,0.21 l -0.518,0 c -0.29868,0 -0.56001,-0.07 -0.784,-0.21 -0.22401,-0.14933 -0.40601,-0.35467 -0.546,-0.616 l -6.202,-11.522 c 0.0373,0.30801 0.0607,0.61134 0.07,0.91 0.0187,0.28934 0.028,0.56001 0.028,0.812 l 0,13.076 -3.318,0 0,-20.244 2.842,0 c 0.16799,2e-5 0.31266,0.005 0.434,0.014 0.12133,0.009 0.22866,0.0327 0.322,0.07 0.10266,0.0373 0.19599,0.098 0.28,0.182 0.084,0.084 0.16332,0.19602 0.238,0.336 l 6.048,11.242 0,0"
         style="fill:#999999;-inkscape-font-specification:Lato Bold"
         id="path5912"
         inkscape:connector-curvature="0" />
      <path
         d="m 503.40302,926.21311 8.106,0 0,3.108 -11.872,0 0,-20.244 3.766,0 0,17.136"
         style="fill:#999999;-inkscape-font-specification:Lato Bold"
         id="path5914"
         inkscape:connector-curvature="0" />
    </g>
  </g>
  <g
     transform="translate(-11.02244,-291.53446)"
     inkscape:label="PDF"
     id="g4093"
     inkscape:groupmode="layer"
     style="display:inline">
    <path
       sodipodi:type="arc"
       style="color:#000000;fill:#ffffff;fill-opacity:1;fill-rule:nonzero;stroke:#e5ff80;stroke-width:6.3214283;stroke-miterlimit:4;stroke-opacity:1;stroke-dasharray:none;marker:none;visibility:visible;display:inline;overflow:visible;enable-background:accumulate"
       id="path4095"
       sodipodi:cx="172.76785"
       sodipodi:cy="175.13004"
       sodipodi:rx="26.339285"
       sodipodi:ry="26.339285"
       d="m 199.10714,175.13004 c 0,14.54678 -11.7925,26.33928 -26.33929,26.33928 -14.54678,0 -26.33928,-11.7925 -26.33928,-26.33928 0,-14.54679 11.7925,-26.33929 26.33928,-26.33929 14.54679,0 26.33929,11.7925 26.33929,26.33929 z"
       transform="matrix(1.8983051,0,0,1.8983051,-58.77264,644.91194)" />
    <g
       transform="scale(1.0429804,0.95879079)"
       style="font-size:20px;font-style:normal;font-variant:normal;font-weight:bold;font-stretch:normal;text-align:end;line-height:125%;letter-spacing:0px;word-spacing:0px;writing-mode:lr-tb;text-anchor:end;fill:#999999;fill-opacity:1;stroke:none;font-family:Lato;-inkscape-font-specification:Lato Bold"
       id="text4097">
      <path
         d="m 242.54475,1021.5096 0,5.09 -2.69,0 0,-14.46 4.71,0 c 0.96666,0 1.80332,0.1134 2.51,0.34 0.70666,0.2267 1.28999,0.5434 1.75,0.95 0.45999,0.4067 0.79999,0.8934 1.02,1.46 0.21999,0.5667 0.32999,1.1867 0.33,1.86 -10e-6,0.7 -0.11668,1.3434 -0.35,1.93 -0.23335,0.58 -0.58335,1.08 -1.05,1.5 -0.46668,0.42 -1.05001,0.7467 -1.75,0.98 -0.70001,0.2333 -1.52001,0.35 -2.46,0.35 l -2.02,0 m 0,-2.1 2.02,0 c 0.49333,0 0.92332,-0.06 1.29,-0.18 0.36666,-0.1266 0.66999,-0.3033 0.91,-0.53 0.23999,-0.2333 0.41999,-0.5133 0.54,-0.84 0.11999,-0.3333 0.17999,-0.7033 0.18,-1.11 -1e-5,-0.3866 -0.06,-0.7366 -0.18,-1.05 -0.12001,-0.3133 -0.30001,-0.58 -0.54,-0.8 -0.24001,-0.22 -0.54334,-0.3866 -0.91,-0.5 -0.36668,-0.12 -0.79667,-0.18 -1.29,-0.18 l -2.02,0 0,5.19"
         style="fill:#999999;-inkscape-font-specification:Lato Bold"
         id="path5901"
         inkscape:connector-curvature="0" />
      <path
         d="m 265.10475,1019.3696 c -2e-5,1.06 -0.17668,2.0333 -0.53,2.92 -0.35335,0.8867 -0.85001,1.65 -1.49,2.29 -0.64001,0.64 -1.41001,1.1367 -2.31,1.49 -0.90001,0.3533 -1.89668,0.53 -2.99,0.53 l -5.52,0 0,-14.46 5.52,0 c 1.09332,0 2.08999,0.18 2.99,0.54 0.89999,0.3534 1.66999,0.85 2.31,1.49 0.63999,0.6334 1.13665,1.3934 1.49,2.28 0.35332,0.8867 0.52998,1.86 0.53,2.92 m -2.75,0 c -1e-5,-0.7933 -0.10668,-1.5033 -0.32,-2.13 -0.21335,-0.6333 -0.51668,-1.1666 -0.91,-1.6 -0.39334,-0.44 -0.87334,-0.7766 -1.44,-1.01 -0.56001,-0.2333 -1.19334,-0.35 -1.9,-0.35 l -2.81,0 0,10.18 2.81,0 c 0.70666,0 1.33999,-0.1167 1.9,-0.35 0.56666,-0.2333 1.04666,-0.5667 1.44,-1 0.39332,-0.44 0.69665,-0.9733 0.91,-1.6 0.21332,-0.6333 0.31999,-1.3467 0.32,-2.14"
         style="fill:#999999;-inkscape-font-specification:Lato Bold"
         id="path5903"
         inkscape:connector-curvature="0" />
      <path
         d="m 276.34569,1012.1396 0,2.14 -6.41,0 0,4.28 5.41,0 0,2.15 -5.41,0 0,5.89 -2.71,0 0,-14.46 9.12,0"
         style="fill:#999999;-inkscape-font-specification:Lato Bold"
         id="path5905"
         inkscape:connector-curvature="0" />
    </g>
  </g>
  <g
     transform="translate(-11.02244,-291.53446)"
     inkscape:label="EPUB"
     id="g4085"
     inkscape:groupmode="layer"
     style="display:inline">
    <path
       transform="matrix(1.8983051,0,0,1.8983051,-58.77264,25.084222)"
       d="m 199.10714,175.13004 c 0,14.54678 -11.7925,26.33928 -26.33929,26.33928 -14.54678,0 -26.33928,-11.7925 -26.33928,-26.33928 0,-14.54679 11.7925,-26.33929 26.33928,-26.33929 14.54679,0 26.33929,11.7925 26.33929,26.33929 z"
       sodipodi:ry="26.339285"
       sodipodi:rx="26.339285"
       sodipodi:cy="175.13004"
       sodipodi:cx="172.76785"
       id="path4087"
       style="color:#000000;fill:#ffffff;stroke:#e5ff80;stroke-width:6.3214283;stroke-miterlimit:4;stroke-opacity:1;stroke-dasharray:none;marker:none;visibility:visible;display:inline;overflow:visible;enable-background:accumulate"
       sodipodi:type="arc" />
    <g
       transform="scale(1.0429804,0.95879079)"
       style="font-size:20px;font-style:normal;font-variant:normal;font-weight:normal;font-stretch:normal;text-align:end;line-height:125%;letter-spacing:0px;word-spacing:0px;writing-mode:lr-tb;text-anchor:end;fill:#999999;fill-opacity:1;stroke:none;font-family:Lato;-inkscape-font-specification:Lato"
       id="text4089">
      <path
         d="m 242.6024,365.59142 0,2.14 -6.41,0 0,4.01 5.05,0 0,2.07 -5.05,0 0,4.09 6.41,0 0,2.15 -9.12,0 0,-14.46 9.12,0"
         style="font-weight:bold;fill:#999999;-inkscape-font-specification:Lato Bold"
         id="path6005"
         inkscape:connector-curvature="0" />
      <path
         d="m 247.70771,374.96142 0,5.09 -2.69,0 0,-14.46 4.71,0 c 0.96666,2e-5 1.80333,0.11335 2.51,0.34 0.70666,0.22668 1.28999,0.54335 1.75,0.95 0.45999,0.40668 0.79999,0.89335 1.02,1.46 0.21999,0.56668 0.32999,1.18668 0.33,1.86 -10e-6,0.70001 -0.11668,1.34334 -0.35,1.93 -0.23334,0.58001 -0.58334,1.08001 -1.05,1.5 -0.46667,0.42001 -1.05001,0.74667 -1.75,0.98 -0.70001,0.23334 -1.52,0.35001 -2.46,0.35 l -2.02,0 m 0,-2.1 2.02,0 c 0.49333,10e-6 0.92333,-0.06 1.29,-0.18 0.36666,-0.12666 0.66999,-0.30332 0.91,-0.53 0.23999,-0.23332 0.41999,-0.51332 0.54,-0.84 0.11999,-0.33332 0.17999,-0.70332 0.18,-1.11 -1e-5,-0.38665 -0.06,-0.73665 -0.18,-1.05 -0.12001,-0.31332 -0.30001,-0.57999 -0.54,-0.8 -0.24001,-0.21999 -0.54334,-0.38665 -0.91,-0.5 -0.36667,-0.11999 -0.79667,-0.17999 -1.29,-0.18 l -2.02,0 0,5.19"
         style="font-weight:bold;fill:#999999;-inkscape-font-specification:Lato Bold"
         id="path6007"
         inkscape:connector-curvature="0" />
      <path
         d="m 263.24771,377.88142 c 0.51999,0 0.98333,-0.0867 1.39,-0.26 0.41333,-0.17333 0.75999,-0.41666 1.04,-0.73 0.28666,-0.31333 0.50333,-0.69333 0.65,-1.14 0.15333,-0.44666 0.22999,-0.94666 0.23,-1.5 l 0,-8.66 2.69,0 0,8.66 c -10e-6,0.86001 -0.14001,1.65667 -0.42,2.39 -0.27334,0.72667 -0.67001,1.35667 -1.19,1.89 -0.52001,0.52667 -1.15001,0.94 -1.89,1.24 -0.74001,0.29334 -1.57334,0.44 -2.5,0.44 -0.92667,0 -1.76,-0.14666 -2.5,-0.44 -0.74,-0.3 -1.37,-0.71333 -1.89,-1.24 -0.51333,-0.53333 -0.91,-1.16333 -1.19,-1.89 -0.27333,-0.73333 -0.41,-1.52999 -0.41,-2.39 l 0,-8.66 2.69,0 0,8.65 c 0,0.55334 0.0733,1.05334 0.22,1.5 0.15333,0.44667 0.37,0.83001 0.65,1.15 0.28,0.31334 0.62333,0.55667 1.03,0.73 0.41333,0.17334 0.88,0.26 1.4,0.26"
         style="font-weight:bold;fill:#999999;-inkscape-font-specification:Lato Bold"
         id="path6009"
         inkscape:connector-curvature="0" />
      <path
         d="m 271.99802,380.05142 0,-14.46 4.99,0 c 0.94666,2e-5 1.75333,0.09 2.42,0.27 0.67333,0.18002 1.22333,0.43668 1.65,0.77 0.43333,0.33335 0.74999,0.73668 0.95,1.21 0.19999,0.47335 0.29999,1.00668 0.3,1.6 -10e-6,0.34001 -0.05,0.66668 -0.15,0.98 -0.10001,0.30668 -0.25667,0.59668 -0.47,0.87 -0.20667,0.26668 -0.47334,0.51001 -0.8,0.73 -0.32001,0.22001 -0.70334,0.40668 -1.15,0.56 1.98666,0.44668 2.97999,1.52001 2.98,3.22 -1e-5,0.61334 -0.11667,1.18001 -0.35,1.7 -0.23334,0.52 -0.57334,0.97 -1.02,1.35 -0.44667,0.37334 -0.99667,0.66667 -1.65,0.88 -0.65334,0.21334 -1.4,0.32 -2.24,0.32 l -5.46,0 m 2.69,-6.34 0,4.24 2.73,0 c 0.5,0 0.91666,-0.06 1.25,-0.18 0.34,-0.12 0.61,-0.28 0.81,-0.48 0.20666,-0.19999 0.35333,-0.43333 0.44,-0.7 0.0933,-0.26666 0.14,-0.54999 0.14,-0.85 0,-0.31333 -0.05,-0.59333 -0.15,-0.84 -0.1,-0.25333 -0.25667,-0.46666 -0.47,-0.64 -0.21334,-0.17999 -0.48667,-0.31666 -0.82,-0.41 -0.33334,-0.0933 -0.73667,-0.13999 -1.21,-0.14 l -2.72,0 m 0,-1.86 2.15,0 c 0.91333,10e-6 1.60666,-0.16666 2.08,-0.5 0.47333,-0.33332 0.71,-0.86332 0.71,-1.59 0,-0.75332 -0.21334,-1.28999 -0.64,-1.61 -0.42667,-0.31999 -1.09334,-0.47999 -2,-0.48 l -2.3,0 0,4.18"
         style="font-weight:bold;fill:#999999;-inkscape-font-specification:Lato Bold"
         id="path6011"
         inkscape:connector-curvature="0" />
    </g>
  </g>
  <g
     transform="translate(-11.02244,-291.53446)"
     inkscape:label="DocBook"
     id="g4077"
     inkscape:groupmode="layer"
     style="display:inline">
    <path
       transform="matrix(1.5186441,0,0,1.5186441,171.33032,228.60187)"
       d="m 199.10714,175.13004 c 0,14.54678 -11.7925,26.33928 -26.33929,26.33928 -14.54678,0 -26.33928,-11.7925 -26.33928,-26.33928 0,-14.54679 11.7925,-26.33929 26.33928,-26.33929 14.54679,0 26.33929,11.7925 26.33929,26.33929 z"
       sodipodi:ry="26.339285"
       sodipodi:rx="26.339285"
       sodipodi:cy="175.13004"
       sodipodi:cx="172.76785"
       id="path4079"
       style="color:#000000;fill:#ffffff;fill-opacity:1;fill-rule:nonzero;stroke:#e5ff80;stroke-width:5.26785707;stroke-miterlimit:4;stroke-opacity:1;stroke-dasharray:none;marker:none;visibility:visible;display:inline;overflow:visible;enable-background:accumulate"
       sodipodi:type="arc" />
    <g
       transform="scale(1.0429804,0.95879079)"
       style="font-size:14px;font-style:normal;font-variant:normal;font-weight:bold;font-stretch:normal;text-align:end;line-height:125%;letter-spacing:0px;word-spacing:0px;writing-mode:lr-tb;text-anchor:end;fill:#999999;fill-opacity:1;stroke:none;font-family:Lato;-inkscape-font-specification:Lato Bold"
       id="text4081">
      <path
         d="m 396.4684,515.90604 c -10e-6,0.74201 -0.12367,1.42334 -0.371,2.044 -0.24734,0.62067 -0.595,1.155 -1.043,1.603 -0.448,0.448 -0.987,0.79567 -1.617,1.043 -0.63,0.24733 -1.32767,0.371 -2.093,0.371 l -3.864,0 0,-10.122 3.864,0 c 0.76533,1e-5 1.463,0.12601 2.093,0.378 0.63,0.24734 1.169,0.59501 1.617,1.043 0.448,0.44334 0.79566,0.97534 1.043,1.596 0.24733,0.62067 0.37099,1.30201 0.371,2.044 m -1.925,0 c 0,-0.55533 -0.0747,-1.05233 -0.224,-1.491 -0.14934,-0.44333 -0.36167,-0.81666 -0.637,-1.12 -0.27534,-0.30799 -0.61134,-0.54366 -1.008,-0.707 -0.392,-0.16332 -0.83533,-0.24499 -1.33,-0.245 l -1.967,0 0,7.126 1.967,0 c 0.49467,0 0.938,-0.0817 1.33,-0.245 0.39666,-0.16333 0.73266,-0.39666 1.008,-0.7 0.27533,-0.308 0.48766,-0.68133 0.637,-1.12 0.14933,-0.44333 0.224,-0.94266 0.224,-1.498"
         style="fill:#999999;-inkscape-font-specification:Lato Bold"
         id="path5990"
         inkscape:connector-curvature="0" />
      <path
         d="m 400.92106,513.67304 c 0.53666,10e-6 1.022,0.0863 1.456,0.259 0.43866,0.17267 0.81199,0.41767 1.12,0.735 0.30799,0.31734 0.54599,0.70467 0.714,1.162 0.16799,0.45734 0.25199,0.96834 0.252,1.533 -10e-6,0.56934 -0.084,1.08267 -0.252,1.54 -0.16801,0.45734 -0.40601,0.847 -0.714,1.169 -0.30801,0.322 -0.68134,0.56933 -1.12,0.742 -0.434,0.17267 -0.91934,0.259 -1.456,0.259 -0.53667,0 -1.02434,-0.0863 -1.463,-0.259 -0.43867,-0.17267 -0.81433,-0.42 -1.127,-0.742 -0.308,-0.322 -0.54833,-0.71166 -0.721,-1.169 -0.168,-0.45733 -0.252,-0.97066 -0.252,-1.54 0,-0.56466 0.084,-1.07566 0.252,-1.533 0.17267,-0.45733 0.413,-0.84466 0.721,-1.162 0.31267,-0.31733 0.68833,-0.56233 1.127,-0.735 0.43866,-0.17266 0.92633,-0.25899 1.463,-0.259 m 0,6.069 c 0.59733,0 1.03833,-0.20066 1.323,-0.602 0.28933,-0.40133 0.434,-0.98933 0.434,-1.764 0,-0.77466 -0.14467,-1.36499 -0.434,-1.771 -0.28467,-0.40599 -0.72567,-0.60899 -1.323,-0.609 -0.60667,10e-6 -1.05467,0.20534 -1.344,0.616 -0.28933,0.40601 -0.434,0.99401 -0.434,1.764 0,0.77 0.14467,1.358 0.434,1.764 0.28933,0.40134 0.73733,0.602 1.344,0.602"
         style="fill:#999999;-inkscape-font-specification:Lato Bold"
         id="path5992"
         inkscape:connector-curvature="0" />
      <path
         d="m 410.85909,515.30404 c -0.0513,0.0653 -0.10267,0.11667 -0.154,0.154 -0.0467,0.0373 -0.11667,0.056 -0.21,0.056 -0.0887,10e-6 -0.175,-0.0257 -0.259,-0.077 -0.084,-0.056 -0.18434,-0.11666 -0.301,-0.182 -0.11667,-0.07 -0.25667,-0.13066 -0.42,-0.182 -0.15867,-0.056 -0.357,-0.084 -0.595,-0.084 -0.30334,10e-6 -0.56933,0.056 -0.798,0.168 -0.22867,0.10734 -0.42,0.26367 -0.574,0.469 -0.14933,0.20534 -0.26133,0.45501 -0.336,0.749 -0.0747,0.28934 -0.112,0.61834 -0.112,0.987 0,0.38267 0.0397,0.72334 0.119,1.022 0.084,0.29867 0.203,0.55067 0.357,0.756 0.154,0.20067 0.34067,0.35467 0.56,0.462 0.21933,0.10267 0.46666,0.154 0.742,0.154 0.27533,0 0.497,-0.0327 0.665,-0.098 0.17266,-0.07 0.31733,-0.14466 0.434,-0.224 0.11666,-0.084 0.217,-0.15866 0.301,-0.224 0.0887,-0.07 0.18666,-0.105 0.294,-0.105 0.14,0 0.245,0.0537 0.315,0.161 l 0.497,0.63 c -0.19134,0.224 -0.399,0.413 -0.623,0.567 -0.224,0.14933 -0.45734,0.27067 -0.7,0.364 -0.238,0.0887 -0.48534,0.15167 -0.742,0.189 -0.25667,0.0373 -0.511,0.056 -0.763,0.056 -0.44333,0 -0.861,-0.0817 -1.253,-0.245 -0.392,-0.168 -0.735,-0.41067 -1.029,-0.728 -0.28933,-0.31733 -0.52033,-0.70466 -0.693,-1.162 -0.168,-0.462 -0.252,-0.987 -0.252,-1.575 0,-0.52733 0.0747,-1.01499 0.224,-1.463 0.154,-0.45266 0.378,-0.84233 0.672,-1.169 0.294,-0.33133 0.658,-0.59033 1.092,-0.777 0.434,-0.18666 0.93333,-0.27999 1.498,-0.28 0.53666,10e-6 1.00566,0.0863 1.407,0.259 0.406,0.17267 0.77,0.42001 1.092,0.742 l -0.455,0.63"
         style="fill:#999999;-inkscape-font-specification:Lato Bold"
         id="path5994"
         inkscape:connector-curvature="0" />
      <path
         d="m 412.58197,520.96704 0,-10.122 3.493,0 c 0.66266,1e-5 1.22732,0.063 1.694,0.189 0.47132,0.12601 0.85632,0.30568 1.155,0.539 0.30332,0.23334 0.52499,0.51568 0.665,0.847 0.13999,0.33134 0.20999,0.70468 0.21,1.12 -10e-6,0.23801 -0.035,0.46667 -0.105,0.686 -0.07,0.21467 -0.17968,0.41767 -0.329,0.609 -0.14468,0.18667 -0.33134,0.35701 -0.56,0.511 -0.22401,0.15401 -0.49234,0.28467 -0.805,0.392 1.39066,0.31267 2.08599,1.06401 2.086,2.254 -10e-6,0.42934 -0.0817,0.826 -0.245,1.19 -0.16334,0.364 -0.40134,0.679 -0.714,0.945 -0.31268,0.26133 -0.69768,0.46667 -1.155,0.616 -0.45734,0.14933 -0.98001,0.224 -1.568,0.224 l -3.822,0 m 1.883,-4.438 0,2.968 1.911,0 c 0.34999,0 0.64166,-0.042 0.875,-0.126 0.23799,-0.084 0.42699,-0.196 0.567,-0.336 0.14466,-0.14 0.24732,-0.30333 0.308,-0.49 0.0653,-0.18666 0.098,-0.385 0.098,-0.595 -1e-5,-0.21933 -0.035,-0.41533 -0.105,-0.588 -0.07,-0.17733 -0.17968,-0.32666 -0.329,-0.448 -0.14934,-0.12599 -0.34068,-0.22166 -0.574,-0.287 -0.23334,-0.0653 -0.51567,-0.098 -0.847,-0.098 l -1.904,0 m 0,-1.302 1.505,0 c 0.63933,10e-6 1.12466,-0.11666 1.456,-0.35 0.33132,-0.23333 0.49699,-0.60433 0.497,-1.113 -1e-5,-0.52732 -0.14934,-0.90299 -0.448,-1.127 -0.29868,-0.22399 -0.76534,-0.33599 -1.4,-0.336 l -1.61,0 0,2.926"
         style="fill:#999999;-inkscape-font-specification:Lato Bold"
         id="path5996"
         inkscape:connector-curvature="0" />
      <path
         d="m 424.68278,513.67304 c 0.53666,10e-6 1.02199,0.0863 1.456,0.259 0.43866,0.17267 0.81199,0.41767 1.12,0.735 0.30799,0.31734 0.54599,0.70467 0.714,1.162 0.16799,0.45734 0.25199,0.96834 0.252,1.533 -1e-5,0.56934 -0.084,1.08267 -0.252,1.54 -0.16801,0.45734 -0.40601,0.847 -0.714,1.169 -0.30801,0.322 -0.68134,0.56933 -1.12,0.742 -0.43401,0.17267 -0.91934,0.259 -1.456,0.259 -0.53667,0 -1.02434,-0.0863 -1.463,-0.259 -0.43867,-0.17267 -0.81434,-0.42 -1.127,-0.742 -0.308,-0.322 -0.54833,-0.71166 -0.721,-1.169 -0.168,-0.45733 -0.252,-0.97066 -0.252,-1.54 0,-0.56466 0.084,-1.07566 0.252,-1.533 0.17267,-0.45733 0.413,-0.84466 0.721,-1.162 0.31266,-0.31733 0.68833,-0.56233 1.127,-0.735 0.43866,-0.17266 0.92633,-0.25899 1.463,-0.259 m 0,6.069 c 0.59733,0 1.03833,-0.20066 1.323,-0.602 0.28933,-0.40133 0.43399,-0.98933 0.434,-1.764 -10e-6,-0.77466 -0.14467,-1.36499 -0.434,-1.771 -0.28467,-0.40599 -0.72567,-0.60899 -1.323,-0.609 -0.60667,10e-6 -1.05467,0.20534 -1.344,0.616 -0.28934,0.40601 -0.434,0.99401 -0.434,1.764 0,0.77 0.14466,1.358 0.434,1.764 0.28933,0.40134 0.73733,0.602 1.344,0.602"
         style="fill:#999999;-inkscape-font-specification:Lato Bold"
         id="path5998"
         inkscape:connector-curvature="0" />
      <path
         d="m 432.63981,513.67304 c 0.53666,10e-6 1.022,0.0863 1.456,0.259 0.43866,0.17267 0.81199,0.41767 1.12,0.735 0.30799,0.31734 0.54599,0.70467 0.714,1.162 0.16799,0.45734 0.25199,0.96834 0.252,1.533 -10e-6,0.56934 -0.084,1.08267 -0.252,1.54 -0.16801,0.45734 -0.40601,0.847 -0.714,1.169 -0.30801,0.322 -0.68134,0.56933 -1.12,0.742 -0.434,0.17267 -0.91934,0.259 -1.456,0.259 -0.53667,0 -1.02434,-0.0863 -1.463,-0.259 -0.43867,-0.17267 -0.81433,-0.42 -1.127,-0.742 -0.308,-0.322 -0.54833,-0.71166 -0.721,-1.169 -0.168,-0.45733 -0.252,-0.97066 -0.252,-1.54 0,-0.56466 0.084,-1.07566 0.252,-1.533 0.17267,-0.45733 0.413,-0.84466 0.721,-1.162 0.31267,-0.31733 0.68833,-0.56233 1.127,-0.735 0.43866,-0.17266 0.92633,-0.25899 1.463,-0.259 m 0,6.069 c 0.59733,0 1.03833,-0.20066 1.323,-0.602 0.28933,-0.40133 0.434,-0.98933 0.434,-1.764 0,-0.77466 -0.14467,-1.36499 -0.434,-1.771 -0.28467,-0.40599 -0.72567,-0.60899 -1.323,-0.609 -0.60667,10e-6 -1.05467,0.20534 -1.344,0.616 -0.28933,0.40601 -0.434,0.99401 -0.434,1.764 0,0.77 0.14467,1.358 0.434,1.764 0.28933,0.40134 0.73733,0.602 1.344,0.602"
         style="fill:#999999;-inkscape-font-specification:Lato Bold"
         id="path6000"
         inkscape:connector-curvature="0" />
      <path
         d="m 439.28084,510.56504 0,5.957 0.322,0 c 0.11667,1e-5 0.20767,-0.0163 0.273,-0.049 0.0653,-0.0327 0.13533,-0.0933 0.21,-0.182 l 1.785,-2.205 c 0.0793,-0.0933 0.16333,-0.16566 0.252,-0.217 0.0887,-0.056 0.20533,-0.084 0.35,-0.084 l 1.582,0 -2.233,2.667 c -0.0793,0.098 -0.161,0.18901 -0.245,0.273 -0.084,0.0793 -0.175,0.14934 -0.273,0.21 0.098,0.07 0.18433,0.15167 0.259,0.245 0.0747,0.0933 0.14933,0.19367 0.224,0.301 l 2.394,3.486 -1.561,0 c -0.13534,0 -0.24967,-0.0233 -0.343,-0.07 -0.0933,-0.0467 -0.17734,-0.126 -0.252,-0.238 l -1.827,-2.723 c -0.07,-0.10733 -0.14,-0.17733 -0.21,-0.21 -0.07,-0.0327 -0.175,-0.049 -0.315,-0.049 l -0.392,0 0,3.29 -1.729,0 0,-10.402 1.729,0"
         style="fill:#999999;-inkscape-font-specification:Lato Bold"
         id="path6002"
         inkscape:connector-curvature="0" />
    </g>
  </g>
  <g
     transform="translate(-11.02244,-291.53446)"
     inkscape:label="Slides"
     id="g4069"
     inkscape:groupmode="layer"
     style="display:inline">
    <path
       transform="matrix(2.0881357,0,0,2.0881357,-277.74028,479.93755)"
       d="m 199.10714,175.13004 c 0,14.54678 -11.7925,26.33928 -26.33929,26.33928 -14.54678,0 -26.33928,-11.7925 -26.33928,-26.33928 0,-14.54679 11.7925,-26.33929 26.33928,-26.33929 14.54679,0 26.33929,11.7925 26.33929,26.33929 z"
       sodipodi:ry="26.339285"
       sodipodi:rx="26.339285"
       sodipodi:cy="175.13004"
       sodipodi:cx="172.76785"
       id="path4063"
       style="color:#000000;fill:#ffffff;fill-opacity:1;fill-rule:nonzero;stroke:#e5ff80;stroke-width:6.7045455;stroke-miterlimit:4;stroke-opacity:1;stroke-dasharray:none;marker:none;visibility:visible;display:inline;overflow:visible;enable-background:accumulate"
       sodipodi:type="arc" />
    <g
       transform="scale(1.0429804,0.95879079)"
       style="font-size:24px;font-style:normal;font-variant:normal;font-weight:bold;font-stretch:normal;text-align:end;line-height:125%;letter-spacing:0px;word-spacing:0px;writing-mode:lr-tb;text-anchor:end;fill:#999999;fill-opacity:1;stroke:none;font-family:Lato;-inkscape-font-specification:Lato Bold"
       id="text4073">
      <path
         d="m 59.362593,876.60246 c -0.08801,0.17602 -0.192011,0.30002 -0.312,0.372 -0.112011,0.072 -0.248011,0.10802 -0.408,0.108 -0.160011,2e-5 -0.34001,-0.06 -0.54,-0.18 -0.20001,-0.12798 -0.43601,-0.26798 -0.708,-0.42 -0.272009,-0.15198 -0.592009,-0.28798 -0.96,-0.408 -0.360008,-0.12798 -0.788008,-0.19198 -1.284,-0.192 -0.448007,2e-5 -0.840006,0.056 -1.176,0.168 -0.328006,0.10402 -0.608005,0.25202 -0.84,0.444 -0.224005,0.19202 -0.392005,0.42402 -0.504,0.696 -0.112005,0.26402 -0.168005,0.55601 -0.168,0.876 -5e-6,0.40801 0.111995,0.74801 0.336,1.02 0.231995,0.27201 0.535995,0.50401 0.912,0.696 0.375994,0.19201 0.803993,0.36401 1.284,0.516 0.479992,0.15201 0.967992,0.31601 1.464,0.492 0.503991,0.16801 0.995991,0.36801 1.476,0.6 0.47999,0.22401 0.907989,0.51201 1.284,0.864 0.375988,0.34401 0.675988,0.76801 0.9,1.272 0.231988,0.50401 0.347987,1.11601 0.348,1.836 -1.3e-5,0.78401 -0.136012,1.52001 -0.408,2.208 -0.264012,0.68 -0.656011,1.276 -1.176,1.788 -0.51201,0.504 -1.14001,0.904 -1.884,1.2 -0.744008,0.288 -1.596007,0.432 -2.556,0.432 -0.552006,0 -1.096005,-0.056 -1.632,-0.168 -0.536004,-0.104 -1.052004,-0.256 -1.548,-0.456 -0.488003,-0.2 -0.948002,-0.44 -1.38,-0.72 -0.424001,-0.28 -0.804001,-0.592 -1.14,-0.936 l 0.936,-1.548 c 0.088,-0.11199 0.191998,-0.20399 0.312,-0.276 0.127998,-0.08 0.267998,-0.11999 0.42,-0.12 0.199997,10e-6 0.415997,0.084 0.648,0.252 0.231997,0.16001 0.503996,0.34001 0.816,0.54 0.319996,0.2 0.691995,0.384 1.116,0.552 0.431995,0.16 0.947994,0.24 1.548,0.24 0.919993,0 1.631992,-0.216 2.136,-0.648 0.503991,-0.43999 0.755991,-1.06799 0.756,-1.884 -9e-6,-0.45599 -0.116009,-0.82799 -0.348,-1.116 -0.224009,-0.28799 -0.524009,-0.52799 -0.9,-0.72 -0.376008,-0.19999 -0.804007,-0.36799 -1.284,-0.504 -0.480006,-0.13599 -0.968006,-0.28399 -1.464,-0.444 -0.496005,-0.15999 -0.984004,-0.35199 -1.464,-0.576 -0.480004,-0.22399 -0.908003,-0.51599 -1.284,-0.876 -0.376002,-0.35999 -0.680002,-0.80799 -0.912,-1.344 -0.224002,-0.54399 -0.336001,-1.21199 -0.336,-2.004 -10e-7,-0.63198 0.123998,-1.24798 0.372,-1.848 0.255998,-0.59998 0.623998,-1.13198 1.104,-1.596 0.487997,-0.46398 1.083996,-0.83598 1.788,-1.116 0.703995,-0.27998 1.507994,-0.41998 2.412,-0.42 1.023992,2e-5 1.967991,0.16002 2.832,0.48 0.863989,0.32002 1.599988,0.76802 2.208,1.344 l -0.792,1.524"
         style="fill:#999999;-inkscape-font-specification:Lato Bold"
         id="path5888"
         inkscape:connector-curvature="0" />
      <path
         d="m 65.941218,872.96646 0,17.832 -2.964,0 0,-17.832 2.964,0"
         style="fill:#999999;-inkscape-font-specification:Lato Bold"
         id="path5890"
         inkscape:connector-curvature="0" />
      <path
         d="m 72.456843,878.48646 0,12.312 -2.964,0 0,-12.312 2.964,0 m 0.444,-3.588 c -6e-6,0.25602 -0.052,0.49602 -0.156,0.72 -0.104005,0.22402 -0.244005,0.42002 -0.42,0.588 -0.168005,0.16802 -0.368005,0.30402 -0.6,0.408 -0.232004,0.096 -0.480004,0.14402 -0.744,0.144 -0.256003,2e-5 -0.500003,-0.048 -0.732,-0.144 -0.224003,-0.10398 -0.420002,-0.23998 -0.588,-0.408 -0.168002,-0.16798 -0.304002,-0.36398 -0.408,-0.588 -0.096,-0.22398 -0.144002,-0.46398 -0.144,-0.72 -2e-6,-0.26398 0.048,-0.51198 0.144,-0.744 0.103998,-0.23198 0.239998,-0.43198 0.408,-0.6 0.167998,-0.16798 0.363997,-0.29998 0.588,-0.396 0.231997,-0.10398 0.475997,-0.15598 0.732,-0.156 0.263996,2e-5 0.511996,0.052 0.744,0.156 0.231995,0.096 0.431995,0.22802 0.6,0.396 0.175995,0.16802 0.315995,0.36802 0.42,0.6 0.103995,0.23202 0.155994,0.48002 0.156,0.744"
         style="fill:#999999;-inkscape-font-specification:Lato Bold"
         id="path5892"
         inkscape:connector-curvature="0" />
      <path
         d="m 84.480468,890.79846 c -0.38401,0 -0.63601,-0.18 -0.756,-0.54 l -0.24,-1.188 c -0.256009,0.288 -0.524009,0.548 -0.804,0.78 -0.280009,0.232 -0.584008,0.432 -0.912,0.6 -0.320008,0.168 -0.668007,0.296 -1.044,0.384 -0.368006,0.096 -0.768006,0.144 -1.2,0.144 -0.672005,0 -1.288004,-0.14 -1.848,-0.42 -0.560003,-0.28 -1.044003,-0.684 -1.452,-1.212 -0.400002,-0.536 -0.712002,-1.196 -0.936,-1.98 -0.216001,-0.78399 -0.324001,-1.67999 -0.324,-2.688 -10e-7,-0.91199 0.123999,-1.75999 0.372,-2.544 0.247998,-0.78399 0.603998,-1.46399 1.068,-2.04 0.463997,-0.57599 1.019996,-1.02399 1.668,-1.344 0.647995,-0.32799 1.375994,-0.49199 2.184,-0.492 0.687993,10e-6 1.275992,0.11201 1.764,0.336 0.487991,0.21601 0.923991,0.50801 1.308,0.876 l 0,-6.504 2.964,0 0,17.832 -1.812,0 m -3.948,-2.172 c 0.615993,0 1.139992,-0.128 1.572,-0.384 0.431991,-0.256 0.839991,-0.61999 1.224,-1.092 l 0,-5.52 c -0.336009,-0.40799 -0.704009,-0.69599 -1.104,-0.864 -0.392008,-0.16799 -0.816008,-0.25199 -1.272,-0.252 -0.448007,10e-6 -0.856006,0.084 -1.224,0.252 -0.360005,0.16801 -0.668005,0.42401 -0.924,0.768 -0.248005,0.33601 -0.440004,0.76801 -0.576,1.296 -0.136004,0.52001 -0.204004,1.13601 -0.204,1.848 -4e-6,0.72001 0.056,1.33201 0.168,1.836 0.119996,0.49601 0.287995,0.90401 0.504,1.224 0.215995,0.312 0.479995,0.54 0.792,0.684 0.311994,0.136 0.659994,0.204 1.044,0.204"
         style="fill:#999999;-inkscape-font-specification:Lato Bold"
         id="path5894"
         inkscape:connector-curvature="0" />
      <path
         d="m 94.591968,878.29446 c 0.775992,1e-5 1.487991,0.12401 2.136,0.372 0.65599,0.24801 1.21999,0.61201 1.692,1.092 0.471989,0.47201 0.839988,1.05601 1.104,1.752 0.263988,0.68801 0.395988,1.47601 0.396,2.364 -1.2e-5,0.22401 -0.01201,0.41201 -0.036,0.564 -0.01601,0.14401 -0.05201,0.26001 -0.108,0.348 -0.04801,0.08 -0.116012,0.14001 -0.204,0.18 -0.08801,0.032 -0.200012,0.048 -0.336,0.048 l -7.608,0 c 0.088,1.26401 0.427996,2.19201 1.02,2.784 0.591994,0.592 1.375994,0.888 2.352,0.888 0.479992,0 0.891992,-0.056 1.236,-0.168 0.351991,-0.112 0.655991,-0.236 0.912,-0.372 0.26399,-0.136 0.49199,-0.26 0.684,-0.372 0.19999,-0.11199 0.391989,-0.16799 0.576,-0.168 0.119989,10e-6 0.223989,0.024 0.312,0.072 0.08799,0.048 0.163989,0.116 0.228,0.204 l 0.864,1.08 c -0.328012,0.384 -0.696012,0.708 -1.104,0.972 -0.408011,0.256 -0.83601,0.464 -1.284,0.624 -0.440009,0.152 -0.892009,0.26 -1.356,0.324 -0.456008,0.064 -0.900008,0.096 -1.332,0.096 -0.856006,0 -1.652006,-0.14 -2.388,-0.42 -0.736004,-0.288 -1.376003,-0.708 -1.92,-1.26 -0.544002,-0.56 -0.972002,-1.248 -1.284,-2.064 -0.312001,-0.82399 -0.468001,-1.77599 -0.468,-2.856 -10e-7,-0.83999 0.135999,-1.62799 0.408,-2.364 0.271998,-0.74399 0.659998,-1.38799 1.164,-1.932 0.511997,-0.55199 1.131996,-0.98799 1.86,-1.308 0.735995,-0.31999 1.563994,-0.47999 2.484,-0.48 m 0.06,2.124 c -0.864006,10e-6 -1.540006,0.24401 -2.028,0.732 -0.488005,0.48801 -0.800004,1.18001 -0.936,2.076 l 5.568,0 c -10e-6,-0.38399 -0.05201,-0.74399 -0.156,-1.08 -0.104009,-0.34399 -0.264009,-0.64399 -0.48,-0.9 -0.216009,-0.25599 -0.488009,-0.45599 -0.816,-0.6 -0.328008,-0.15199 -0.712008,-0.22799 -1.152,-0.228"
         style="fill:#999999;-inkscape-font-specification:Lato Bold"
         id="path5896"
         inkscape:connector-curvature="0" />
      <path
         d="m 109.65572,880.88646 c -0.08,0.12801 -0.16401,0.22001 -0.252,0.276 -0.088,0.048 -0.20001,0.072 -0.336,0.072 -0.14401,10e-6 -0.30001,-0.04 -0.468,-0.12 -0.16001,-0.08 -0.34801,-0.16799 -0.564,-0.264 -0.21601,-0.10399 -0.46401,-0.19599 -0.744,-0.276 -0.27201,-0.08 -0.59601,-0.11999 -0.972,-0.12 -0.58401,10e-6 -1.04401,0.12401 -1.38,0.372 -0.33601,0.24801 -0.50401,0.57201 -0.504,0.972 -1e-5,0.26401 0.084,0.48801 0.252,0.672 0.17599,0.17601 0.40399,0.33201 0.684,0.468 0.28799,0.13601 0.61199,0.26001 0.972,0.372 0.35999,0.10401 0.72799,0.22001 1.104,0.348 0.37599,0.12801 0.74399,0.27601 1.104,0.444 0.35999,0.16001 0.67999,0.36801 0.96,0.624 0.28799,0.24801 0.51599,0.54801 0.684,0.9 0.17599,0.35201 0.26399,0.77601 0.264,1.272 -1e-5,0.59201 -0.10801,1.14 -0.324,1.644 -0.21601,0.496 -0.53201,0.928 -0.948,1.296 -0.41601,0.36 -0.93201,0.644 -1.548,0.852 -0.60801,0.2 -1.30801,0.3 -2.1,0.3 -0.42401,0 -0.84001,-0.04 -1.248,-0.12 -0.40001,-0.072 -0.78801,-0.176 -1.164,-0.312 -0.368,-0.136 -0.712,-0.296 -1.032,-0.48 -0.312,-0.184 -0.588,-0.384 -0.828,-0.6 l 0.684,-1.128 c 0.088,-0.136 0.192,-0.24 0.312,-0.312 0.12,-0.072 0.272,-0.108 0.456,-0.108 0.184,0 0.356,0.052 0.516,0.156 0.168,0.104 0.35999,0.216 0.576,0.336 0.21599,0.12 0.46799,0.232 0.756,0.336 0.29599,0.104 0.66799,0.156 1.116,0.156 0.35199,0 0.65199,-0.04 0.9,-0.12 0.25599,-0.088 0.46399,-0.2 0.624,-0.336 0.16799,-0.136 0.28799,-0.292 0.36,-0.468 0.08,-0.184 0.11999,-0.37199 0.12,-0.564 -1e-5,-0.28799 -0.088,-0.52399 -0.264,-0.708 -0.16801,-0.18399 -0.39601,-0.34399 -0.684,-0.48 -0.28001,-0.13599 -0.60401,-0.25599 -0.972,-0.36 -0.36001,-0.11199 -0.73201,-0.23199 -1.116,-0.36 -0.37601,-0.12799 -0.74801,-0.27599 -1.116,-0.444 -0.36,-0.17599 -0.684,-0.39599 -0.972,-0.66 -0.28,-0.26399 -0.508,-0.58799 -0.684,-0.972 -0.168,-0.38399 -0.252,-0.84799 -0.252,-1.392 0,-0.50399 0.1,-0.98399 0.3,-1.44 0.2,-0.45599 0.492,-0.85199 0.876,-1.188 0.392,-0.34399 0.87599,-0.61599 1.452,-0.816 0.58399,-0.20799 1.25599,-0.31199 2.016,-0.312 0.84799,1e-5 1.61999,0.14001 2.316,0.42 0.69599,0.28001 1.27599,0.64801 1.74,1.104 l -0.672,1.068"
         style="fill:#999999;-inkscape-font-specification:Lato Bold"
         id="path5898"
         inkscape:connector-curvature="0" />
    </g>
  </g>
  <g
     transform="translate(-11.02244,-291.53446)"
     inkscape:label="Latex"
     id="g4061"
     inkscape:groupmode="layer"
     style="display:inline">
    <path
       transform="matrix(1.5186441,0,0,1.5186441,-143.59694,244.36287)"
       d="m 199.10714,175.13004 c 0,14.54678 -11.7925,26.33928 -26.33929,26.33928 -14.54678,0 -26.33928,-11.7925 -26.33928,-26.33928 0,-14.54679 11.7925,-26.33929 26.33928,-26.33929 14.54679,0 26.33929,11.7925 26.33929,26.33929 z"
       sodipodi:ry="26.339285"
       sodipodi:rx="26.339285"
       sodipodi:cy="175.13004"
       sodipodi:cx="172.76785"
       id="path4071"
       style="color:#000000;fill:#ffffff;fill-opacity:1;fill-rule:nonzero;stroke:#e5ff80;stroke-width:5.26785707;stroke-miterlimit:4;stroke-opacity:1;stroke-dasharray:none;marker:none;visibility:visible;display:inline;overflow:visible;enable-background:accumulate"
       sodipodi:type="arc" />
    <g
       transform="scale(1.0429804,0.95879079)"
       style="font-size:16px;font-style:normal;font-variant:normal;font-weight:bold;font-stretch:normal;text-align:end;line-height:125%;letter-spacing:0px;word-spacing:0px;writing-mode:lr-tb;text-anchor:end;fill:#999999;fill-opacity:1;stroke:none;font-family:Lato;-inkscape-font-specification:Lato Bold"
       id="text4065">
      <path
         d="m 92.685339,537.18698 5.79,0 0,2.22 -8.48,0 0,-14.46 2.69,0 0,12.24"
         style="font-size:20px;fill:#999999;-inkscape-font-specification:Lato Bold"
         id="path6014"
         inkscape:connector-curvature="0" />
      <path
         d="m 108.2469,539.40698 -1.11,0 c -0.23334,0 -0.41667,-0.0333 -0.55,-0.1 -0.13334,-0.0733 -0.23334,-0.21666 -0.3,-0.43 l -0.22,-0.73 c -0.26001,0.23334 -0.51667,0.44 -0.77,0.62 -0.24667,0.17334 -0.50334,0.32 -0.77,0.44 -0.26667,0.12 -0.55,0.21 -0.85,0.27 -0.3,0.06 -0.63334,0.09 -1,0.09 -0.43333,0 -0.83333,-0.0567 -1.2,-0.17 -0.36667,-0.12 -0.68333,-0.29666 -0.95,-0.53 -0.26,-0.23333 -0.46333,-0.52333 -0.609998,-0.87 -0.146668,-0.34666 -0.220001,-0.75 -0.22,-1.21 -10e-7,-0.38666 0.1,-0.76666 0.3,-1.14 0.206668,-0.37999 0.546668,-0.71999 1.019998,-1.02 0.47333,-0.30666 1.10333,-0.55999 1.89,-0.76 0.78666,-0.19999 1.76333,-0.31333 2.93,-0.34 l 0,-0.6 c -1e-5,-0.68666 -0.14667,-1.19332 -0.44,-1.52 -0.28667,-0.33332 -0.70667,-0.49999 -1.26,-0.5 -0.4,10e-6 -0.73334,0.0467 -1,0.14 -0.26667,0.0933 -0.5,0.20001 -0.7,0.32 -0.19333,0.11334 -0.37333,0.21668 -0.54,0.31 -0.16667,0.0933 -0.35,0.14001 -0.55,0.14 -0.16667,1e-5 -0.31,-0.0433 -0.43,-0.13 -0.12,-0.0867 -0.21667,-0.19332 -0.29,-0.32 l -0.45,-0.79 c 1.18,-1.07999 2.60333,-1.61999 4.27,-1.62 0.6,10e-6 1.13333,0.10001 1.6,0.3 0.47333,0.19335 0.87333,0.46668 1.2,0.82 0.32666,0.34668 0.57333,0.76334 0.74,1.25 0.17333,0.48668 0.25999,1.02001 0.26,1.6 l 0,6.48 m -4.8,-1.54 c 0.25333,0 0.48666,-0.0233 0.7,-0.07 0.21333,-0.0467 0.41333,-0.11666 0.6,-0.21 0.19333,-0.0933 0.37666,-0.20666 0.55,-0.34 0.18,-0.14 0.36,-0.30333 0.54,-0.49 l 0,-1.73 c -0.72,0.0333 -1.32334,0.0967 -1.81,0.19 -0.48,0.0867 -0.86667,0.20001 -1.16,0.34 -0.29334,0.14001 -0.50333,0.30334 -0.63,0.49 -0.12,0.18667 -0.18,0.39001 -0.18,0.61 0,0.43334 0.12667,0.74334 0.38,0.93 0.26,0.18667 0.59666,0.28 1.01,0.28"
         style="font-size:20px;fill:#999999;-inkscape-font-specification:Lato Bold"
         id="path6016"
         inkscape:connector-curvature="0" />
      <path
         d="m 114.04565,539.56698 c -0.88667,0 -1.57,-0.25 -2.05,-0.75 -0.48,-0.50666 -0.72,-1.20333 -0.72,-2.09 l 0,-5.73 -1.04,0 c -0.13333,10e-6 -0.25,-0.0433 -0.35,-0.13 -0.0933,-0.0867 -0.14,-0.21666 -0.14,-0.39 l 0,-0.98 1.65,-0.27 0.52,-2.8 c 0.0267,-0.13332 0.0867,-0.23665 0.18,-0.31 0.1,-0.0733 0.22333,-0.10998 0.37,-0.11 l 1.28,0 0,3.23 2.7,0 0,1.76 -2.7,0 0,5.56 c 0,0.32 0.08,0.57 0.24,0.75 0.16,0.18 0.37333,0.27 0.64,0.27 0.15333,0 0.28,-0.0167 0.38,-0.05 0.10666,-0.04 0.19666,-0.08 0.27,-0.12 0.08,-0.04 0.15,-0.0767 0.21,-0.11 0.06,-0.04 0.12,-0.06 0.18,-0.06 0.0733,0 0.13333,0.02 0.18,0.06 0.0467,0.0333 0.0967,0.0867 0.15,0.16 l 0.74,1.2 c -0.36001,0.3 -0.77334,0.52667 -1.24,0.68 -0.46667,0.15334 -0.95,0.23 -1.45,0.23"
         style="font-size:20px;fill:#999999;-inkscape-font-specification:Lato Bold"
         id="path6018"
         inkscape:connector-curvature="0" />
      <path
         d="m 122.65003,528.98698 c 0.64666,10e-6 1.23999,0.10335 1.78,0.31 0.54666,0.20668 1.01666,0.51001 1.41,0.91 0.39332,0.39334 0.69999,0.88001 0.92,1.46 0.21999,0.57334 0.32999,1.23001 0.33,1.97 -1e-5,0.18667 -0.01,0.34334 -0.03,0.47 -0.0134,0.12001 -0.0434,0.21667 -0.09,0.29 -0.04,0.0667 -0.0967,0.11667 -0.17,0.15 -0.0734,0.0267 -0.16668,0.04 -0.28,0.04 l -6.34,0 c 0.0733,1.05334 0.35666,1.82667 0.85,2.32 0.49333,0.49334 1.14666,0.74 1.96,0.74 0.39999,0 0.74332,-0.0467 1.03,-0.14 0.29332,-0.0933 0.54666,-0.19666 0.76,-0.31 0.21999,-0.11333 0.40999,-0.21666 0.57,-0.31 0.16666,-0.0933 0.32665,-0.13999 0.48,-0.14 0.1,10e-6 0.18665,0.02 0.26,0.06 0.0733,0.04 0.13665,0.0967 0.19,0.17 l 0.72,0.9 c -0.27335,0.32 -0.58001,0.59 -0.92,0.81 -0.34001,0.21334 -0.69668,0.38667 -1.07,0.52 -0.36668,0.12667 -0.74334,0.21667 -1.13,0.27 -0.38001,0.0533 -0.75001,0.08 -1.11,0.08 -0.71334,0 -1.37667,-0.11666 -1.99,-0.35 -0.61334,-0.24 -1.14667,-0.59 -1.6,-1.05 -0.45334,-0.46666 -0.81,-1.04 -1.07,-1.72 -0.26,-0.68666 -0.39,-1.47999 -0.39,-2.38 0,-0.69999 0.11333,-1.35666 0.34,-1.97 0.22666,-0.61999 0.55,-1.15666 0.97,-1.61 0.42666,-0.45999 0.94333,-0.82332 1.55,-1.09 0.61333,-0.26665 1.30333,-0.39999 2.07,-0.4 m 0.05,1.77 c -0.72001,10e-6 -1.28334,0.20334 -1.69,0.61 -0.40667,0.40668 -0.66667,0.98334 -0.78,1.73 l 4.64,0 c -1e-5,-0.31999 -0.0433,-0.61999 -0.13,-0.9 -0.0867,-0.28666 -0.22001,-0.53666 -0.4,-0.75 -0.18001,-0.21332 -0.40668,-0.37999 -0.68,-0.5 -0.27334,-0.12666 -0.59334,-0.18999 -0.96,-0.19"
         style="font-size:20px;fill:#999999;-inkscape-font-specification:Lato Bold"
         id="path6020"
         inkscape:connector-curvature="0" />
      <path
         d="m 130.95721,534.11698 -3.37,-4.97 2.38,0 c 0.18,10e-6 0.31333,0.0267 0.4,0.08 0.0867,0.0467 0.16333,0.12668 0.23,0.24 l 2.15,3.43 c 0.0333,-0.11332 0.0733,-0.22666 0.12,-0.34 0.0533,-0.11332 0.11667,-0.22666 0.19,-0.34 l 1.73,-2.7 c 0.08,-0.12665 0.16333,-0.21999 0.25,-0.28 0.0867,-0.06 0.19333,-0.09 0.32,-0.09 l 2.27,0 -3.38,4.86 3.52,5.4 -2.38,0 c -0.18,0 -0.32667,-0.0467 -0.44,-0.14 -0.10667,-0.0933 -0.19667,-0.2 -0.27,-0.32 l -2.18,-3.57 c -0.06,0.24001 -0.14333,0.44001 -0.25,0.6 l -1.92,2.97 c -0.0733,0.11334 -0.16333,0.22 -0.27,0.32 -0.10667,0.0933 -0.24,0.14 -0.4,0.14 l -2.21,0 3.51,-5.29"
         style="font-size:20px;fill:#999999;-inkscape-font-specification:Lato Bold"
         id="path6022"
         inkscape:connector-curvature="0" />
    </g>
  </g>
</svg>
