<?xml version="1.0" encoding="UTF-8"?>
<svg width="249px" height="385px" viewBox="0 0 249 385" version="1.1" xmlns="http://www.w3.org/2000/svg" xmlns:xlink="http://www.w3.org/1999/xlink">
    <!-- Generator: Sketch 49.1 (51147) - http://www.bohemiancoding.com/sketch -->
    <title>logo</title>
    <desc>Created with Sketch.</desc>
    <defs></defs>
    <g id="home" stroke="none" stroke-width="1" fill="none" fill-rule="evenodd">
        <g transform="translate(-970.000000, -146.000000)" id="logo/snyk">
            <g transform="translate(978.000000, 153.000000)">
                <path d="M167.775547,269.306567 L165.730776,270.79024 L165.454798,268.242403 C164.696446,271.660316 163.753435,275.064617 162.57711,278.259649 C159.878245,285.597533 155.109018,291.158154 149.008844,294.451811 C148.65146,312.042901 132.287281,321.533333 116.868937,321.533333 C101.322736,321.533333 84.8214573,312.050529 84.4579116,294.465541 C78.3454139,291.165782 73.5700252,285.605161 70.8680794,278.259649 C69.4718219,274.461429 68.4001713,270.373502 67.5756538,266.315461 L67.0471759,271.205702 L65.7348677,270.286217 L60.4669746,318.897187 L48.6856283,310.665332 L57.2428169,231.680102 C50.8900094,223.42689 43.378785,213.129443 41.4270374,208.142428 C38.2953066,200.166865 42.281986,159.358465 44.3708335,140.571346 L31.309375,106.115327 L31.309375,104.992523 C31.309375,88.1322228 53.4765062,44.9967149 60.9462787,30.9216317 C65.0272939,22.7229865 68.3907101,16.4705473 69.3292443,14.7341669 L77.4224223,0 C77.4224223,0 84.8138406,51.2063898 84.8084425,51.2519566 L88.7936275,78.9150401 L92.497138,109.365759 C96.9910447,107.927036 103.406502,106.223807 110.316168,105.511118 C112.139682,101.103821 114.116501,98.18114 116.286411,98.18114 C120.391087,98.18114 124.482452,102.012111 128.189956,106.225473 C132.543199,106.975563 136.527584,108.018838 139.722597,108.992299 L143.865565,78.9163803 L155.219226,0 L161.024475,10.7919869 L161.112144,10.1843137 L170.159195,26.9561846 C173.392595,32.9302292 201.690625,85.8667326 201.690625,104.992523 L201.689085,104.992523 L201.689085,106.113801 L188.860234,140.574397 C190.946,159.358465 195.094427,200.172967 191.962696,208.147004 C190.029434,213.0791 182.659931,223.225517 176.356417,231.442117 L184.89204,309.899507 L173.110693,318.424267 L167.775547,269.306567 Z" id="Shape-Copy-45" fill="#FFFFFF"></path>
                <path d="M232.271875,288.171471 L116.135115,370.272549 L0,288.171471 L0,96.7204659 C0,96.7204659 42.9421242,80.7470588 116.292955,80.7470588 C189.643785,80.7470588 232.271875,96.7204659 232.271875,96.7204659 L232.271875,288.171471 L232.271875,288.171471 L232.271875,288.171471 Z" id="Shape-Copy-44" fill="#FFFFFF"></path>
                <polygon id="Shape-Copy-42" fill="#3B3B63" points="166.311602 237.210569 116.234239 237.210569 116.234239 153.492157 65.4219506 234.763024 57.521875 318.216519 115.451804 359.528965 116.234239 360.088235 175.478125 317.919222"></polygon>
                <g id="Shape-+-Shape-Copy" stroke-width="1" transform="translate(7.281250, 89.476471)">
                    <path d="M107.761737,269.156863 L0,192.83174 L0,14.8496498 C0,14.8496498 39.8459836,-1.94457529e-16 107.908196,-1.94457529e-16 C175.970409,-1.94457529e-16 215.525,14.8496498 215.525,14.8496498 L215.525,192.83174 L107.761737,269.156863 Z" id="Shape" fill="#DBDBDB"></path>
                    <path d="M109.366731,2.84217094e-14 C109.316387,2.84217094e-14 109.269094,0.00150500647 109.21875,0.00150500647 L109.21875,269.156863 L109.220276,269.156863 L216.98125,192.830459 L216.98125,14.8498989 C216.98125,14.8498989 177.427499,2.84217094e-14 109.366731,2.84217094e-14 L109.366731,2.84217094e-14 L109.366731,2.84217094e-14 Z" id="Shape" fill="#C6C6C6"></path>
                </g>
                <polygon id="Shape-Copy-41" fill="#3B3B63" points="174.75 317.848572 165.640051 237.14902 115.771875 237.14902 115.771875 360.088235"></polygon>
                <polygon id="Shape-Copy-40" fill="#53537A" points="57.521875 318.216519 116.5 360.088235 116.5 153.492157 65.4577102 234.763024"></polygon>
                <path d="M141.25625,293.890196 C141.25625,307.507987 128.223622,314.258824 116.267738,314.258824 C104.311854,314.258824 91.015625,307.507987 91.015625,293.890196" id="Shape-Copy-39" fill="#BC9375"></path>
                <path d="M133.975,286.615686 C133.975,302.677896 125.142436,306.984314 116.136684,306.984314 C107.132425,306.984314 98.296875,302.677896 98.296875,286.615686" id="Shape-Copy-38" fill="#083251"></path>
                <path d="M116.136679,301.164706 C106.583102,301.164706 101.9375,294.260985 101.9375,280.068627 L106.492681,280.068627 C106.492681,296.684213 113.004529,296.684213 116.136679,296.684213 C119.267346,296.684213 125.780677,296.684213 125.780677,280.068627 L130.334375,280.068627 C130.334375,294.260985 125.688773,301.164706 116.136679,301.164706 L116.136679,301.164706 Z" id="Shape-Copy-37" fill="#FFFFFF"></path>
                <g id="Group-Copy-11" stroke-width="1" transform="translate(40.046875, 42.919608)">
                    <path d="M152.178125,72.4133018 C152.178125,54.9492461 122.382643,-2.84217094e-14 122.382643,-2.84217094e-14 L112.303075,69.6870259 L103.257194,84.3997939 L76.144837,85.4914813 L76.03775,85.707759 L76.03775,85.4914813 L48.9209309,84.3997939 L39.878025,69.6870259 L29.7984571,-2.84217094e-14 C29.7984571,-2.84217094e-14 2.27373675e-13,54.9492461 2.27373675e-13,72.4133018 L12.5886769,105.970183 C12.5886769,105.970183 6.23633295,162.336269 9.13660703,169.716193 C12.0279572,177.097589 32.1127271,201.7812 32.1127271,201.7812 C32.1127271,201.7812 32.0532343,222.532088 37.5518565,237.450835 C41.4754068,248.10435 50.1197109,252.42549 58.3966469,252.42549 C71.074563,252.42549 76.0347753,240.903922 76.0347753,240.903922 C76.0347753,240.903922 81.1139733,252.42549 93.7918893,252.42549 C102.067338,252.42549 110.702718,248.111707 114.635192,237.450835 C120.127865,222.537973 120.072835,201.7812 120.072835,201.7812 C120.072835,201.7812 140.153142,177.097589 143.050442,169.716193 C145.949229,162.334798 139.595397,105.970183 139.595397,105.970183 L152.178125,72.4133018 L152.178125,72.4133018 Z" id="Shape" fill="#C49A7E"></path>
                    <path d="M75.7235198,85.6018271 L75.6717142,85.7062877 L75.6717142,85.4914813 L48.685432,84.3997939 L39.6860575,69.6870259 L29.6520509,2.84217094e-14 C29.6520509,2.84217094e-14 0,54.9492461 0,72.4133018 L12.5251163,105.970183 C12.5251163,105.970183 6.2048319,162.336269 9.08670397,169.716193 C11.9700562,177.097589 31.9507398,201.7812 31.9507398,201.7812 C31.9507398,201.7812 31.8989342,222.532088 37.3651661,237.450835 C41.2757496,248.10435 49.8784412,252.42549 58.1081323,252.42549 C70.7324194,252.42549 75.6687539,240.903922 75.6687539,240.903922 C75.6687539,240.903922 75.6909563,240.945117 75.725,241.020152 L75.725,85.6018271 L75.7235198,85.6018271 L75.7235198,85.6018271 Z" id="Shape" fill="#D8B7A0"></path>
                </g>
                <path d="M179.873994,151.407321 C177.569525,146.621842 180.845937,135.299344 180.845937,135.299344 C162.073345,116.203015 157.378342,76.3823529 157.378342,76.3823529 C153.873413,88.9298984 146.255163,125.925451 146.255163,125.925451 C146.255163,125.925451 132.244349,120.747309 116.305972,120.722308 L116.305972,120.722308 L116.249584,120.722308 L116.187261,120.722308 L116.187261,120.722308 C115.311771,120.72672 114.449635,120.748779 113.5875,120.776722 L113.5875,276.884247 L114.777573,278.613725 L114.777573,277.759281 L115.513579,277.759281 L115.513579,278.613725 L115.520998,277.759281 L116.973719,277.759281 L116.973719,278.613725 L116.973719,277.759281 L117.717144,277.759281 L117.717144,278.613725 L130.693692,259.808584 L133.514552,207.003595 L149.671059,225.29254 L170.483989,231.326597 C170.483989,231.326597 178.271401,225.81756 178.271401,225.838149 C181.577491,221.243853 182.674079,217.330466 183.473892,215.299505 C186.364494,207.910983 179.873994,151.407321 179.873994,151.407321 L179.873994,151.407321 Z" id="Shape-Copy-36" fill="#3B3B63"></path>
                <path d="M86.6016722,125.926892 C86.6016722,125.926892 79.009197,88.9317341 75.5204428,76.3823529 C75.5204428,76.3823529 70.8461035,116.204173 52.1413548,135.301058 C52.1413548,135.301058 55.4054096,146.625356 53.1096319,151.409504 C53.1096319,151.409504 46.6436104,207.917751 49.5233109,215.294722 C50.3186285,217.327213 51.4199514,221.239243 54.709137,225.833673 C54.709137,225.813083 62.4716151,231.323751 62.4716151,231.323751 L83.2016151,225.288047 L99.294233,207.001512 L102.111846,259.808037 L115.032062,278.613725 L115.032062,277.759256 L115.772683,277.759256 L115.772683,278.613725 L115.772683,277.759256 L116.498522,277.759256 L116.498522,120.725068 C100.561124,120.751541 86.6016722,125.926892 86.6016722,125.926892 Z" id="Shape-Copy-35" fill="#53537A"></path>
                <g id="Group-Copy-10" stroke-width="1" transform="translate(71.356250, 186.954902)">
                    <g id="Group" transform="translate(58.250000, 0.000000)">
                        <path d="M24.4102332,0 L24.4102332,0 L6.10181345,0 L6.10181345,0 L0,0 L0,0.250885648 C0,8.55186511 7.37103831,15.2764706 16.0172603,15.2764706 C24.6664617,15.2764706 32.0375,8.5504149 32.0375,0.250885648 L32.0375,0 L24.4102332,0 L24.4102332,0 Z" id="Shape" fill="#333152"></path>
                        <path d="M5.825,5.68434189e-14 L5.825,0.258172204 C5.825,5.33953841 9.88297433,9.45686275 14.927303,9.45686275 C19.9716317,9.45686275 24.028125,5.33953841 24.028125,0.258172204 L24.028125,5.68434189e-14 L5.825,5.68434189e-14 L5.825,5.68434189e-14 Z" id="Shape" fill="#FFFFFF"></path>
                        <path d="M17.7515363,0 L13.4655791,0 C13.4239101,0 13.3881937,0.0204193452 13.3509893,0.0277119685 C13.8822694,0.137101318 14.1769289,1.31850629 14.0623391,2.10465108 C13.8911984,3.3064754 12.8464964,4.1407515 11.65,4.16117085 C11.998234,5.7320019 13.3048557,6.99508426 15.0400731,7.2342823 C17.2574606,7.542031 19.3066839,6.0514188 19.6206898,3.87967559 C19.8468931,2.28113256 19.0626225,0 17.7515363,0 L17.7515363,0 Z" id="Shape" fill="#333152"></path>
                    </g>
                    <g id="Group">
                        <path d="M24.4076086,0 L24.4076086,0 L6.10301937,0 L6.10301937,0 L0,0 L0,0.250885648 C0,8.55186511 7.37218522,15.2764706 16.0165156,15.2764706 C24.6653148,15.2764706 32.0375,8.5504149 32.0375,0.250885648 L32.0375,0 L24.4076086,0 L24.4076086,0 Z" id="Shape" fill="#333152"></path>
                        <path d="M5.825,5.68434189e-14 L5.825,0.258172204 C5.825,5.33953841 9.88659726,9.45686275 14.9243406,9.45686275 C19.9709715,9.45686275 24.028125,5.33953841 24.028125,0.258172204 L24.028125,5.68434189e-14 L5.825,5.68434189e-14 L5.825,5.68434189e-14 Z" id="Shape" fill="#FFFFFF"></path>
                        <path d="M17.7552583,0 L13.4653583,0 C13.4281583,0 13.3879824,0.0204193452 13.3537584,0.0277119685 C13.8834859,0.137101318 14.1766217,1.31850629 14.0650218,2.10465108 C13.8924139,3.3064754 12.8537909,4.1407515 11.65,4.16117085 C12.0026557,5.7320019 13.3091185,6.99508426 15.0411488,7.2342823 C17.2567788,7.542031 19.3102169,6.0514188 19.6197206,3.87967559 C19.8488724,2.28113256 19.0661851,0 17.7552583,0 L17.7552583,0 Z" id="Shape" fill="#333152"></path>
                    </g>
                </g>
                <path d="M152.440861,179.680392 C153.470811,178.565861 162.214901,168.768627 150.520185,168.768627 C139.952725,168.768627 132.349363,177.188217 130.334375,179.680392 L152.440861,179.680392 L152.440861,179.680392 Z" id="Shape-Copy-34" fill="#C49A7E"></path>
                <path d="M102.665625,179.680392 C100.65192,177.188217 93.0477506,168.768627 82.4761735,168.768627 C70.7862041,168.768627 79.5312235,178.565861 80.5552935,179.680392 L102.665625,179.680392 L102.665625,179.680392 Z" id="Shape-Copy-33" fill="#D8B7A0"></path>
                <rect id="Rectangle-path-Copy-3" fill="#53537A" x="65.53125" y="182.590196" width="44.415625" height="4.36470588"></rect>
                <path d="M198.05,114.763923 C198.05,96.308429 170.840356,45.2271769 167.731317,39.462503 L159.03223,23.2784314 L146.570894,109.960519 L140.819395,119.375957 C135.266376,117.522605 125.81632,114.936157 116.301091,114.936157 C106.796231,114.936157 97.4098666,117.513773 91.880547,119.370069 L86.1260851,109.959047 L81.7521015,79.5737986 C81.7580263,79.5237478 81.7654323,79.456032 81.7654323,79.4251183 L81.7313647,79.4207021 L73.645494,23.2784314 L64.7627376,39.462503 C61.6492552,45.2271769 34.221875,96.308429 34.221875,114.763923 L34.221875,115.847376 L46.7809697,149.095824 C44.7724625,167.224517 40.939117,206.602715 43.9503965,214.298761 C45.8270769,219.110998 53.0494081,229.047552 59.1578768,237.011517 L50.9298109,313.228573 L62.2580284,321.171928 L68.2450388,265.728897 C69.105616,271.121134 70.3750044,276.815148 72.2590908,281.958603 C74.8571156,289.046679 79.4488355,294.412418 85.3262371,297.596532 C85.6758003,314.565223 101.542415,323.715686 116.490685,323.715686 C131.316016,323.715686 147.050803,314.557863 147.394442,297.583283 C153.259993,294.405058 157.845789,289.039318 160.440851,281.958603 C162.403441,276.609056 163.690604,270.651539 164.546737,265.072348 L170.569297,320.715583 L181.897514,312.489587 L173.690185,236.781872 C179.751255,228.853238 186.837316,219.062419 188.696222,214.303177 C191.707502,206.608604 187.71863,167.224517 185.713085,149.098769 L198.048519,115.845904 L198.048519,114.763923 L198.05,114.763923 Z M46.6,113.41118 C47.2799994,103.886525 57.194214,81.065726 66.6511878,61.8333333 L69.171875,79.4179885 C68.2104966,85.9928275 63.8168801,111.778089 52.0312017,128.031373 L46.6,113.41118 L46.6,113.41118 Z M116.623331,311.34902 C110.020698,311.34902 100.63283,308.429216 98.296875,300.689188 C98.5361966,300.696469 98.7711135,300.716857 99.0148398,300.716857 C100.290732,300.716857 101.48734,300.600356 102.642838,300.437255 C105.991872,305.06234 111.208496,306.480739 116.494127,306.480739 C121.788567,306.480739 127.015469,305.075447 130.370376,300.44308 C131.518532,300.5989 132.701926,300.716857 133.967541,300.716857 C134.215672,300.716857 134.454994,300.696469 134.703125,300.689188 C132.390662,308.429216 123.127594,311.34902 116.623331,311.34902 L116.623331,311.34902 Z M108.490625,298.697134 C110.133035,297.947473 111.616308,297.054652 112.92393,296.072549 C114.118956,296.432756 115.265941,296.432756 116.145696,296.432756 C117.020947,296.432756 118.155921,296.440453 119.341939,296.080246 C120.652564,297.054652 122.13884,297.947473 123.78125,298.697134 C121.721482,300.276503 119.184304,301.164706 116.151701,301.164706 C113.102584,301.164706 110.553396,300.282661 108.490625,298.697134 L108.490625,298.697134 Z M177.273035,209.839915 C175.511395,214.331311 163.350591,230.378956 155.272576,240.342814 L153.925003,242.013277 L153.93094,244.144812 C153.93094,244.337785 153.925003,264.007713 148.871606,277.773569 C145.217725,287.722697 137.102607,288.798039 133.787104,288.798039 C125.392973,288.798039 121.770258,281.160162 121.642625,280.884697 L121.163257,273.729987 L110.958511,273.729987 L110.498437,280.843451 C110.352994,281.167527 106.819326,288.778889 98.4667504,288.778889 C95.1438263,288.778889 87.0316766,287.715331 83.3748276,277.766204 C78.3377555,264.048959 78.3140097,244.337785 78.3140097,244.137447 L78.3214303,242.005912 L76.9738577,240.342814 C68.9002948,230.386321 56.7380067,214.338676 55.0208905,209.956288 C53.648088,205.215942 55.9143252,174.561317 58.7994366,148.87389 L58.9582365,147.447957 L56.6816105,141.365643 C64.5028745,133.226921 69.9911163,122.025683 73.777083,111.363589 L74.1451424,113.959141 L86.5671499,134.219771 L91.4201923,132.151579 C91.5418894,132.100021 103.987643,126.844101 116.072757,126.844101 C128.080698,126.844101 140.731258,132.10444 140.849987,132.155998 L145.695609,134.206514 L158.102775,113.954722 L158.589564,110.572549 C162.335459,121.339231 167.817765,132.740807 175.676131,141.060717 L173.292649,147.443537 L173.451449,148.867998 C176.335077,174.561317 178.601314,205.215942 177.273035,209.839915 L177.273035,209.839915 Z M180.322326,128.031373 C167.478382,110.044823 163.448852,80.8049022 163.1,78.1325392 L165.442922,61.8333333 C174.980168,81.1656344 184.985997,104.108202 185.671875,113.683065 L180.322326,128.031373 L180.322326,128.031373 Z" id="Shape-Copy-32" fill="#333152"></path>
                <g id="Group-Copy-9" stroke-width="1" transform="translate(98.296875, 253.152941)">
                    <path d="M32.6336359,5.68434189e-14 L3.86838853,5.68434189e-14 C3.86838853,5.68434189e-14 0,6.66122593 0,8.82250251 C0,15.241287 17.7047987,25.4607843 17.7047987,25.4607843 C17.7047987,25.4607843 36.40625,14.9367569 36.40625,8.82250251 C36.40625,5.90581393 32.6336359,5.68434189e-14 32.6336359,5.68434189e-14 L32.6336359,5.68434189e-14 Z" id="Shape" fill="#333152"></path>
                    <g id="Group" transform="translate(8.009375, 17.458824)">
                        <path d="M18.7726729,2.40336947 C17.2169791,-0.301722793 15.2085088,-0.795498182 14.2869925,1.29059611 C13.3683785,3.37811339 13.8937154,7.26285924 15.4494092,9.96225956 C17.0051029,12.6687748 19.0150245,13.1625502 19.9321872,11.0750329 C20.8537036,8.98893863 20.3312691,5.10276979 18.7726729,2.40336947 L18.7726729,2.40336947 Z" id="Shape" fill="#C49A7E"></path>
                        <path d="M1.61329914,2.40336947 C0.0543096997,5.10276979 -0.463901875,8.98893863 0.453492285,11.0750329 C1.37233802,13.1625502 3.37841195,12.6687748 4.94175612,9.96225956 C6.49784241,7.26428222 7.01895713,3.37811339 6.09720825,1.29059611 C5.17981409,-0.795498182 3.17228858,-0.301722793 1.61329914,2.40336947 L1.61329914,2.40336947 Z" id="Shape" fill="#D8B7A0"></path>
                    </g>
                </g>
            </g>
        </g>
    </g>
</svg>