<svg xmlns="http://www.w3.org/2000/svg" viewBox="0 0 453.92949 103.313">
<g fill="#fff">
<path d="M181.31 63.064c0 7.56-2.098 13.34-6.295 17.338-4.197 4-10.243 6-18.137 6h-12.812V40.603h14.158c7.288 0 12.958 1.963 17.01 5.89 4.05 3.925 6.077 9.45 6.077 16.57zm-7.893.25c0-10.963-5.127-16.445-15.38-16.445h-6.485v33.236h5.325c11.026 0 16.54-5.597 16.54-16.79z"/>
<path d="M201.645 87.028c-5.388 0-9.602-1.57-12.64-4.714s-4.558-7.47-4.558-12.984c0-5.66 1.41-10.107 4.23-13.345 2.82-3.237 6.693-4.855 11.622-4.855 4.572 0 8.185 1.39 10.837 4.166 2.652 2.778 3.98 6.6 3.98 11.465v3.98H192.03c.104 3.362 1.013 5.947 2.726 7.753 1.712 1.807 4.124 2.71 7.236 2.71 2.046 0 3.952-.194 5.717-.58 1.764-.387 3.66-1.03 5.685-1.927v5.983a22.568 22.568 0 0 1-5.45 1.816c-1.84.355-3.94.532-6.3.532zm-1.347-30.323c-2.34 0-4.213.742-5.623 2.224-1.41 1.482-2.25 3.644-2.52 6.483h15.726c-.04-2.86-.73-5.028-2.067-6.5s-3.175-2.208-5.514-2.208z"/>
<path d="M227.523 86.402l-13.157-34.646h7.77l7.047 20.142c1.21 3.383 1.942 6.12 2.193 8.208h.25c.188-1.504.92-4.24 2.193-8.208l7.05-20.142h7.83l-13.22 34.646h-7.956z"/>
<path d="M265.243 87.028c-5.388 0-9.6-1.57-12.64-4.714-3.038-3.143-4.558-7.47-4.558-12.984 0-5.66 1.41-10.107 4.23-13.345 2.82-3.237 6.693-4.855 11.622-4.855 4.573 0 8.187 1.39 10.84 4.166 2.65 2.778 3.977 6.6 3.977 11.465v3.98h-23.087c.104 3.362 1.013 5.947 2.725 7.753 1.714 1.807 4.126 2.71 7.237 2.71 2.046 0 3.95-.194 5.716-.58 1.765-.387 3.66-1.03 5.687-1.927v5.983a22.582 22.582 0 0 1-5.45 1.816c-1.84.355-3.94.532-6.3.532zm-1.347-30.323c-2.34 0-4.213.742-5.623 2.224-1.41 1.482-2.25 3.644-2.52 6.483h15.726c-.043-2.86-.732-5.028-2.068-6.5-1.338-1.472-3.176-2.208-5.515-2.208z"/>
<path d="M290.59 86.402h-7.36l-.002-48.743h7.36V86.4z"/>
<path d="M327.996 69.016c0 5.66-1.452 10.077-4.354 13.25S316.7 87.03 311.52 87.03c-3.237 0-6.098-.73-8.583-2.193-2.486-1.46-4.397-3.56-5.733-6.296-1.337-2.736-2.005-5.91-2.005-9.524 0-5.618 1.44-10.003 4.322-13.157s6.943-4.73 12.186-4.73c5.012 0 8.98 1.612 11.903 4.838s4.386 7.577 4.386 13.048zm-25.217 0c0 8 2.954 11.998 8.865 11.998 5.847 0 8.77-4 8.77-11.998 0-7.915-2.944-11.873-8.834-11.873-3.09 0-5.328 1.023-6.717 3.07-1.39 2.048-2.083 4.98-2.083 8.803z"/>
<path d="M350.178 87.028c-4.385 0-7.79-1.577-10.212-4.73h-.438c.292 2.924.438 4.7.438 5.325v14.19h-7.36V51.756h5.952c.167.647.512 2.192 1.033 4.636h.377c2.297-3.51 5.743-5.263 10.338-5.263 4.322 0 7.69 1.565 10.103 4.698 2.412 3.132 3.618 7.53 3.618 13.188 0 5.66-1.228 10.077-3.68 13.25-2.455 3.175-5.844 4.762-10.167 4.762zm-1.785-29.884c-2.924 0-5.06.856-6.406 2.57-1.347 1.71-2.02 4.447-2.02 8.207v1.097c0 4.22.667 7.273 2.004 9.163 1.337 1.89 3.52 2.835 6.548 2.835 2.548 0 4.512-1.044 5.89-3.132s2.067-5.064 2.067-8.928c0-3.885-.685-6.824-2.052-8.818-1.368-1.996-3.378-2.993-6.03-2.993z"/>
<path d="M383.856 87.028c-5.388 0-9.6-1.57-12.64-4.714-3.038-3.143-4.558-7.47-4.558-12.984 0-5.66 1.41-10.107 4.23-13.345 2.82-3.237 6.693-4.855 11.622-4.855 4.573 0 8.187 1.39 10.84 4.166 2.65 2.778 3.977 6.6 3.977 11.465v3.98H374.24c.104 3.362 1.013 5.947 2.725 7.753 1.714 1.807 4.126 2.71 7.237 2.71 2.047 0 3.952-.194 5.717-.58 1.763-.387 3.658-1.03 5.685-1.927v5.983a22.582 22.582 0 0 1-5.45 1.816c-1.84.355-3.937.532-6.298.532zm-1.346-30.323c-2.34 0-4.213.742-5.623 2.224-1.41 1.482-2.25 3.644-2.52 6.483h15.725c-.042-2.86-.73-5.028-2.067-6.5-1.338-1.472-3.176-2.208-5.515-2.208z"/>
<path d="M419.416 51.13c1.483 0 2.705.103 3.666.312l-.72 6.86a13.956 13.956 0 0 0-3.26-.376c-2.944 0-5.33.96-7.157 2.882-1.828 1.922-2.74 4.417-2.74 7.487V86.4h-7.362V51.757h5.764l.972 6.108h.375c1.147-2.067 2.646-3.707 4.495-4.918 1.847-1.21 3.836-1.817 5.966-1.817z"/>
<path d="M448.93 76.534c0 3.383-1.233 5.98-3.698 7.785-2.464 1.806-5.993 2.708-10.588 2.708-4.615 0-8.322-.7-11.12-2.1V78.57c4.072 1.88 7.862 2.82 11.37 2.82 4.532 0 6.8-1.37 6.8-4.105 0-.877-.252-1.608-.753-2.193-.5-.584-1.325-1.19-2.474-1.817-1.15-.626-2.747-1.336-4.793-2.13-3.99-1.545-6.688-3.09-8.098-4.636s-2.114-3.55-2.114-6.016c0-2.965 1.196-5.268 3.587-6.907 2.392-1.64 5.644-2.46 9.76-2.46 4.07 0 7.924.826 11.558 2.476l-2.38 5.544c-3.74-1.545-6.882-2.318-9.43-2.318-3.885 0-5.826 1.106-5.826 3.32 0 1.085.505 2.004 1.518 2.756 1.013.75 3.222 1.786 6.626 3.1 2.86 1.108 4.938 2.12 6.233 3.04s2.256 1.98 2.882 3.18c.625 1.202.94 2.638.94 4.308z"/>
</g>
<g fill="#fff" fill-rule="evenodd" clip-rule="evenodd">
<path d="M237.408 15.135c.49-.208.535-.246.343-.765-1.024-2.93-4.896-4.52-8.207-3.14-2.598 1.084-4.486 3.834-4.486 6.922 0 4.154 2.987 7.843 7.07 7.843 1.857 0 3.186-.255 4.37-1 .255-.24 1.677-1.39 1.702-1.634 0-.06-.212.118-.514.294-.926.488-2.312.673-3.385.692-2.183.043-3.94-1.456-5.076-3.215a8.25 8.25 0 0 1-1.32-3.847c-.19-2.144.34-4.62 2.757-5.228 1.632-.41 3.154.493 3.754 2.05.267.723.105 1.082-.548 1.343l-5.838 2.453 1.985.126c2.378-.99 5.025-1.91 7.395-2.89"/>
<path d="M219.428 3.155h4.36c-.602.395-.807.56-1.07.964-.19.293-.235.864-.278 1.36-.242 5.834-.096 11.695-.137 17.525.034 1.592.652 1.4 2.718 1.34-.312.268-.81.78-1.197 1.01-1.873 0-3.646-.035-5.512-.035.698-.73 1.065-1.204 1.018-3.012.03-6.08-.206-11.923.17-17.782-.87.02-1.67.006-2.55.035.837-.42 1.612-1.02 2.48-1.405"/>
<path d="M211.53 26.352c.32.228.655.447.983.67 1.838 1.16 2.43 2.574 2.276 3.886-.18 1.583-1.705 2.82-4.29 2.974-2.78.172-6.502-.922-5.813-4.566.372-1.943 2.95-2.938 5.067-3.006.603-.018 1.192.024 1.778.042m6.27-15.157l-1.87 1.206h-2.116c.9.617 1.58 1.53 1.962 2.533.4 1.075.458 2.265.054 3.35-.39 1.034-1.174 1.922-2.332 2.59-.643.385-.987.882-1.022 1.342-.104 1.36 1.562 2.348 2.52 3.064 2.11 1.57 2.93 4.155 1.528 6.657-1.328 2.37-4.484 3.445-7.854 3.447-4.17-.002-6.813-1.924-6.946-4.537-.182-3.358 3.275-4.963 6.387-5.333.877-.098 1.67-.083 2.393-.04-1.1-.717-1.517-2.197-.957-3.19.153-.25.062-.165-.22-.126-2.556.386-5.183-1.278-5.803-3.8-.303-1.27-.11-2.613.375-3.655 1.06-2.265 3.41-3.534 6.02-3.534 2.703-.002 5.223-.002 7.88.025m-4.694 5.53c.337 2.015-.18 3.927-2 4.44-1.87.516-3.927-.943-4.587-3.53-.74-2.858.012-4.668 1.776-5.214 2.08-.657 4.306 1.23 4.812 4.306"/>
<path d="M194.08 10.768c5.005 0 7.62 3.328 7.85 7.23.233 3.882-2.978 7.356-6.89 7.768-4.71.507-8.83-2.738-8.83-7.483 0-4.14 3.544-7.515 7.87-7.515m4.726 7.727c.293 2.852-.667 5.518-3.223 6.11-2.63.595-5.422-1.577-6.108-5.268-.768-4.06.492-6.735 2.97-7.392 2.94-.77 5.93 2.186 6.36 6.55"/>
<path d="M176.93 10.768c5.05 0 7.688 3.328 7.928 7.23.244 3.882-2.998 7.356-6.966 7.768-4.772.507-8.932-2.738-8.932-7.483 0-4.14 3.582-7.515 7.97-7.515m4.774 7.727c.29 2.852-.676 5.518-3.266 6.11-2.657.595-5.473-1.577-6.173-5.268-.775-4.06.503-6.735 3.012-7.392 2.967-.77 5.988 2.186 6.428 6.55"/>
<path d="M164.34 8.692l2.27-2.335c-3.864-3.19-10.494-3.608-14.888-1.39-3.818 1.938-6.598 5.77-6.73 10.055-.155 4.497 2.486 8.074 5.14 9.858 4.39 2.964 12 2.313 16.585-.01l-.018-.426h.018v-4.72l1.06-1.256h-6.674l-2.48 1.396 4.808-.14v4.156c0 .598.008.682-.97 1-1.37.365-2.912.44-4.327.32-4.797-.408-8.45-4.2-9.317-8.92-.833-4.492 1.295-8.737 4.87-10.48 1.744-.854 3.842-1.263 6.116-.528 1.418.444 2.717 1.275 3.842 2.405l-.788 1.41 1.482-.395z"/>
</g>
<g>
<radialGradient id="a" cx="85.28" cy="-5.317" r="81.932" gradientUnits="userSpaceOnUse">
<stop stop-color="#0DA960" offset="0"/>
<stop stop-color="#03914B" offset="1"/>
</radialGradient>
<path fill="url(#a)" d="M101.652 66.3c1.193 1.972 1.218 5.084.19 7.225l14.22-23.69c1.273-2.12 1.273-5.582 0-7.695L93.08 3.848C91.8 1.738 88.74 0 86.273 0H66.238c-2.464 0-3.446 1.737-2.175 3.848l14.31 23.825c.087.12.21.228.285.34l22.994 38.286z"/>
<radialGradient id="b" cx="88.028" cy="46.036" r="60.771" gradientUnits="userSpaceOnUse">
<stop stop-color="#FFCD4D" offset="0"/>
<stop stop-color="#F6C338" offset="1"/>
</radialGradient>
<path fill="url(#b)" d="M66.238 91.964h20.035c2.468 0 5.528-1.724 6.805-3.85l8.764-14.59c1.03-2.14 1.004-5.252-.19-7.226l-14.59-24.16c1.267 2.113 1.267 5.574 0 7.696L72.836 73.506c-.075.16-.11.343-.188.49l-8.734 14.54c-.893 1.91.027 3.428 2.325 3.428z"/>
<linearGradient id="c" x1="107.237" x2="81.365" y1="57.832" y2="57.832" gradientUnits="userSpaceOnUse">
<stop stop-color="#231F20" stop-opacity=".2" offset="0"/>
<stop stop-color="#F1F2F2" stop-opacity=".25" offset="1"/>
</linearGradient>
<path fill="url(#c)" d="M101.652 66.3l-14.59-24.16c1.266 2.112 1.266 5.573 0 7.695l-5.138 8.56 19.917 15.13c1.03-2.14 1.005-5.253-.188-7.226z"/>
<radialGradient id="d" cx="228.416" cy="419.813" r="81.935" gradientUnits="userSpaceOnUse" gradientTransform="rotate(180 130.08 258.547)">
<stop stop-color="#4387FD" offset="0"/>
<stop stop-color="#4683EA" offset="1"/>
</radialGradient>
<path fill="url(#d)" d="M15.365 25.665c-1.18-1.975-1.22-5.088-.18-7.227L.95 42.13c-1.27 2.122-1.27 5.583 0 7.698l23 38.286c1.268 2.114 4.332 3.85 6.79 3.85H50.78c2.47 0 3.454-1.736 2.182-3.85L38.645 64.292c-.08-.123-.21-.228-.28-.342l-23-38.285z"/>
<radialGradient id="e" cx="231.164" cy="471.163" r="60.774" gradientUnits="userSpaceOnUse" gradientTransform="rotate(180 130.08 258.547)">
<stop stop-color="#E04A3F" offset="0"/>
<stop stop-color="#CD372D" offset="1"/>
</radialGradient>
<path fill="url(#e)" d="M50.78 0H30.743c-2.46 0-5.523 1.726-6.79 3.848l-8.77 14.59c-1.038 2.14-1 5.252.18 7.227l14.6 24.163c-1.272-2.115-1.272-5.577 0-7.698l14.222-23.674c.07-.158.106-.34.198-.492l8.73-14.535C54.005 1.517 53.076 0 50.778 0z"/>
<linearGradient id="f" x1="250.374" x2="224.498" y1="482.959" y2="482.959" gradientUnits="userSpaceOnUse" gradientTransform="rotate(180 130.08 258.547)">
<stop stop-color="#231F20" stop-opacity=".2" offset="0"/>
<stop stop-color="#F1F2F2" stop-opacity=".25" offset="1"/>
</linearGradient>
<path fill="url(#f)" d="M15.365 25.665l14.6 24.163c-1.273-2.115-1.273-5.577 0-7.698l5.137-8.558-19.918-15.134c-1.038 2.14-1 5.252.18 7.227z"/>
</g>
</svg>
